ZillaSlab-Light.ufo
<glyph name="exclam" format="1">
  <advance width="234"/>
  <unicode hex="0021"/>
  <outline>
    <contour>
      <point x="149" y="650" type="line"/>
      <point x="85" y="650" type="line"/>
      <point x="95" y="181" type="line"/>
      <point x="138" y="181" type="line"/>
    </contour>
    <contour>
      <point x="83" y="0" type="line"/>
      <point x="156" y="0" type="line"/>
      <point x="156" y="84" type="line"/>
      <point x="83" y="84" type="line"/>
    </contour>
  </outline>
</glyph>
<glyph name="percent" format="1">
  <advance width="674"/>
  <unicode hex="0025"/>
  <outline>
    <contour>
      <point x="567" y="521" type="line"/>
      <point x="367" y="269" type="line"/>
      <point x="163" y="0" type="line"/>
      <point x="103" y="0" type="line"/>
      <point x="332" y="287" type="line"/>
      <point x="507" y="521" type="line"/>
    </contour>
    <contour>
      <point x="173" y="245" type="curve" smooth="yes"/>
      <point x="264" y="245"/>
      <point x="317" y="300"/>
      <point x="317" y="393" type="curve" smooth="yes"/>
      <point x="317" y="491"/>
      <point x="259" y="531"/>
      <point x="182" y="531" type="curve" smooth="yes"/>
      <point x="100" y="531"/>
      <point x="39" y="483"/>
      <point x="39" y="383" type="curve" smooth="yes"/>
      <point x="39" y="285"/>
      <point x="98" y="245"/>
    </contour>
    <contour>
      <point x="174" y="287" type="curve" smooth="yes"/>
      <point x="114" y="287"/>
      <point x="87" y="321"/>
      <point x="87" y="384" type="curve" smooth="yes"/>
      <point x="87" y="458"/>
      <point x="122" y="489"/>
      <point x="180" y="489" type="curve" smooth="yes"/>
      <point x="240" y="489"/>
      <point x="268" y="457"/>
      <point x="268" y="392" type="curve" smooth="yes"/>
      <point x="268" y="328"/>
      <point x="240" y="287"/>
    </contour>
    <contour>
      <point x="494" y="-10" type="curve" smooth="yes"/>
      <point x="584" y="-10"/>
      <point x="637" y="45"/>
      <point x="637" y="138" type="curve" smooth="yes"/>
      <point x="637" y="236"/>
      <point x="579" y="276"/>
      <point x="503" y="276" type="curve" smooth="yes"/>
      <point x="420" y="276"/>
      <point x="359" y="228"/>
      <point x="359" y="128" type="curve" smooth="yes"/>
      <point x="359" y="29"/>
      <point x="418" y="-10"/>
    </contour>
    <contour>
      <point x="494" y="32" type="curve" smooth="yes"/>
      <point x="434" y="32"/>
      <point x="408" y="65"/>
      <point x="408" y="129" type="curve" smooth="yes"/>
      <point x="408" y="203"/>
      <point x="442" y="234"/>
      <point x="501" y="234" type="curve" smooth="yes"/>
      <point x="560" y="234"/>
      <point x="589" y="202"/>
      <point x="589" y="137" type="curve" smooth="yes"/>
      <point x="589" y="72"/>
      <point x="561" y="32"/>
    </contour>
  </outline>
</glyph>
<glyph name="quotesingle" format="1">
  <advance width="187"/>
  <unicode hex="0027"/>
  <outline>
    <contour>
      <point x="118" y="377" type="line"/>
      <point x="121" y="650" type="line"/>
      <point x="66" y="650" type="line"/>
      <point x="69" y="377" type="line"/>
    </contour>
  </outline>
</glyph>
<glyph name="parenright" format="1">
  <advance width="271"/>
  <unicode hex="0029"/>
  <outline>
    <contour>
      <point x="66" y="-183" type="curve"/>
      <point x="11" y="-183" type="line"/>
      <point x="121" y="-43"/>
      <point x="177" y="108"/>
      <point x="177" y="265" type="curve" smooth="yes"/>
      <point x="177" y="420"/>
      <point x="122" y="580"/>
      <point x="11" y="718" type="curve"/>
      <point x="68" y="718" type="line"/>
      <point x="179" y="571"/>
      <point x="227" y="417"/>
      <point x="227" y="265" type="curve" smooth="yes"/>
      <point x="227" y="111"/>
      <point x="176" y="-41"/>
    </contour>
  </outline>
</glyph>
<glyph name="asterisk" format="1">
  <advance width="415"/>
  <unicode hex="002A"/>
  <outline>
    <contour>
      <point x="364" y="562" type="line"/>
      <point x="243" y="492" type="line"/>
      <point x="364" y="423" type="line"/>
      <point x="340" y="386" type="line"/>
      <point x="226" y="459" type="line"/>
      <point x="230" y="339" type="line"/>
      <point x="185" y="339" type="line"/>
      <point x="189" y="458" type="line"/>
      <point x="75" y="386" type="line"/>
      <point x="51" y="423" type="line"/>
      <point x="172" y="492" type="line"/>
      <point x="51" y="562" type="line"/>
      <point x="76" y="599" type="line"/>
      <point x="189" y="525" type="line"/>
      <point x="185" y="650" type="line"/>
      <point x="230" y="650" type="line"/>
      <point x="225" y="524" type="line"/>
      <point x="340" y="599" type="line"/>
    </contour>
  </outline>
</glyph>
<glyph name="plus" format="1">
  <advance width="426"/>
  <unicode hex="002B"/>
  <outline>
    <contour>
      <point x="40" y="259" type="line"/>
      <point x="194" y="259" type="line"/>
      <point x="194" y="108" type="line"/>
      <point x="238" y="108" type="line"/>
      <point x="238" y="259" type="line"/>
      <point x="387" y="259" type="line"/>
      <point x="387" y="303" type="line"/>
      <point x="238" y="303" type="line"/>
      <point x="238" y="455" type="line"/>
      <point x="194" y="455" type="line"/>
      <point x="194" y="303" type="line"/>
      <point x="40" y="303" type="line"/>
    </contour>
  </outline>
</glyph>
<glyph name="hyphen" format="1">
  <advance width="355"/>
  <unicode hex="002D"/>
  <outline>
    <contour>
      <point x="63" y="254" type="line"/>
      <point x="292" y="254" type="line"/>
      <point x="292" y="205" type="line"/>
      <point x="63" y="205" type="line"/>
    </contour>
  </outline>
</glyph>
<glyph name="one" format="1">
  <advance width="380"/>
  <unicode hex="0031"/>
  <outline>
    <contour>
      <point x="359" y="0" type="line"/>
      <point x="359" y="51" type="line"/>
      <point x="237" y="51" type="line"/>
      <point x="237" y="521" type="line"/>
      <point x="55" y="521" type="line"/>
      <point x="55" y="470" type="line"/>
      <point x="180" y="470" type="line"/>
      <point x="180" y="51" type="line"/>
      <point x="55" y="51" type="line"/>
      <point x="55" y="0" type="line"/>
    </contour>
  </outline>
</glyph>
<glyph name="five" format="1">
  <advance width="509"/>
  <unicode hex="0035"/>
  <outline>
    <contour>
      <point x="462" y="62" type="curve" smooth="yes"/>
      <point x="462" y="233"/>
      <point x="327" y="265"/>
      <point x="188" y="265" type="curve" smooth="yes"/>
      <point x="171" y="265"/>
      <point x="152" y="265"/>
      <point x="135" y="264" type="curve"/>
      <point x="135" y="471" type="line"/>
      <point x="385" y="471" type="line"/>
      <point x="393" y="390" type="line"/>
      <point x="440" y="395" type="line"/>
      <point x="434" y="521" type="line"/>
      <point x="82" y="521" type="line"/>
      <point x="82" y="232" type="line"/>
      <point x="102" y="212" type="line"/>
      <point x="129" y="214"/>
      <point x="159" y="215"/>
      <point x="183" y="215" type="curve" smooth="yes"/>
      <point x="299" y="215"/>
      <point x="402" y="194"/>
      <point x="402" y="58" type="curve" smooth="yes"/>
      <point x="402" y="-36"/>
      <point x="353" y="-91"/>
      <point x="252" y="-91" type="curve" smooth="yes"/>
      <point x="182" y="-91"/>
      <point x="131" y="-56"/>
      <point x="107" y="6" type="curve"/>
      <point x="64" y="-10" type="line"/>
      <point x="84" y="-81"/>
      <point x="147" y="-140"/>
      <point x="260" y="-140" type="curve" smooth="yes"/>
      <point x="393" y="-140"/>
      <point x="462" y="-59"/>
    </contour>
  </outline>
</glyph>
<glyph name="eight" format="1">
  <advance width="538"/>
  <unicode hex="0038"/>
  <outline>
    <contour>
      <point x="491" y="161" type="curve" smooth="yes"/>
      <point x="491" y="258"/>
      <point x="410" y="303"/>
      <point x="326" y="341" type="curve"/>
      <point x="400" y="372"/>
      <point x="470" y="411"/>
      <point x="470" y="498" type="curve" smooth="yes"/>
      <point x="470" y="597"/>
      <point x="381" y="660"/>
      <point x="268" y="660" type="curve" smooth="yes"/>
      <point x="151" y="660"/>
      <point x="67" y="591"/>
      <point x="67" y="497" type="curve" smooth="yes"/>
      <point x="67" y="415"/>
      <point x="132" y="372"/>
      <point x="206" y="337" type="curve"/>
      <point x="125" y="303"/>
      <point x="49" y="260"/>
      <point x="49" y="160" type="curve" smooth="yes"/>
      <point x="49" y="48"/>
      <point x="139" y="-10"/>
      <point x="263" y="-10" type="curve" smooth="yes"/>
      <point x="394" y="-10"/>
      <point x="491" y="56"/>
    </contour>
    <contour>
      <point x="412" y="498" type="curve" smooth="yes"/>
      <point x="412" y="429"/>
      <point x="358" y="400"/>
      <point x="272" y="364" type="curve"/>
      <point x="195" y="398"/>
      <point x="126" y="433"/>
      <point x="126" y="504" type="curve" smooth="yes"/>
      <point x="126" y="571"/>
      <point x="188" y="610"/>
      <point x="268" y="610" type="curve" smooth="yes"/>
      <point x="348" y="610"/>
      <point x="412" y="572"/>
    </contour>
    <contour>
      <point x="431" y="158" type="curve" smooth="yes"/>
      <point x="431" y="81"/>
      <point x="355" y="40"/>
      <point x="265" y="40" type="curve" smooth="yes"/>
      <point x="174" y="40"/>
      <point x="106" y="83"/>
      <point x="106" y="165" type="curve" smooth="yes"/>
      <point x="106" y="247"/>
      <point x="173" y="280"/>
      <point x="257" y="314" type="curve"/>
      <point x="345" y="276"/>
      <point x="431" y="240"/>
    </contour>
  </outline>
</glyph>
<glyph name="nine" format="1">
  <advance width="530"/>
  <unicode hex="0039"/>
  <outline>
    <contour>
      <point x="52" y="319" type="curve" smooth="yes"/>
      <point x="52" y="209"/>
      <point x="104" y="123"/>
      <point x="236" y="123" type="curve" smooth="yes"/>
      <point x="347" y="123"/>
      <point x="400" y="184"/>
      <point x="419" y="241" type="curve"/>
      <point x="419" y="221" type="line" smooth="yes"/>
      <point x="418" y="27"/>
      <point x="382" y="-89"/>
      <point x="246" y="-89" type="curve" smooth="yes"/>
      <point x="188" y="-89"/>
      <point x="135" y="-64"/>
      <point x="96" y="-16" type="curve"/>
      <point x="62" y="-52" type="line"/>
      <point x="111" y="-108"/>
      <point x="161" y="-139"/>
      <point x="246" y="-139" type="curve" smooth="yes"/>
      <point x="416" y="-139"/>
      <point x="478" y="11"/>
      <point x="478" y="215" type="curve" smooth="yes"/>
      <point x="478" y="396"/>
      <point x="431" y="531"/>
      <point x="257" y="531" type="curve" smooth="yes"/>
      <point x="108" y="531"/>
      <point x="52" y="433"/>
    </contour>
    <contour>
      <point x="110" y="322" type="curve" smooth="yes"/>
      <point x="110" y="419"/>
      <point x="151" y="479"/>
      <point x="255" y="479" type="curve" smooth="yes"/>
      <point x="362" y="479"/>
      <point x="401" y="414"/>
      <point x="414" y="326" type="curve"/>
      <point x="408" y="263"/>
      <point x="367" y="173"/>
      <point x="247" y="173" type="curve" smooth="yes"/>
      <point x="150" y="173"/>
      <point x="110" y="226"/>
    </contour>
  </outline>
</glyph>
<glyph name="colon" format="1">
  <advance width="218"/>
  <unicode hex="003A"/>
  <outline>
    <contour>
      <point x="67" y="0" type="line"/>
      <point x="150" y="0" type="line"/>
      <point x="150" y="94" type="line"/>
      <point x="67" y="94" type="line"/>
    </contour>
    <contour>
      <point x="67" y="350" type="line"/>
      <point x="150" y="350" type="line"/>
      <point x="150" y="444" type="line"/>
      <point x="67" y="444" type="line"/>
    </contour>
  </outline>
</glyph>
<glyph name="semicolon" format="1">
  <advance width="230"/>
  <unicode hex="003B"/>
  <outline>
    <contour>
      <point x="144" y="105" type="line"/>
      <point x="90" y="105" type="line"/>
      <point x="39" y="-107" type="line"/>
      <point x="93" y="-107" type="line"/>
    </contour>
    <contour>
      <point x="84" y="350" type="line"/>
      <point x="167" y="350" type="line"/>
      <point x="167" y="444" type="line"/>
      <point x="84" y="444" type="line"/>
    </contour>
  </outline>
</glyph>
<glyph name="greater" format="1">
  <advance width="410"/>
  <unicode hex="003E"/>
  <outline>
    <contour>
      <point x="378" y="272" type="line"/>
      <point x="378" y="286" type="line"/>
      <point x="60" y="549" type="line"/>
      <point x="60" y="494" type="line"/>
      <point x="316" y="280" type="line"/>
      <point x="59" y="69" type="line"/>
      <point x="59" y="14" type="line"/>
    </contour>
  </outline>
</glyph>
<glyph name="at" format="1">
  <advance width="909"/>
  <unicode hex="0040"/>
  <outline>
    <contour>
      <point x="299" y="401" type="curve"/>
      <point x="283" y="302" type="line"/>
      <point x="324" y="297" type="line"/>
      <point x="342" y="376" type="line"/>
      <point x="377" y="400"/>
      <point x="409" y="409"/>
      <point x="451" y="409" type="curve" smooth="yes"/>
      <point x="527" y="409"/>
      <point x="553" y="359"/>
      <point x="553" y="294" type="curve" smooth="yes"/>
      <point x="553" y="244" type="line"/>
      <point x="529" y="245"/>
      <point x="500" y="247"/>
      <point x="473" y="247" type="curve" smooth="yes"/>
      <point x="374" y="247"/>
      <point x="265" y="226"/>
      <point x="265" y="114" type="curve" smooth="yes"/>
      <point x="265" y="19"/>
      <point x="342" y="-10"/>
      <point x="401" y="-10" type="curve" smooth="yes"/>
      <point x="474" y="-10"/>
      <point x="529" y="38"/>
      <point x="556" y="88" type="curve"/>
      <point x="568" y="30"/>
      <point x="609" y="-10"/>
      <point x="679" y="-10" type="curve" smooth="yes"/>
      <point x="817" y="-10"/>
      <point x="861" y="144"/>
      <point x="861" y="271" type="curve" smooth="yes"/>
      <point x="861" y="560"/>
      <point x="635" y="654"/>
      <point x="464" y="654" type="curve" smooth="yes"/>
      <point x="218" y="654"/>
      <point x="43" y="458"/>
      <point x="43" y="220" type="curve" smooth="yes"/>
      <point x="43" y="-24"/>
      <point x="226" y="-202"/>
      <point x="460" y="-202" type="curve" smooth="yes"/>
      <point x="553" y="-202"/>
      <point x="641" y="-174"/>
      <point x="708" y="-130" type="curve"/>
      <point x="688" y="-94" type="line"/>
      <point x="629" y="-135"/>
      <point x="546" y="-158"/>
      <point x="466" y="-158" type="curve" smooth="yes"/>
      <point x="267" y="-158"/>
      <point x="90" y="-16"/>
      <point x="90" y="223" type="curve" smooth="yes"/>
      <point x="90" y="447"/>
      <point x="246" y="610"/>
      <point x="466" y="610" type="curve" smooth="yes"/>
      <point x="620" y="610"/>
      <point x="813" y="532"/>
      <point x="813" y="258" type="curve" smooth="yes"/>
      <point x="813" y="156"/>
      <point x="785" y="31"/>
      <point x="690" y="31" type="curve" smooth="yes"/>
      <point x="640" y="31"/>
      <point x="608" y="64"/>
      <point x="608" y="112" type="curve" smooth="yes"/>
      <point x="608" y="304" type="line" smooth="yes"/>
      <point x="608" y="399"/>
      <point x="560" y="453"/>
      <point x="464" y="453" type="curve" smooth="yes"/>
      <point x="381" y="453"/>
      <point x="338" y="429"/>
    </contour>
    <contour>
      <point x="553" y="208" type="curve"/>
      <point x="553" y="169" type="line" smooth="yes"/>
      <point x="553" y="92"/>
      <point x="483" y="35"/>
      <point x="416" y="35" type="curve" smooth="yes"/>
      <point x="374" y="35"/>
      <point x="323" y="56"/>
      <point x="323" y="120" type="curve" smooth="yes"/>
      <point x="323" y="197"/>
      <point x="395" y="212"/>
      <point x="469" y="212" type="curve" smooth="yes"/>
      <point x="498" y="212"/>
      <point x="528" y="210"/>
    </contour>
  </outline>
</glyph>
<glyph name="B" format="1">
  <advance width="599"/>
  <unicode hex="0042"/>
  <outline>
    <contour>
      <point x="555" y="182" type="curve" smooth="yes"/>
      <point x="555" y="264"/>
      <point x="511" y="333"/>
      <point x="417" y="348" type="curve"/>
      <point x="417" y="352" type="line"/>
      <point x="481" y="366"/>
      <point x="527" y="422"/>
      <point x="527" y="493" type="curve" smooth="yes"/>
      <point x="527" y="587"/>
      <point x="467" y="650"/>
      <point x="332" y="650" type="curve" smooth="yes"/>
      <point x="43" y="650" type="line"/>
      <point x="43" y="599" type="line"/>
      <point x="128" y="599" type="line"/>
      <point x="128" y="51" type="line"/>
      <point x="43" y="51" type="line"/>
      <point x="43" y="0" type="line"/>
      <point x="337" y="0" type="line" smooth="yes"/>
      <point x="479" y="0"/>
      <point x="555" y="79"/>
    </contour>
    <contour>
      <point x="494" y="185" type="curve" smooth="yes"/>
      <point x="494" y="90"/>
      <point x="427" y="51"/>
      <point x="330" y="51" type="curve" smooth="yes"/>
      <point x="185" y="51" type="line"/>
      <point x="185" y="313" type="line"/>
      <point x="357" y="313" type="line" smooth="yes"/>
      <point x="449" y="313"/>
      <point x="494" y="262"/>
    </contour>
    <contour>
      <point x="466" y="481" type="curve" smooth="yes"/>
      <point x="466" y="401"/>
      <point x="402" y="361"/>
      <point x="324" y="361" type="curve" smooth="yes"/>
      <point x="185" y="361" type="line"/>
      <point x="185" y="599" type="line"/>
      <point x="326" y="599" type="line" smooth="yes"/>
      <point x="416" y="599"/>
      <point x="466" y="569"/>
    </contour>
  </outline>
</glyph>
<glyph name="J" format="1">
  <advance width="448"/>
  <unicode hex="004A"/>
  <outline>
    <contour>
      <point x="408" y="599" type="line"/>
      <point x="408" y="650" type="line"/>
      <point x="143" y="650" type="line"/>
      <point x="143" y="599" type="line"/>
      <point x="276" y="599" type="line"/>
      <point x="276" y="161" type="line" smooth="yes"/>
      <point x="276" y="90"/>
      <point x="245" y="44"/>
      <point x="169" y="44" type="curve" smooth="yes"/>
      <point x="122" y="44"/>
      <point x="91" y="62"/>
      <point x="62" y="114" type="curve"/>
      <point x="20" y="82" type="line"/>
      <point x="48" y="26"/>
      <point x="95" y="-10"/>
      <point x="174" y="-10" type="curve" smooth="yes"/>
      <point x="275" y="-10"/>
      <point x="333" y="47"/>
      <point x="333" y="161" type="curve" smooth="yes"/>
      <point x="333" y="599" type="line"/>
    </contour>
  </outline>
</glyph>
<glyph name="L" format="1">
  <advance width="541"/>
  <unicode hex="004C"/>
  <outline>
    <contour>
      <point x="507" y="0" type="line"/>
      <point x="527" y="202" type="line"/>
      <point x="475" y="206" type="line"/>
      <point x="455" y="51" type="line"/>
      <point x="185" y="51" type="line"/>
      <point x="185" y="599" type="line"/>
      <point x="298" y="599" type="line"/>
      <point x="298" y="650" type="line"/>
      <point x="43" y="650" type="line"/>
      <point x="43" y="599" type="line"/>
      <point x="128" y="599" type="line"/>
      <point x="128" y="51" type="line"/>
      <point x="43" y="51" type="line"/>
      <point x="43" y="0" type="line"/>
    </contour>
  </outline>
</glyph>
<glyph name="N" format="1">
  <advance width="732"/>
  <unicode hex="004E"/>
  <outline>
    <contour>
      <point x="695" y="599" type="line"/>
      <point x="695" y="650" type="line"/>
      <point x="457" y="650" type="line"/>
      <point x="457" y="599" type="line"/>
      <point x="556" y="599" type="line"/>
      <point x="556" y="118" type="line"/>
      <point x="552" y="118" type="line"/>
      <point x="171" y="650" type="line"/>
      <point x="41" y="650" type="line"/>
      <point x="41" y="599" type="line"/>
      <point x="128" y="599" type="line"/>
      <point x="128" y="51" type="line"/>
      <point x="51" y="51" type="line"/>
      <point x="51" y="0" type="line"/>
      <point x="290" y="0" type="line"/>
      <point x="290" y="51" type="line"/>
      <point x="183" y="51" type="line"/>
      <point x="183" y="538" type="line"/>
      <point x="187" y="538" type="line"/>
      <point x="572" y="0" type="line"/>
      <point x="611" y="0" type="line"/>
      <point x="611" y="599" type="line"/>
    </contour>
    <contour>
      <point x="343" y="727" type="move" name="top"/>
    </contour>
  </outline>
</glyph>
<glyph name="P" format="1">
  <advance width="567"/>
  <unicode hex="0050"/>
  <outline>
    <contour>
      <point x="533" y="455" type="curve" smooth="yes"/>
      <point x="533" y="556"/>
      <point x="474" y="650"/>
      <point x="313" y="650" type="curve" smooth="yes"/>
      <point x="43" y="650" type="line"/>
      <point x="43" y="599" type="line"/>
      <point x="128" y="599" type="line"/>
      <point x="128" y="51" type="line"/>
      <point x="43" y="51" type="line"/>
      <point x="43" y="0" type="line"/>
      <point x="300" y="0" type="line"/>
      <point x="300" y="51" type="line"/>
      <point x="185" y="51" type="line"/>
      <point x="185" y="249" type="line"/>
      <point x="319" y="249" type="line" smooth="yes"/>
      <point x="447" y="249"/>
      <point x="533" y="322"/>
    </contour>
    <contour>
      <point x="473" y="453" type="curve" smooth="yes"/>
      <point x="473" y="354"/>
      <point x="413" y="299"/>
      <point x="314" y="299" type="curve" smooth="yes"/>
      <point x="185" y="299" type="line"/>
      <point x="185" y="599" type="line"/>
      <point x="310" y="599" type="line" smooth="yes"/>
      <point x="421" y="599"/>
      <point x="473" y="542"/>
    </contour>
  </outline>
</glyph>
<glyph name="R" format="1">
  <advance width="611"/>
  <unicode hex="0052"/>
  <outline>
    <contour>
      <point x="602" y="0" type="line"/>
      <point x="602" y="51" type="line"/>
      <point x="519" y="51" type="line"/>
      <point x="395" y="289" type="line"/>
      <point x="492" y="311"/>
      <point x="539" y="386"/>
      <point x="539" y="469" type="curve" smooth="yes"/>
      <point x="539" y="568"/>
      <point x="481" y="650"/>
      <point x="320" y="650" type="curve" smooth="yes"/>
      <point x="43" y="650" type="line"/>
      <point x="43" y="599" type="line"/>
      <point x="128" y="599" type="line"/>
      <point x="128" y="51" type="line"/>
      <point x="43" y="51" type="line"/>
      <point x="43" y="0" type="line"/>
      <point x="278" y="0" type="line"/>
      <point x="278" y="51" type="line"/>
      <point x="186" y="51" type="line"/>
      <point x="186" y="279" type="line"/>
      <point x="339" y="279" type="line"/>
      <point x="482" y="0" type="line"/>
    </contour>
    <contour>
      <point x="479" y="467" type="curve" smooth="yes"/>
      <point x="479" y="381"/>
      <point x="432" y="327"/>
      <point x="318" y="327" type="curve" smooth="yes"/>
      <point x="186" y="327" type="line"/>
      <point x="186" y="599" type="line"/>
      <point x="315" y="599" type="line" smooth="yes"/>
      <point x="430" y="599"/>
      <point x="479" y="557"/>
    </contour>
  </outline>
</glyph>
<glyph name="T" format="1">
  <advance width="612"/>
  <unicode hex="0054"/>
  <outline>
    <contour>
      <point x="591" y="458" type="line"/>
      <point x="571" y="650" type="line"/>
      <point x="40" y="650" type="line"/>
      <point x="21" y="458" type="line"/>
      <point x="72" y="454" type="line"/>
      <point x="92" y="599" type="line"/>
      <point x="277" y="599" type="line"/>
      <point x="277" y="51" type="line"/>
      <point x="162" y="51" type="line"/>
      <point x="162" y="0" type="line"/>
      <point x="451" y="0" type="line"/>
      <point x="451" y="51" type="line"/>
      <point x="334" y="51" type="line"/>
      <point x="334" y="599" type="line"/>
      <point x="519" y="599" type="line"/>
      <point x="539" y="454" type="line"/>
    </contour>
  </outline>
</glyph>
<glyph name="W" format="1">
  <advance width="919"/>
  <unicode hex="0057"/>
  <outline>
    <contour>
      <point x="916" y="599" type="line"/>
      <point x="916" y="650" type="line"/>
      <point x="702" y="650" type="line"/>
      <point x="702" y="599" type="line"/>
      <point x="803" y="599" type="line"/>
      <point x="666" y="89" type="line"/>
      <point x="662" y="89" type="line"/>
      <point x="501" y="599" type="line"/>
      <point x="571" y="599" type="line"/>
      <point x="571" y="650" type="line"/>
      <point x="356" y="650" type="line"/>
      <point x="356" y="599" type="line"/>
      <point x="425" y="599" type="line"/>
      <point x="266" y="91" type="line"/>
      <point x="262" y="91" type="line"/>
      <point x="115" y="599" type="line"/>
      <point x="215" y="599" type="line"/>
      <point x="215" y="650" type="line"/>
      <point x="-1" y="650" type="line"/>
      <point x="-1" y="599" type="line"/>
      <point x="54" y="599" type="line"/>
      <point x="238" y="0" type="line"/>
      <point x="288" y="0" type="line"/>
      <point x="459" y="547" type="line"/>
      <point x="463" y="547" type="line"/>
      <point x="638" y="0" type="line"/>
      <point x="688" y="0" type="line"/>
      <point x="860" y="599" type="line"/>
    </contour>
  </outline>
</glyph>
<glyph name="Z" format="1">
  <advance width="574"/>
  <unicode hex="005A"/>
  <outline>
    <contour>
      <point x="504" y="0" type="line"/>
      <point x="532" y="185" type="line"/>
      <point x="482" y="194" type="line"/>
      <point x="452" y="51" type="line"/>
      <point x="114" y="51" type="line"/>
      <point x="114" y="54" type="line"/>
      <point x="513" y="615" type="line"/>
      <point x="512" y="650" type="line"/>
      <point x="74" y="650" type="line"/>
      <point x="47" y="466" type="line"/>
      <point x="95" y="458" type="line"/>
      <point x="125" y="599" type="line"/>
      <point x="433" y="599" type="line"/>
      <point x="433" y="596" type="line"/>
      <point x="35" y="37" type="line"/>
      <point x="37" y="0" type="line"/>
    </contour>
  </outline>
</glyph>
<glyph name="bracketleft" format="1">
  <advance width="277"/>
  <unicode hex="005B"/>
  <outline>
    <contour>
      <point x="89" y="-204" type="line"/>
      <point x="253" y="-204" type="line"/>
      <point x="253" y="-161" type="line"/>
      <point x="139" y="-161" type="line"/>
      <point x="139" y="698" type="line"/>
      <point x="253" y="698" type="line"/>
      <point x="253" y="741" type="line"/>
      <point x="89" y="741" type="line"/>
    </contour>
  </outline>
</glyph>
<glyph name="backslash" format="1">
  <advance width="378"/>
  <unicode hex="005C"/>
  <outline>
    <contour>
      <point x="101" y="688" type="line"/>
      <point x="321" y="0" type="line"/>
      <point x="375" y="0" type="line"/>
      <point x="155" y="688" type="line"/>
    </contour>
  </outline>
</glyph>
<glyph name="bracketright" format="1">
  <advance width="278"/>
  <unicode hex="005D"/>
  <outline>
    <contour>
      <point x="187" y="-204" type="line"/>
      <point x="23" y="-204" type="line"/>
      <point x="23" y="-161" type="line"/>
      <point x="137" y="-161" type="line"/>
      <point x="137" y="698" type="line"/>
      <point x="23" y="698" type="line"/>
      <point x="23" y="741" type="line"/>
      <point x="187" y="741" type="line"/>
    </contour>
  </outline>
</glyph>
<glyph name="asciicircum" format="1">
  <advance width="448"/>
  <unicode hex="005E"/>
  <outline>
    <contour>
      <point x="205" y="657" type="line"/>
      <point x="44" y="374" type="line"/>
      <point x="96" y="374" type="line"/>
      <point x="222" y="603" type="line"/>
      <point x="353" y="374" type="line"/>
      <point x="405" y="374" type="line"/>
      <point x="241" y="657" type="line"/>
    </contour>
  </outline>
</glyph>
<glyph name="underscore" format="1">
  <advance width="543"/>
  <unicode hex="005F"/>
  <outline>
    <contour>
      <point x="56" y="-75" type="line"/>
      <point x="488" y="-75" type="line"/>
      <point x="488" y="-118" type="line"/>
      <point x="56" y="-118" type="line"/>
    </contour>
  </outline>
</glyph>
<glyph name="grave" format="1">
  <advance width="440"/>
  <unicode hex="0060"/>
  <outline>
    <contour>
      <point x="346" y="550" type="line"/>
      <point x="194" y="678" type="line"/>
      <point x="161" y="631" type="line"/>
      <point x="328" y="523" type="line"/>
    </contour>
  </outline>
</glyph>
<glyph name="f" format="1">
  <advance width="313"/>
  <unicode hex="0066"/>
  <outline>
    <contour>
      <point x="257" y="698" type="curve" smooth="yes"/>
      <point x="180" y="698"/>
      <point x="107" y="637"/>
      <point x="107" y="530" type="curve" smooth="yes"/>
      <point x="107" y="444" type="line"/>
      <point x="41" y="444" type="line"/>
      <point x="41" y="397" type="line"/>
      <point x="107" y="397" type="line"/>
      <point x="107" y="46" type="line"/>
      <point x="25" y="46" type="line"/>
      <point x="25" y="0" type="line"/>
      <point x="270" y="0" type="line"/>
      <point x="270" y="46" type="line"/>
      <point x="162" y="46" type="line"/>
      <point x="162" y="397" type="line"/>
      <point x="279" y="397" type="line"/>
      <point x="279" y="444" type="line"/>
      <point x="162" y="444" type="line"/>
      <point x="162" y="532" type="line" smooth="yes"/>
      <point x="162" y="609"/>
      <point x="194" y="650"/>
      <point x="249" y="650" type="curve" smooth="yes"/>
      <point x="271" y="650"/>
      <point x="289" y="648"/>
      <point x="304" y="642" type="curve"/>
      <point x="322" y="564" type="line"/>
      <point x="368" y="570" type="line"/>
      <point x="352" y="669" type="line"/>
      <point x="324" y="693"/>
      <point x="298" y="698"/>
    </contour>
  </outline>
</glyph>
<glyph name="j" format="1">
  <advance width="248"/>
  <unicode hex="006A"/>
  <outline>
    <contour>
      <point x="168" y="-21" type="curve" smooth="yes"/>
      <point x="168" y="444" type="line"/>
      <point x="6" y="444" type="line"/>
      <point x="6" y="397" type="line"/>
      <point x="113" y="397" type="line"/>
      <point x="113" y="-21" type="line" smooth="yes"/>
      <point x="113" y="-165"/>
      <point x="39" y="-179"/>
      <point x="-16" y="-179" type="curve"/>
      <point x="-14" y="-224" type="line"/>
      <point x="79" y="-231"/>
      <point x="168" y="-191"/>
    </contour>
    <contour>
      <point x="106" y="568" type="line"/>
      <point x="168" y="568" type="line"/>
      <point x="168" y="647" type="line"/>
      <point x="106" y="647" type="line"/>
    </contour>
  </outline>
</glyph>
<glyph name="l" format="1">
  <advance width="261"/>
  <unicode hex="006C"/>
  <outline>
    <contour>
      <point x="240" y="0" type="line"/>
      <point x="240" y="46" type="line"/>
      <point x="158" y="46" type="line"/>
      <point x="158" y="688" type="line"/>
      <point x="20" y="688" type="line"/>
      <point x="20" y="642" type="line"/>
      <point x="103" y="642" type="line"/>
      <point x="103" y="46" type="line"/>
      <point x="21" y="46" type="line"/>
      <point x="21" y="0" type="line"/>
    </contour>
    <contour>
      <point x="286" y="566" type="move" name="top"/>
    </contour>
  </outline>
</glyph>
<glyph name="m" format="1">
  <advance width="859"/>
  <unicode hex="006D"/>
  <outline>
    <contour>
      <point x="851" y="0" type="line"/>
      <point x="851" y="46" type="line"/>
      <point x="769" y="46" type="line"/>
      <point x="769" y="280" type="line" smooth="yes"/>
      <point x="769" y="401"/>
      <point x="707" y="453"/>
      <point x="621" y="453" type="curve" smooth="yes"/>
      <point x="543" y="453"/>
      <point x="489" y="405"/>
      <point x="461" y="343" type="curve"/>
      <point x="443" y="419"/>
      <point x="389" y="453"/>
      <point x="320" y="453" type="curve" smooth="yes"/>
      <point x="246" y="453"/>
      <point x="197" y="412"/>
      <point x="168" y="357" type="curve"/>
      <point x="168" y="444" type="line"/>
      <point x="29" y="444" type="line"/>
      <point x="29" y="397" type="line"/>
      <point x="113" y="397" type="line"/>
      <point x="113" y="46" type="line"/>
      <point x="30" y="46" type="line"/>
      <point x="30" y="0" type="line"/>
      <point x="248" y="0" type="line"/>
      <point x="248" y="46" type="line"/>
      <point x="168" y="46" type="line"/>
      <point x="168" y="265" type="line"/>
      <point x="170" y="320"/>
      <point x="219" y="404"/>
      <point x="307" y="404" type="curve" smooth="yes"/>
      <point x="367" y="404"/>
      <point x="413" y="369"/>
      <point x="413" y="267" type="curve" smooth="yes"/>
      <point x="413" y="46" type="line"/>
      <point x="331" y="46" type="line"/>
      <point x="331" y="0" type="line"/>
      <point x="550" y="0" type="line"/>
      <point x="550" y="46" type="line"/>
      <point x="468" y="46" type="line"/>
      <point x="468" y="263" type="line"/>
      <point x="470" y="317"/>
      <point x="519" y="404"/>
      <point x="607" y="404" type="curve" smooth="yes"/>
      <point x="668" y="404"/>
      <point x="714" y="368"/>
      <point x="714" y="267" type="curve" smooth="yes"/>
      <point x="714" y="46" type="line"/>
      <point x="632" y="46" type="line"/>
      <point x="632" y="0" type="line"/>
    </contour>
    <contour>
      <point x="289" y="566" type="move" name="top"/>
    </contour>
  </outline>
</glyph>
<glyph name="x" format="1">
  <advance width="508"/>
  <unicode hex="0078"/>
  <outline>
    <contour>
      <point x="491" y="0" type="line"/>
      <point x="491" y="46" type="line"/>
      <point x="432" y="46" type="line"/>
      <point x="287" y="223" type="line"/>
      <point x="431" y="397" type="line"/>
      <point x="485" y="397" type="line"/>
      <point x="485" y="444" type="line"/>
      <point x="312" y="444" type="line"/>
      <point x="312" y="397" type="line"/>
      <point x="371" y="397" type="line"/>
      <point x="257" y="255" type="line"/>
      <point x="147" y="397" type="line"/>
      <point x="215" y="397" type="line"/>
      <point x="215" y="444" type="line"/>
      <point x="19" y="444" type="line"/>
      <point x="19" y="397" type="line"/>
      <point x="82" y="397" type="line"/>
      <point x="225" y="222" type="line"/>
      <point x="80" y="46" type="line"/>
      <point x="20" y="46" type="line"/>
      <point x="20" y="0" type="line"/>
      <point x="198" y="0" type="line"/>
      <point x="198" y="46" type="line"/>
      <point x="139" y="46" type="line"/>
      <point x="254" y="189" type="line"/>
      <point x="368" y="46" type="line"/>
      <point x="304" y="46" type="line"/>
      <point x="304" y="0" type="line"/>
    </contour>
  </outline>
</glyph>
<glyph name="braceleft" format="1">
  <advance width="275"/>
  <unicode hex="007B"/>
  <outline>
    <contour>
      <point x="108" y="267" type="curve"/>
      <point x="175" y="278"/>
      <point x="199" y="312"/>
      <point x="199" y="348" type="curve" smooth="yes"/>
      <point x="199" y="414"/>
      <point x="113" y="545"/>
      <point x="113" y="634" type="curve" smooth="yes"/>
      <point x="113" y="678"/>
      <point x="134" y="698"/>
      <point x="176" y="698" type="curve" smooth="yes"/>
      <point x="240" y="698" type="line"/>
      <point x="240" y="741" type="line"/>
      <point x="176" y="741" type="line" smooth="yes"/>
      <point x="108" y="741"/>
      <point x="66" y="703"/>
      <point x="66" y="633" type="curve" smooth="yes"/>
      <point x="66" y="536"/>
      <point x="151" y="408"/>
      <point x="151" y="347" type="curve" smooth="yes"/>
      <point x="151" y="294"/>
      <point x="83" y="284"/>
      <point x="53" y="284" type="curve" smooth="yes"/>
      <point x="34" y="284" type="line"/>
      <point x="34" y="249" type="line"/>
      <point x="53" y="249" type="line" smooth="yes"/>
      <point x="84" y="249"/>
      <point x="151" y="239"/>
      <point x="151" y="186" type="curve" smooth="yes"/>
      <point x="151" y="125"/>
      <point x="66" y="2"/>
      <point x="66" y="-95" type="curve" smooth="yes"/>
      <point x="66" y="-163"/>
      <point x="107" y="-203"/>
      <point x="176" y="-203" type="curve" smooth="yes"/>
      <point x="240" y="-203" type="line"/>
      <point x="240" y="-160" type="line"/>
      <point x="176" y="-160" type="line" smooth="yes"/>
      <point x="134" y="-160"/>
      <point x="113" y="-140"/>
      <point x="113" y="-96" type="curve" smooth="yes"/>
      <point x="113" y="-8"/>
      <point x="199" y="119"/>
      <point x="199" y="186" type="curve" smooth="yes"/>
      <point x="199" y="222"/>
      <point x="174" y="255"/>
    </contour>
  </outline>
</glyph>
<glyph name="bar" format="1">
  <advance width="230"/>
  <unicode hex="007C"/>
  <outline>
    <contour>
      <point x="140" y="730" type="line"/>
      <point x="140" y="-80" type="line"/>
      <point x="90" y="-80" type="line"/>
      <point x="90" y="730" type="line"/>
    </contour>
  </outline>
</glyph>
<glyph name="asciitilde" format="1">
  <advance width="622"/>
  <unicode hex="007E"/>
  <outline>
    <contour>
      <point x="427" y="206" type="curve" smooth="yes"/>
      <point x="483" y="206"/>
      <point x="528" y="235"/>
      <point x="572" y="312" type="curve"/>
      <point x="535" y="336" type="line"/>
      <point x="499" y="275"/>
      <point x="470" y="257"/>
      <point x="428" y="257" type="curve" smooth="yes"/>
      <point x="341" y="257"/>
      <point x="286" y="330"/>
      <point x="196" y="330" type="curve" smooth="yes"/>
      <point x="144" y="330"/>
      <point x="93" y="304"/>
      <point x="55" y="236" type="curve"/>
      <point x="89" y="214" type="line"/>
      <point x="124" y="268"/>
      <point x="157" y="279"/>
      <point x="192" y="279" type="curve" smooth="yes"/>
      <point x="281" y="279"/>
      <point x="332" y="206"/>
    </contour>
  </outline>
</glyph>
<glyph name="exclamdown" format="1">
  <advance width="216"/>
  <unicode hex="00A1"/>
  <outline>
    <contour>
      <point x="140" y="-214" type="line"/>
      <point x="130" y="255" type="line"/>
      <point x="87" y="255" type="line"/>
      <point x="76" y="-214" type="line"/>
    </contour>
    <contour>
      <point x="69" y="360" type="line"/>
      <point x="142" y="360" type="line"/>
      <point x="142" y="444" type="line"/>
      <point x="69" y="444" type="line"/>
    </contour>
  </outline>
</glyph>
<glyph name="dieresis" format="1">
  <advance width="391"/>
  <unicode hex="00A8"/>
  <outline>
    <contour>
      <point x="63" y="562" type="line"/>
      <point x="131" y="562" type="line"/>
      <point x="131" y="633" type="line"/>
      <point x="63" y="633" type="line"/>
    </contour>
    <contour>
      <point x="231" y="562" type="line"/>
      <point x="299" y="562" type="line"/>
      <point x="299" y="633" type="line"/>
      <point x="231" y="633" type="line"/>
    </contour>
  </outline>
</glyph>
<glyph name="ordfeminine" format="1">
  <advance width="377"/>
  <unicode hex="00AA"/>
  <outline>
    <contour>
      <point x="178" y="667" type="curve" smooth="yes"/>
      <point x="228" y="667"/>
      <point x="242" y="631"/>
      <point x="242" y="593" type="curve" smooth="yes"/>
      <point x="242" y="564" type="line"/>
      <point x="226" y="565"/>
      <point x="208" y="567"/>
      <point x="185" y="567" type="curve" smooth="yes"/>
      <point x="124" y="567"/>
      <point x="49" y="553"/>
      <point x="49" y="479" type="curve" smooth="yes"/>
      <point x="49" y="418"/>
      <point x="100" y="398"/>
      <point x="140" y="398" type="curve" smooth="yes"/>
      <point x="188" y="398"/>
      <point x="223" y="427"/>
      <point x="242" y="459" type="curve"/>
      <point x="242" y="421"/>
      <point x="261" y="398"/>
      <point x="296" y="398" type="curve" smooth="yes"/>
      <point x="310" y="398"/>
      <point x="324" y="402"/>
      <point x="334" y="408" type="curve"/>
      <point x="334" y="435" type="line"/>
      <point x="328" y="432"/>
      <point x="320" y="431"/>
      <point x="314" y="431" type="curve" smooth="yes"/>
      <point x="297" y="431"/>
      <point x="289" y="441"/>
      <point x="289" y="463" type="curve" smooth="yes"/>
      <point x="289" y="603" type="line" smooth="yes"/>
      <point x="289" y="665"/>
      <point x="256" y="700"/>
      <point x="184" y="700" type="curve" smooth="yes"/>
      <point x="146" y="700"/>
      <point x="106" y="690"/>
      <point x="79" y="667" type="curve"/>
      <point x="69" y="600" type="line"/>
      <point x="104" y="596" type="line"/>
      <point x="116" y="650" type="line"/>
      <point x="135" y="660"/>
      <point x="156" y="667"/>
    </contour>
    <contour>
      <point x="242" y="514" type="line"/>
      <point x="240" y="465"/>
      <point x="198" y="432"/>
      <point x="156" y="432" type="curve" smooth="yes"/>
      <point x="129" y="432"/>
      <point x="98" y="446"/>
      <point x="98" y="485" type="curve" smooth="yes"/>
      <point x="98" y="532"/>
      <point x="143" y="541"/>
      <point x="186" y="541" type="curve" smooth="yes"/>
      <point x="206" y="541"/>
      <point x="226" y="539"/>
      <point x="242" y="538" type="curve"/>
    </contour>
  </outline>
</glyph>
<glyph name="guillemotleft" format="1">
  <advance width="446"/>
  <unicode hex="00AB"/>
  <outline>
    <contour>
      <point x="231" y="25" type="line"/>
      <point x="99" y="271" type="line"/>
      <point x="231" y="511" type="line"/>
      <point x="183" y="511" type="line"/>
      <point x="45" y="271" type="line"/>
      <point x="183" y="25" type="line"/>
    </contour>
    <contour>
      <point x="394" y="25" type="line"/>
      <point x="262" y="271" type="line"/>
      <point x="394" y="511" type="line"/>
      <point x="346" y="511" type="line"/>
      <point x="208" y="271" type="line"/>
      <point x="346" y="25" type="line"/>
    </contour>
  </outline>
</glyph>
<glyph name="threesuperior" format="1">
  <advance width="340"/>
  <unicode hex="00B3"/>
  <outline>
    <contour>
      <point x="88" y="677" type="line"/>
      <point x="100" y="729" type="line"/>
      <point x="120" y="741"/>
      <point x="139" y="747"/>
      <point x="164" y="747" type="curve"/>
      <point x="208" y="747"/>
      <point x="234" y="725"/>
      <point x="234" y="690" type="curve" smooth="yes"/>
      <point x="234" y="652"/>
      <point x="205" y="624"/>
      <point x="138" y="620" type="curve"/>
      <point x="138" y="588" type="line"/>
      <point x="225" y="586"/>
      <point x="249" y="558"/>
      <point x="249" y="520" type="curve" smooth="yes"/>
      <point x="249" y="476"/>
      <point x="217" y="445"/>
      <point x="163" y="445" type="curve" smooth="yes"/>
      <point x="106" y="445"/>
      <point x="80" y="480"/>
      <point x="73" y="513" type="curve"/>
      <point x="39" y="505" type="line"/>
      <point x="46" y="448"/>
      <point x="92" y="408"/>
      <point x="160" y="408" type="curve" smooth="yes"/>
      <point x="234" y="408"/>
      <point x="300" y="443"/>
      <point x="300" y="516" type="curve" smooth="yes"/>
      <point x="300" y="557"/>
      <point x="278" y="597"/>
      <point x="206" y="607" type="curve"/>
      <point x="206" y="609" type="line"/>
      <point x="263" y="624"/>
      <point x="283" y="659"/>
      <point x="283" y="696" type="curve" smooth="yes"/>
      <point x="283" y="751"/>
      <point x="240" y="784"/>
      <point x="177" y="784" type="curve" smooth="yes"/>
      <point x="139" y="784"/>
      <point x="88" y="772"/>
      <point x="60" y="744" type="curve"/>
      <point x="51" y="682" type="line"/>
    </contour>
  </outline>
</glyph>
<glyph name="acute" format="1">
  <advance width="440"/>
  <unicode hex="00B4"/>
  <outline>
    <contour>
      <point x="354" y="631" type="line"/>
      <point x="321" y="678" type="line"/>
      <point x="169" y="550" type="line"/>
      <point x="187" y="523" type="line"/>
    </contour>
  </outline>
</glyph>
<glyph name="cedilla" format="1">
  <advance width="256"/>
  <unicode hex="00B8"/>
  <outline>
    <contour>
      <point x="248" y="-126" type="curve" smooth="yes"/>
      <point x="248" y="-81"/>
      <point x="219" y="-48"/>
      <point x="159" y="-48" type="curve" smooth="yes"/>
      <point x="151" y="-48" type="line"/>
      <point x="151" y="6" type="line"/>
      <point x="108" y="6" type="line"/>
      <point x="108" y="-79" type="line"/>
      <point x="136" y="-79" type="line" smooth="yes"/>
      <point x="168" y="-79"/>
      <point x="199" y="-84"/>
      <point x="199" y="-123" type="curve" smooth="yes"/>
      <point x="199" y="-157"/>
      <point x="175" y="-169"/>
      <point x="144" y="-169" type="curve" smooth="yes"/>
      <point x="114" y="-169"/>
      <point x="88" y="-159"/>
      <point x="71" y="-146" type="curve"/>
      <point x="55" y="-179" type="line"/>
      <point x="79" y="-200"/>
      <point x="111" y="-209"/>
      <point x="146" y="-209" type="curve" smooth="yes"/>
      <point x="202" y="-209"/>
      <point x="248" y="-184"/>
    </contour>
  </outline>
</glyph>
<glyph name="onesuperior" format="1">
  <advance width="254"/>
  <unicode hex="00B9"/>
  <outline>
    <contour>
      <point x="36" y="452" type="line"/>
      <point x="112" y="452" type="line"/>
      <point x="112" y="742" type="line"/>
      <point x="36" y="742" type="line"/>
      <point x="36" y="779" type="line"/>
      <point x="159" y="779" type="line"/>
      <point x="159" y="452" type="line"/>
      <point x="232" y="452" type="line"/>
      <point x="232" y="415" type="line"/>
      <point x="36" y="415" type="line"/>
    </contour>
  </outline>
</glyph>
<glyph name="ordmasculine" format="1">
  <advance width="380"/>
  <unicode hex="00BA"/>
  <outline>
    <contour>
      <point x="43" y="547" type="curve" smooth="yes"/>
      <point x="43" y="632"/>
      <point x="94" y="700"/>
      <point x="191" y="700" type="curve" smooth="yes"/>
      <point x="288" y="700"/>
      <point x="337" y="632"/>
      <point x="337" y="550" type="curve" smooth="yes"/>
      <point x="337" y="462"/>
      <point x="279" y="398"/>
      <point x="188" y="398" type="curve" smooth="yes"/>
      <point x="97" y="398"/>
      <point x="43" y="461"/>
    </contour>
    <contour>
      <point x="93" y="550" type="curve" smooth="yes"/>
      <point x="93" y="487"/>
      <point x="125" y="436"/>
      <point x="189" y="436" type="curve" smooth="yes"/>
      <point x="252" y="436"/>
      <point x="287" y="486"/>
      <point x="287" y="550" type="curve" smooth="yes"/>
      <point x="287" y="616"/>
      <point x="252" y="661"/>
      <point x="190" y="661" type="curve" smooth="yes"/>
      <point x="127" y="661"/>
      <point x="93" y="614"/>
    </contour>
    <contour>
      <point x="168" y="338" type="move" name="top"/>
    </contour>
  </outline>
</glyph>
<glyph name="guillemotright" format="1">
  <advance width="446"/>
  <unicode hex="00BB"/>
  <outline>
    <contour>
      <point x="263" y="25" type="line"/>
      <point x="401" y="271" type="line"/>
      <point x="263" y="511" type="line"/>
      <point x="215" y="511" type="line"/>
      <point x="347" y="271" type="line"/>
      <point x="215" y="25" type="line"/>
    </contour>
    <contour>
      <point x="100" y="25" type="line"/>
      <point x="238" y="271" type="line"/>
      <point x="100" y="511" type="line"/>
      <point x="52" y="511" type="line"/>
      <point x="184" y="271" type="line"/>
      <point x="52" y="25" type="line"/>
    </contour>
  </outline>
</glyph>
<glyph name="onequarter" format="1">
  <advance width="698"/>
  <unicode hex="00BC"/>
  <outline>
    <contour>
      <point x="556" y="-1" type="line"/>
      <point x="602" y="-1" type="line"/>
      <point x="602" y="95" type="line"/>
      <point x="661" y="95" type="line"/>
      <point x="665" y="130" type="line"/>
      <point x="602" y="130" type="line"/>
      <point x="602" y="364" type="line"/>
      <point x="504" y="364" type="line"/>
      <point x="367" y="131" type="line"/>
      <point x="372" y="95" type="line"/>
      <point x="556" y="95" type="line"/>
    </contour>
    <contour>
      <point x="560" y="650" type="line"/>
      <point x="371" y="325" type="line"/>
      <point x="188" y="0" type="line"/>
      <point x="144" y="0" type="line"/>
      <point x="341" y="337" type="line"/>
      <point x="516" y="650" type="line"/>
    </contour>
    <contour>
      <point x="45" y="323" type="line"/>
      <point x="121" y="323" type="line"/>
      <point x="121" y="613" type="line"/>
      <point x="45" y="613" type="line"/>
      <point x="45" y="650" type="line"/>
      <point x="168" y="650" type="line"/>
      <point x="168" y="323" type="line"/>
      <point x="241" y="323" type="line"/>
      <point x="241" y="286" type="line"/>
      <point x="45" y="286" type="line"/>
    </contour>
    <contour>
      <point x="526" y="327" type="line"/>
      <point x="556" y="327" type="line"/>
      <point x="556" y="130" type="line"/>
      <point x="411" y="130" type="line"/>
    </contour>
  </outline>
</glyph>
<glyph name="AE" format="1">
  <advance width="915"/>
  <unicode hex="00C6"/>
  <outline>
    <contour>
      <point x="848" y="0" type="line"/>
      <point x="867" y="182" type="line"/>
      <point x="817" y="188" type="line"/>
      <point x="797" y="51" type="line"/>
      <point x="512" y="51" type="line"/>
      <point x="512" y="305" type="line"/>
      <point x="826" y="305" type="line"/>
      <point x="826" y="356" type="line"/>
      <point x="512" y="356" type="line"/>
      <point x="512" y="599" type="line"/>
      <point x="787" y="599" type="line"/>
      <point x="807" y="462" type="line"/>
      <point x="857" y="469" type="line"/>
      <point x="839" y="650" type="line"/>
      <point x="226" y="650" type="line"/>
      <point x="226" y="599" type="line"/>
      <point x="327" y="599" type="line"/>
      <point x="56" y="51" type="line"/>
      <point x="-10" y="51" type="line"/>
      <point x="-10" y="0" type="line"/>
      <point x="212" y="0" type="line"/>
      <point x="212" y="51" type="line"/>
      <point x="113" y="51" type="line"/>
      <point x="183" y="192" type="line"/>
      <point x="454" y="192" type="line"/>
      <point x="454" y="51" type="line"/>
      <point x="370" y="51" type="line"/>
      <point x="370" y="0" type="line"/>
    </contour>
    <contour>
      <point x="454" y="238" type="line"/>
      <point x="205" y="238" type="line"/>
      <point x="383" y="599" type="line"/>
      <point x="454" y="599" type="line"/>
    </contour>
  </outline>
</glyph>
<glyph name="Ccedilla" format="1">
  <advance width="646"/>
  <unicode hex="00C7"/>
  <outline>
    <contour>
      <point x="461" y="-126" type="curve" smooth="yes"/>
      <point x="461" y="-81"/>
      <point x="432" y="-48"/>
      <point x="372" y="-48" type="curve" smooth="yes"/>
      <point x="364" y="-48" type="line"/>
      <point x="364" y="-10" type="line"/>
      <point x="452" y="-9"/>
      <point x="516" y="6"/>
      <point x="569" y="45" type="curve"/>
      <point x="587" y="162" type="line"/>
      <point x="537" y="168" type="line"/>
      <point x="517" y="72" type="line"/>
      <point x="471" y="49"/>
      <point x="429" y="42"/>
      <point x="369" y="42" type="curve" smooth="yes"/>
      <point x="203" y="42"/>
      <point x="103" y="160"/>
      <point x="103" y="324" type="curve" smooth="yes"/>
      <point x="103" y="486"/>
      <point x="205" y="608"/>
      <point x="355" y="608" type="curve" smooth="yes"/>
      <point x="436" y="608"/>
      <point x="479" y="588"/>
      <point x="523" y="559" type="curve"/>
      <point x="543" y="461" type="line"/>
      <point x="593" y="467" type="line"/>
      <point x="575" y="584" type="line"/>
      <point x="519" y="631"/>
      <point x="453" y="660"/>
      <point x="346" y="660" type="curve" smooth="yes"/>
      <point x="172" y="660"/>
      <point x="43" y="510"/>
      <point x="43" y="323" type="curve" smooth="yes"/>
      <point x="43" y="148"/>
      <point x="152" y="10"/>
      <point x="321" y="-8" type="curve"/>
      <point x="321" y="-79" type="line"/>
      <point x="349" y="-79" type="line" smooth="yes"/>
      <point x="381" y="-79"/>
      <point x="412" y="-84"/>
      <point x="412" y="-123" type="curve" smooth="yes"/>
      <point x="412" y="-157"/>
      <point x="388" y="-169"/>
      <point x="357" y="-169" type="curve" smooth="yes"/>
      <point x="327" y="-169"/>
      <point x="301" y="-159"/>
      <point x="284" y="-146" type="curve"/>
      <point x="268" y="-179" type="line"/>
      <point x="292" y="-200"/>
      <point x="324" y="-209"/>
      <point x="359" y="-209" type="curve" smooth="yes"/>
      <point x="415" y="-209"/>
      <point x="461" y="-184"/>
    </contour>
  </outline>
</glyph>
<glyph name="Ecircumflex" format="1">
  <advance width="588"/>
  <unicode hex="00CA"/>
  <outline>
    <contour>
      <point x="522" y="0" type="line"/>
      <point x="541" y="183" type="line"/>
      <point x="491" y="188" type="line"/>
      <point x="471" y="51" type="line"/>
      <point x="185" y="51" type="line"/>
      <point x="185" y="305" type="line"/>
      <point x="500" y="305" type="line"/>
      <point x="500" y="356" type="line"/>
      <point x="185" y="356" type="line"/>
      <point x="185" y="599" type="line"/>
      <point x="461" y="599" type="line"/>
      <point x="481" y="462" type="line"/>
      <point x="532" y="468" type="line"/>
      <point x="512" y="650" type="line"/>
      <point x="43" y="650" type="line"/>
      <point x="43" y="599" type="line"/>
      <point x="128" y="599" type="line"/>
      <point x="128" y="51" type="line"/>
      <point x="43" y="51" type="line"/>
      <point x="43" y="0" type="line"/>
    </contour>
    <contour>
      <point x="462" y="737" type="line"/>
      <point x="339" y="822" type="line"/>
      <point x="324" y="822" type="line"/>
      <point x="199" y="733" type="line"/>
      <point x="216" y="705" type="line"/>
      <point x="329" y="769" type="line"/>
      <point x="445" y="706" type="line"/>
    </contour>
  </outline>
</glyph>
<glyph name="Edieresis" format="1">
  <advance width="588"/>
  <unicode hex="00CB"/>
  <outline>
    <contour>
      <point x="205" y="722" type="line"/>
      <point x="273" y="722" type="line"/>
      <point x="273" y="793" type="line"/>
      <point x="205" y="793" type="line"/>
    </contour>
    <contour>
      <point x="373" y="722" type="line"/>
      <point x="441" y="722" type="line"/>
      <point x="441" y="793" type="line"/>
      <point x="373" y="793" type="line"/>
    </contour>
    <contour>
      <point x="522" y="0" type="line"/>
      <point x="541" y="183" type="line"/>
      <point x="491" y="188" type="line"/>
      <point x="471" y="51" type="line"/>
      <point x="185" y="51" type="line"/>
      <point x="185" y="305" type="line"/>
      <point x="500" y="305" type="line"/>
      <point x="500" y="356" type="line"/>
      <point x="185" y="356" type="line"/>
      <point x="185" y="599" type="line"/>
      <point x="461" y="599" type="line"/>
      <point x="481" y="462" type="line"/>
      <point x="532" y="468" type="line"/>
      <point x="512" y="650" type="line"/>
      <point x="43" y="650" type="line"/>
      <point x="43" y="599" type="line"/>
      <point x="128" y="599" type="line"/>
      <point x="128" y="51" type="line"/>
      <point x="43" y="51" type="line"/>
      <point x="43" y="0" type="line"/>
    </contour>
  </outline>
</glyph>
<glyph name="Ntilde" format="1">
  <advance width="732"/>
  <unicode hex="00D1"/>
  <outline>
    <contour>
      <point x="501" y="792" type="curve"/>
      <point x="470" y="800" type="line"/>
      <point x="458" y="762"/>
      <point x="441" y="757"/>
      <point x="423" y="757" type="curve" smooth="yes"/>
      <point x="372" y="757"/>
      <point x="347" y="793"/>
      <point x="303" y="793" type="curve" smooth="yes"/>
      <point x="256" y="793"/>
      <point x="229" y="752"/>
      <point x="222" y="719" type="curve"/>
      <point x="251" y="707" type="line"/>
      <point x="262" y="740"/>
      <point x="284" y="748"/>
      <point x="303" y="748" type="curve" smooth="yes"/>
      <point x="340" y="748"/>
      <point x="374" y="712"/>
      <point x="425" y="712" type="curve" smooth="yes"/>
      <point x="467" y="712"/>
      <point x="489" y="739"/>
    </contour>
    <contour>
      <point x="695" y="599" type="line"/>
      <point x="695" y="650" type="line"/>
      <point x="457" y="650" type="line"/>
      <point x="457" y="599" type="line"/>
      <point x="556" y="599" type="line"/>
      <point x="556" y="118" type="line"/>
      <point x="552" y="118" type="line"/>
      <point x="171" y="650" type="line"/>
      <point x="41" y="650" type="line"/>
      <point x="41" y="599" type="line"/>
      <point x="128" y="599" type="line"/>
      <point x="128" y="51" type="line"/>
      <point x="51" y="51" type="line"/>
      <point x="51" y="0" type="line"/>
      <point x="290" y="0" type="line"/>
      <point x="290" y="51" type="line"/>
      <point x="183" y="51" type="line"/>
      <point x="183" y="538" type="line"/>
      <point x="187" y="538" type="line"/>
      <point x="572" y="0" type="line"/>
      <point x="611" y="0" type="line"/>
      <point x="611" y="599" type="line"/>
    </contour>
  </outline>
</glyph>
<glyph name="multiply" format="1">
  <advance width="392"/>
  <unicode hex="00D7"/>
  <outline>
    <contour>
      <point x="88" y="134" type="line"/>
      <point x="196" y="243" type="line"/>
      <point x="303" y="136" type="line"/>
      <point x="334" y="168" type="line"/>
      <point x="227" y="274" type="line"/>
      <point x="333" y="380" type="line"/>
      <point x="302" y="411" type="line"/>
      <point x="196" y="305" type="line"/>
      <point x="89" y="413" type="line"/>
      <point x="58" y="382" type="line"/>
      <point x="165" y="274" type="line"/>
      <point x="57" y="165" type="line"/>
    </contour>
  </outline>
</glyph>
<glyph name="atilde" format="1">
  <advance width="477"/>
  <unicode hex="00E3"/>
  <outline>
    <contour>
      <point x="85" y="409" type="curve"/>
      <point x="69" y="310" type="line"/>
      <point x="115" y="304" type="line"/>
      <point x="133" y="384" type="line"/>
      <point x="161" y="398"/>
      <point x="192" y="404"/>
      <point x="223" y="404" type="curve" smooth="yes"/>
      <point x="305" y="404"/>
      <point x="331" y="362"/>
      <point x="331" y="294" type="curve" smooth="yes"/>
      <point x="331" y="247" type="line"/>
      <point x="307" y="249"/>
      <point x="279" y="251"/>
      <point x="251" y="251" type="curve" smooth="yes"/>
      <point x="152" y="251"/>
      <point x="43" y="226"/>
      <point x="43" y="114" type="curve" smooth="yes"/>
      <point x="43" y="19"/>
      <point x="120" y="-10"/>
      <point x="178" y="-10" type="curve" smooth="yes"/>
      <point x="249" y="-10"/>
      <point x="303" y="34"/>
      <point x="331" y="82" type="curve"/>
      <point x="331" y="80" type="line" smooth="yes"/>
      <point x="331" y="25"/>
      <point x="358" y="-10"/>
      <point x="407" y="-10" type="curve" smooth="yes"/>
      <point x="426" y="-10"/>
      <point x="445" y="-5"/>
      <point x="459" y="4" type="curve"/>
      <point x="458" y="44" type="line"/>
      <point x="449" y="39"/>
      <point x="435" y="37"/>
      <point x="425" y="37" type="curve" smooth="yes"/>
      <point x="398" y="37"/>
      <point x="386" y="53"/>
      <point x="386" y="88" type="curve" smooth="yes"/>
      <point x="386" y="304" type="line" smooth="yes"/>
      <point x="386" y="404"/>
      <point x="337" y="453"/>
      <point x="232" y="453" type="curve" smooth="yes"/>
      <point x="178" y="453"/>
      <point x="122" y="440"/>
    </contour>
    <contour>
      <point x="331" y="163" type="line"/>
      <point x="327" y="89"/>
      <point x="258" y="39"/>
      <point x="192" y="39" type="curve" smooth="yes"/>
      <point x="153" y="39"/>
      <point x="101" y="56"/>
      <point x="101" y="120" type="curve" smooth="yes"/>
      <point x="101" y="194"/>
      <point x="172" y="209"/>
      <point x="244" y="209" type="curve" smooth="yes"/>
      <point x="276" y="209"/>
      <point x="305" y="206"/>
      <point x="331" y="204" type="curve"/>
    </contour>
    <contour>
      <point x="360" y="646" type="curve"/>
      <point x="329" y="654" type="line"/>
      <point x="318" y="616"/>
      <point x="300" y="611"/>
      <point x="282" y="611" type="curve" smooth="yes"/>
      <point x="231" y="611"/>
      <point x="206" y="648"/>
      <point x="162" y="648" type="curve" smooth="yes"/>
      <point x="115" y="648"/>
      <point x="88" y="603"/>
      <point x="81" y="569" type="curve"/>
      <point x="110" y="558" type="line"/>
      <point x="121" y="591"/>
      <point x="144" y="601"/>
      <point x="163" y="601" type="curve" smooth="yes"/>
      <point x="199" y="601"/>
      <point x="233" y="563"/>
      <point x="285" y="563" type="curve" smooth="yes"/>
      <point x="326" y="563"/>
      <point x="349" y="593"/>
    </contour>
  </outline>
</glyph>
<glyph name="ccedilla" format="1">
  <advance width="459"/>
  <unicode hex="00E7"/>
  <outline>
    <contour>
      <point x="354" y="-127" type="curve" smooth="yes"/>
      <point x="354" y="-82"/>
      <point x="325" y="-49"/>
      <point x="265" y="-49" type="curve" smooth="yes"/>
      <point x="257" y="-49" type="line"/>
      <point x="257" y="-9" type="line"/>
      <point x="360" y="-2"/>
      <point x="408" y="72"/>
      <point x="421" y="145" type="curve"/>
      <point x="374" y="156" type="line"/>
      <point x="359" y="81"/>
      <point x="319" y="39"/>
      <point x="245" y="39" type="curve" smooth="yes"/>
      <point x="152" y="39"/>
      <point x="101" y="106"/>
      <point x="101" y="219" type="curve" smooth="yes"/>
      <point x="101" y="315"/>
      <point x="137" y="404"/>
      <point x="243" y="404" type="curve" smooth="yes"/>
      <point x="285" y="404"/>
      <point x="317" y="395"/>
      <point x="345" y="375" type="curve"/>
      <point x="362" y="300" type="line"/>
      <point x="408" y="306" type="line"/>
      <point x="392" y="405" type="line"/>
      <point x="350" y="440"/>
      <point x="304" y="453"/>
      <point x="243" y="453" type="curve" smooth="yes"/>
      <point x="103" y="453"/>
      <point x="42" y="329"/>
      <point x="42" y="215" type="curve" smooth="yes"/>
      <point x="42" y="85"/>
      <point x="107" y="2"/>
      <point x="214" y="-8" type="curve"/>
      <point x="214" y="-80" type="line"/>
      <point x="242" y="-80" type="line" smooth="yes"/>
      <point x="274" y="-80"/>
      <point x="305" y="-85"/>
      <point x="305" y="-124" type="curve" smooth="yes"/>
      <point x="305" y="-158"/>
      <point x="281" y="-170"/>
      <point x="250" y="-170" type="curve" smooth="yes"/>
      <point x="220" y="-170"/>
      <point x="194" y="-160"/>
      <point x="177" y="-147" type="curve"/>
      <point x="161" y="-180" type="line"/>
      <point x="185" y="-201"/>
      <point x="217" y="-210"/>
      <point x="252" y="-210" type="curve" smooth="yes"/>
      <point x="308" y="-210"/>
      <point x="354" y="-185"/>
    </contour>
  </outline>
</glyph>
<glyph name="edieresis" format="1">
  <advance width="467"/>
  <unicode hex="00EB"/>
  <outline>
    <contour>
      <point x="126" y="562" type="line"/>
      <point x="194" y="562" type="line"/>
      <point x="194" y="633" type="line"/>
      <point x="126" y="633" type="line"/>
    </contour>
    <contour>
      <point x="294" y="562" type="line"/>
      <point x="362" y="562" type="line"/>
      <point x="362" y="633" type="line"/>
      <point x="294" y="633" type="line"/>
    </contour>
    <contour>
      <point x="427" y="124" type="curve"/>
      <point x="381" y="135" type="line"/>
      <point x="365" y="73"/>
      <point x="321" y="39"/>
      <point x="251" y="39" type="curve" smooth="yes"/>
      <point x="157" y="39"/>
      <point x="103" y="101"/>
      <point x="100" y="208" type="curve"/>
      <point x="418" y="208" type="line"/>
      <point x="421" y="225"/>
      <point x="423" y="242"/>
      <point x="423" y="258" type="curve" smooth="yes"/>
      <point x="423" y="360"/>
      <point x="362" y="453"/>
      <point x="241" y="453" type="curve" smooth="yes"/>
      <point x="119" y="453"/>
      <point x="42" y="354"/>
      <point x="42" y="216" type="curve" smooth="yes"/>
      <point x="42" y="74"/>
      <point x="123" y="-10"/>
      <point x="247" y="-10" type="curve" smooth="yes"/>
      <point x="351" y="-10"/>
      <point x="414" y="49"/>
    </contour>
    <contour>
      <point x="365" y="254" type="curve"/>
      <point x="101" y="254" type="line"/>
      <point x="110" y="334"/>
      <point x="149" y="404"/>
      <point x="238" y="404" type="curve" smooth="yes"/>
      <point x="332" y="404"/>
      <point x="372" y="325"/>
    </contour>
  </outline>
</glyph>
<glyph name="igrave" format="1">
  <advance width="275"/>
  <unicode hex="00EC"/>
  <outline>
    <contour>
      <point x="34" y="46" type="line"/>
      <point x="117" y="46" type="line"/>
      <point x="117" y="397" type="line"/>
      <point x="33" y="397" type="line"/>
      <point x="33" y="444" type="line"/>
      <point x="172" y="444" type="line"/>
      <point x="172" y="46" type="line"/>
      <point x="254" y="46" type="line"/>
      <point x="254" y="0" type="line"/>
      <point x="34" y="0" type="line"/>
    </contour>
    <contour>
      <point x="180" y="550" type="line"/>
      <point x="28" y="678" type="line"/>
      <point x="-5" y="631" type="line"/>
      <point x="162" y="523" type="line"/>
    </contour>
  </outline>
</glyph>
<glyph name="icircumflex" format="1">
  <advance width="274"/>
  <unicode hex="00EE"/>
  <outline>
    <contour>
      <point x="34" y="46" type="line"/>
      <point x="117" y="46" type="line"/>
      <point x="117" y="397" type="line"/>
      <point x="33" y="397" type="line"/>
      <point x="33" y="444" type="line"/>
      <point x="172" y="444" type="line"/>
      <point x="172" y="46" type="line"/>
      <point x="254" y="46" type="line"/>
      <point x="254" y="0" type="line"/>
      <point x="34" y="0" type="line"/>
    </contour>
    <contour>
      <point x="258" y="552" type="line"/>
      <point x="141" y="667" type="line"/>
      <point x="126" y="667" type="line"/>
      <point x="8" y="549" type="line"/>
      <point x="31" y="522" type="line"/>
      <point x="129" y="611" type="line"/>
      <point x="234" y="522" type="line"/>
    </contour>
  </outline>
</glyph>
<glyph name="idieresis" format="1">
  <advance width="275"/>
  <unicode hex="00EF"/>
  <outline>
    <contour>
      <point x="34" y="46" type="line"/>
      <point x="117" y="46" type="line"/>
      <point x="117" y="397" type="line"/>
      <point x="33" y="397" type="line"/>
      <point x="33" y="444" type="line"/>
      <point x="172" y="444" type="line"/>
      <point x="172" y="46" type="line"/>
      <point x="254" y="46" type="line"/>
      <point x="254" y="0" type="line"/>
      <point x="34" y="0" type="line"/>
    </contour>
    <contour>
      <point x="173" y="562" type="line"/>
      <point x="241" y="562" type="line"/>
      <point x="241" y="633" type="line"/>
      <point x="173" y="633" type="line"/>
    </contour>
    <contour>
      <point x="5" y="562" type="line"/>
      <point x="73" y="562" type="line"/>
      <point x="73" y="633" type="line"/>
      <point x="5" y="633" type="line"/>
    </contour>
  </outline>
</glyph>
<glyph name="eth" format="1">
  <advance width="523"/>
  <unicode hex="00F0"/>
  <outline>
    <contour>
      <point x="168" y="530" type="line"/>
      <point x="229" y="601" type="line"/>
      <point x="202" y="621"/>
      <point x="173" y="639"/>
      <point x="142" y="657" type="curve"/>
      <point x="165" y="698" type="line"/>
      <point x="198" y="679"/>
      <point x="231" y="659"/>
      <point x="260" y="637" type="curve"/>
      <point x="312" y="697" type="line"/>
      <point x="344" y="673" type="line"/>
      <point x="292" y="612" type="line"/>
      <point x="397" y="523"/>
      <point x="467" y="405"/>
      <point x="467" y="258" type="curve" smooth="yes"/>
      <point x="467" y="222" type="line" smooth="yes"/>
      <point x="467" y="89"/>
      <point x="387" y="-10"/>
      <point x="252" y="-10" type="curve" smooth="yes"/>
      <point x="118" y="-10"/>
      <point x="41" y="88"/>
      <point x="41" y="219" type="curve" smooth="yes"/>
      <point x="41" y="351"/>
      <point x="121" y="453"/>
      <point x="248" y="453" type="curve" smooth="yes"/>
      <point x="314" y="453"/>
      <point x="360" y="424"/>
      <point x="390" y="390" type="curve"/>
      <point x="367" y="463"/>
      <point x="321" y="524"/>
      <point x="260" y="576" type="curve"/>
      <point x="201" y="506" type="line"/>
    </contour>
    <contour>
      <point x="250" y="404" type="curve" smooth="yes"/>
      <point x="153" y="404"/>
      <point x="99" y="325"/>
      <point x="99" y="222" type="curve" smooth="yes"/>
      <point x="99" y="120"/>
      <point x="152" y="39"/>
      <point x="255" y="39" type="curve" smooth="yes"/>
      <point x="356" y="39"/>
      <point x="409" y="118"/>
      <point x="409" y="220" type="curve" smooth="yes"/>
      <point x="409" y="259" type="line" smooth="yes"/>
      <point x="409" y="314"/>
      <point x="353" y="404"/>
    </contour>
  </outline>
</glyph>
<glyph name="ograve" format="1">
  <advance width="510"/>
  <unicode hex="00F2"/>
  <outline>
    <contour>
      <point x="469" y="222" type="curve" smooth="yes"/>
      <point x="469" y="348"/>
      <point x="396" y="453"/>
      <point x="256" y="453" type="curve" smooth="yes"/>
      <point x="116" y="453"/>
      <point x="41" y="348"/>
      <point x="41" y="219" type="curve" smooth="yes"/>
      <point x="41" y="88"/>
      <point x="118" y="-10"/>
      <point x="252" y="-10" type="curve" smooth="yes"/>
      <point x="387" y="-10"/>
      <point x="469" y="89"/>
    </contour>
    <contour>
      <point x="410" y="223" type="curve" smooth="yes"/>
      <point x="410" y="119"/>
      <point x="356" y="39"/>
      <point x="254" y="39" type="curve" smooth="yes"/>
      <point x="152" y="39"/>
      <point x="99" y="120"/>
      <point x="99" y="222" type="curve" smooth="yes"/>
      <point x="99" y="325"/>
      <point x="153" y="404"/>
      <point x="254" y="404" type="curve" smooth="yes"/>
      <point x="355" y="404"/>
      <point x="410" y="327"/>
    </contour>
    <contour>
      <point x="311" y="550" type="line"/>
      <point x="159" y="678" type="line"/>
      <point x="126" y="631" type="line"/>
      <point x="293" y="523" type="line"/>
    </contour>
  </outline>
</glyph>
<glyph name="otilde" format="1">
  <advance width="510"/>
  <unicode hex="00F5"/>
  <outline>
    <contour>
      <point x="469" y="222" type="curve" smooth="yes"/>
      <point x="469" y="348"/>
      <point x="396" y="453"/>
      <point x="256" y="453" type="curve" smooth="yes"/>
      <point x="116" y="453"/>
      <point x="41" y="348"/>
      <point x="41" y="219" type="curve" smooth="yes"/>
      <point x="41" y="88"/>
      <point x="118" y="-10"/>
      <point x="252" y="-10" type="curve" smooth="yes"/>
      <point x="387" y="-10"/>
      <point x="469" y="89"/>
    </contour>
    <contour>
      <point x="410" y="223" type="curve" smooth="yes"/>
      <point x="410" y="119"/>
      <point x="356" y="39"/>
      <point x="254" y="39" type="curve" smooth="yes"/>
      <point x="152" y="39"/>
      <point x="99" y="120"/>
      <point x="99" y="222" type="curve" smooth="yes"/>
      <point x="99" y="325"/>
      <point x="153" y="404"/>
      <point x="254" y="404" type="curve" smooth="yes"/>
      <point x="355" y="404"/>
      <point x="410" y="327"/>
    </contour>
    <contour>
      <point x="390" y="646" type="curve"/>
      <point x="359" y="654" type="line"/>
      <point x="348" y="616"/>
      <point x="330" y="611"/>
      <point x="312" y="611" type="curve" smooth="yes"/>
      <point x="261" y="611"/>
      <point x="236" y="648"/>
      <point x="192" y="648" type="curve" smooth="yes"/>
      <point x="145" y="648"/>
      <point x="118" y="603"/>
      <point x="111" y="569" type="curve"/>
      <point x="140" y="558" type="line"/>
      <point x="151" y="591"/>
      <point x="174" y="601"/>
      <point x="193" y="601" type="curve" smooth="yes"/>
      <point x="229" y="601"/>
      <point x="263" y="563"/>
      <point x="315" y="563" type="curve" smooth="yes"/>
      <point x="356" y="563"/>
      <point x="379" y="593"/>
    </contour>
  </outline>
</glyph>
<glyph name="divide" format="1">
  <advance width="459"/>
  <unicode hex="00F7"/>
  <outline>
    <contour>
      <point x="403" y="259" type="line"/>
      <point x="403" y="303" type="line"/>
      <point x="56" y="303" type="line"/>
      <point x="56" y="259" type="line"/>
    </contour>
    <contour>
      <point x="185" y="378" type="line"/>
      <point x="268" y="378" type="line"/>
      <point x="268" y="465" type="line"/>
      <point x="185" y="465" type="line"/>
    </contour>
    <contour>
      <point x="185" y="99" type="line"/>
      <point x="268" y="99" type="line"/>
      <point x="268" y="186" type="line"/>
      <point x="185" y="186" type="line"/>
    </contour>
  </outline>
</glyph>
<glyph name="udieresis" format="1">
  <advance width="556"/>
  <unicode hex="00FC"/>
  <outline>
    <contour>
      <point x="138" y="562" type="line"/>
      <point x="206" y="562" type="line"/>
      <point x="206" y="633" type="line"/>
      <point x="138" y="633" type="line"/>
    </contour>
    <contour>
      <point x="306" y="562" type="line"/>
      <point x="374" y="562" type="line"/>
      <point x="374" y="633" type="line"/>
      <point x="306" y="633" type="line"/>
    </contour>
    <contour>
      <point x="539" y="0" type="line"/>
      <point x="539" y="46" type="line"/>
      <point x="456" y="46" type="line"/>
      <point x="456" y="444" type="line"/>
      <point x="303" y="444" type="line"/>
      <point x="303" y="397" type="line"/>
      <point x="401" y="397" type="line"/>
      <point x="401" y="181" type="line"/>
      <point x="398" y="117"/>
      <point x="340" y="39"/>
      <point x="260" y="39" type="curve" smooth="yes"/>
      <point x="193" y="39"/>
      <point x="145" y="75"/>
      <point x="145" y="176" type="curve" smooth="yes"/>
      <point x="145" y="444" type="line"/>
      <point x="8" y="444" type="line"/>
      <point x="8" y="397" type="line"/>
      <point x="90" y="397" type="line"/>
      <point x="90" y="163" type="line" smooth="yes"/>
      <point x="90" y="41"/>
      <point x="156" y="-10"/>
      <point x="244" y="-10" type="curve" smooth="yes"/>
      <point x="316" y="-10"/>
      <point x="373" y="30"/>
      <point x="401" y="88" type="curve"/>
      <point x="401" y="0" type="line"/>
    </contour>
  </outline>
</glyph>
<glyph name="Abreve" format="1">
  <advance width="638"/>
  <unicode hex="0102"/>
  <outline>
    <contour>
      <point x="646" y="0" type="line"/>
      <point x="646" y="51" type="line"/>
      <point x="580" y="51" type="line"/>
      <point x="347" y="650" type="line"/>
      <point x="172" y="650" type="line"/>
      <point x="172" y="599" type="line"/>
      <point x="279" y="599" type="line"/>
      <point x="59" y="51" type="line"/>
      <point x="-2" y="51" type="line"/>
      <point x="-2" y="0" type="line"/>
      <point x="220" y="0" type="line"/>
      <point x="220" y="51" type="line"/>
      <point x="117" y="51" type="line"/>
      <point x="173" y="192" type="line"/>
      <point x="466" y="192" type="line"/>
      <point x="519" y="51" type="line"/>
      <point x="423" y="51" type="line"/>
      <point x="423" y="0" type="line"/>
    </contour>
    <contour>
      <point x="449" y="238" type="line"/>
      <point x="191" y="238" type="line"/>
      <point x="320" y="566" type="line"/>
      <point x="325" y="566" type="line"/>
    </contour>
    <contour>
      <point x="439" y="812" type="curve"/>
      <point x="392" y="812" type="line"/>
      <point x="392" y="756"/>
      <point x="371" y="740"/>
      <point x="321" y="740" type="curve" smooth="yes"/>
      <point x="276" y="740"/>
      <point x="251" y="754"/>
      <point x="251" y="812" type="curve"/>
      <point x="204" y="812" type="line"/>
      <point x="204" y="733"/>
      <point x="242" y="700"/>
      <point x="322" y="700" type="curve" smooth="yes"/>
      <point x="401" y="700"/>
      <point x="439" y="732"/>
    </contour>
  </outline>
</glyph>
<glyph name="abreve" format="1">
  <advance width="477"/>
  <unicode hex="0103"/>
  <outline>
    <contour>
      <point x="85" y="409" type="curve"/>
      <point x="69" y="310" type="line"/>
      <point x="115" y="304" type="line"/>
      <point x="133" y="384" type="line"/>
      <point x="161" y="398"/>
      <point x="192" y="404"/>
      <point x="223" y="404" type="curve" smooth="yes"/>
      <point x="305" y="404"/>
      <point x="331" y="362"/>
      <point x="331" y="294" type="curve" smooth="yes"/>
      <point x="331" y="247" type="line"/>
      <point x="307" y="249"/>
      <point x="279" y="251"/>
      <point x="251" y="251" type="curve" smooth="yes"/>
      <point x="152" y="251"/>
      <point x="43" y="226"/>
      <point x="43" y="114" type="curve" smooth="yes"/>
      <point x="43" y="19"/>
      <point x="120" y="-10"/>
      <point x="178" y="-10" type="curve" smooth="yes"/>
      <point x="249" y="-10"/>
      <point x="303" y="34"/>
      <point x="331" y="82" type="curve"/>
      <point x="331" y="80" type="line" smooth="yes"/>
      <point x="331" y="25"/>
      <point x="358" y="-10"/>
      <point x="407" y="-10" type="curve" smooth="yes"/>
      <point x="426" y="-10"/>
      <point x="445" y="-5"/>
      <point x="459" y="4" type="curve"/>
      <point x="458" y="44" type="line"/>
      <point x="449" y="39"/>
      <point x="435" y="37"/>
      <point x="425" y="37" type="curve" smooth="yes"/>
      <point x="398" y="37"/>
      <point x="386" y="53"/>
      <point x="386" y="88" type="curve" smooth="yes"/>
      <point x="386" y="304" type="line" smooth="yes"/>
      <point x="386" y="404"/>
      <point x="337" y="453"/>
      <point x="232" y="453" type="curve" smooth="yes"/>
      <point x="178" y="453"/>
      <point x="122" y="440"/>
    </contour>
    <contour>
      <point x="331" y="163" type="line"/>
      <point x="327" y="89"/>
      <point x="258" y="39"/>
      <point x="192" y="39" type="curve" smooth="yes"/>
      <point x="153" y="39"/>
      <point x="101" y="56"/>
      <point x="101" y="120" type="curve" smooth="yes"/>
      <point x="101" y="194"/>
      <point x="172" y="209"/>
      <point x="244" y="209" type="curve" smooth="yes"/>
      <point x="276" y="209"/>
      <point x="305" y="206"/>
      <point x="331" y="204" type="curve"/>
    </contour>
    <contour>
      <point x="344" y="655" type="curve"/>
      <point x="297" y="655" type="line"/>
      <point x="297" y="600"/>
      <point x="275" y="577"/>
      <point x="227" y="577" type="curve" smooth="yes"/>
      <point x="182" y="577"/>
      <point x="156" y="597"/>
      <point x="156" y="655" type="curve"/>
      <point x="109" y="655" type="line"/>
      <point x="109" y="577"/>
      <point x="147" y="537"/>
      <point x="226" y="537" type="curve" smooth="yes"/>
      <point x="305" y="537"/>
      <point x="344" y="576"/>
    </contour>
  </outline>
</glyph>
<glyph name="Aogonek" format="1">
  <advance width="637"/>
  <unicode hex="0104"/>
  <outline>
    <contour>
      <point x="636" y="-189" type="curve"/>
      <point x="627" y="-149" type="line"/>
      <point x="608" y="-161"/>
      <point x="590" y="-165"/>
      <point x="571" y="-165" type="curve" smooth="yes"/>
      <point x="534" y="-165"/>
      <point x="509" y="-149"/>
      <point x="509" y="-106" type="curve" smooth="yes"/>
      <point x="509" y="-69"/>
      <point x="527" y="-31"/>
      <point x="579" y="0" type="curve"/>
      <point x="646" y="0" type="line"/>
      <point x="646" y="51" type="line"/>
      <point x="580" y="51" type="line"/>
      <point x="347" y="650" type="line"/>
      <point x="172" y="650" type="line"/>
      <point x="172" y="599" type="line"/>
      <point x="279" y="599" type="line"/>
      <point x="59" y="51" type="line"/>
      <point x="-2" y="51" type="line"/>
      <point x="-2" y="0" type="line"/>
      <point x="220" y="0" type="line"/>
      <point x="220" y="51" type="line"/>
      <point x="117" y="51" type="line"/>
      <point x="173" y="192" type="line"/>
      <point x="466" y="192" type="line"/>
      <point x="519" y="51" type="line"/>
      <point x="423" y="51" type="line"/>
      <point x="423" y="0" type="line"/>
      <point x="531" y="0" type="line"/>
      <point x="490" y="-25"/>
      <point x="459" y="-67"/>
      <point x="459" y="-118" type="curve" smooth="yes"/>
      <point x="459" y="-174"/>
      <point x="498" y="-209"/>
      <point x="560" y="-209" type="curve" smooth="yes"/>
      <point x="589" y="-209"/>
      <point x="614" y="-201"/>
    </contour>
    <contour>
      <point x="449" y="238" type="line"/>
      <point x="191" y="238" type="line"/>
      <point x="320" y="566" type="line"/>
      <point x="325" y="566" type="line"/>
    </contour>
  </outline>
</glyph>
<glyph name="aogonek" format="1">
  <advance width="477"/>
  <unicode hex="0105"/>
  <outline>
    <contour>
      <point x="476" y="-189" type="curve"/>
      <point x="467" y="-149" type="line"/>
      <point x="448" y="-161"/>
      <point x="430" y="-165"/>
      <point x="411" y="-165" type="curve" smooth="yes"/>
      <point x="374" y="-165"/>
      <point x="349" y="-149"/>
      <point x="349" y="-106" type="curve" smooth="yes"/>
      <point x="349" y="-73"/>
      <point x="363" y="-39"/>
      <point x="403" y="-10" type="curve"/>
      <point x="407" y="-10" type="line" smooth="yes"/>
      <point x="426" y="-10"/>
      <point x="445" y="-5"/>
      <point x="459" y="4" type="curve"/>
      <point x="458" y="44" type="line"/>
      <point x="449" y="39"/>
      <point x="435" y="37"/>
      <point x="425" y="37" type="curve" smooth="yes"/>
      <point x="398" y="37"/>
      <point x="386" y="53"/>
      <point x="386" y="88" type="curve" smooth="yes"/>
      <point x="386" y="304" type="line" smooth="yes"/>
      <point x="386" y="404"/>
      <point x="337" y="453"/>
      <point x="232" y="453" type="curve" smooth="yes"/>
      <point x="178" y="453"/>
      <point x="122" y="440"/>
      <point x="85" y="409" type="curve"/>
      <point x="69" y="310" type="line"/>
      <point x="115" y="304" type="line"/>
      <point x="133" y="384" type="line"/>
      <point x="161" y="398"/>
      <point x="192" y="404"/>
      <point x="223" y="404" type="curve" smooth="yes"/>
      <point x="305" y="404"/>
      <point x="331" y="362"/>
      <point x="331" y="294" type="curve" smooth="yes"/>
      <point x="331" y="247" type="line"/>
      <point x="307" y="249"/>
      <point x="279" y="251"/>
      <point x="251" y="251" type="curve" smooth="yes"/>
      <point x="152" y="251"/>
      <point x="43" y="226"/>
      <point x="43" y="114" type="curve" smooth="yes"/>
      <point x="43" y="19"/>
      <point x="120" y="-10"/>
      <point x="178" y="-10" type="curve" smooth="yes"/>
      <point x="249" y="-10"/>
      <point x="303" y="34"/>
      <point x="331" y="82" type="curve"/>
      <point x="331" y="80" type="line" smooth="yes"/>
      <point x="331" y="41"/>
      <point x="344" y="12"/>
      <point x="369" y="-1" type="curve"/>
      <point x="329" y="-27"/>
      <point x="299" y="-68"/>
      <point x="299" y="-118" type="curve" smooth="yes"/>
      <point x="299" y="-174"/>
      <point x="338" y="-209"/>
      <point x="400" y="-209" type="curve" smooth="yes"/>
      <point x="429" y="-209"/>
      <point x="454" y="-201"/>
    </contour>
    <contour>
      <point x="331" y="163" type="line"/>
      <point x="327" y="89"/>
      <point x="258" y="39"/>
      <point x="192" y="39" type="curve" smooth="yes"/>
      <point x="153" y="39"/>
      <point x="101" y="56"/>
      <point x="101" y="120" type="curve" smooth="yes"/>
      <point x="101" y="194"/>
      <point x="172" y="209"/>
      <point x="244" y="209" type="curve" smooth="yes"/>
      <point x="276" y="209"/>
      <point x="305" y="206"/>
      <point x="331" y="204" type="curve"/>
    </contour>
  </outline>
</glyph>
<glyph name="Cdotaccent" format="1">
  <advance width="647"/>
  <unicode hex="010A"/>
  <outline>
    <contour>
      <point x="318" y="722" type="line"/>
      <point x="386" y="722" type="line"/>
      <point x="386" y="793" type="line"/>
      <point x="318" y="793" type="line"/>
    </contour>
    <contour>
      <point x="570" y="45" type="curve"/>
      <point x="588" y="162" type="line"/>
      <point x="538" y="168" type="line"/>
      <point x="518" y="72" type="line"/>
      <point x="472" y="49"/>
      <point x="430" y="42"/>
      <point x="370" y="42" type="curve" smooth="yes"/>
      <point x="204" y="42"/>
      <point x="104" y="160"/>
      <point x="104" y="324" type="curve" smooth="yes"/>
      <point x="104" y="486"/>
      <point x="206" y="608"/>
      <point x="356" y="608" type="curve" smooth="yes"/>
      <point x="437" y="608"/>
      <point x="480" y="588"/>
      <point x="524" y="559" type="curve"/>
      <point x="544" y="461" type="line"/>
      <point x="594" y="467" type="line"/>
      <point x="576" y="584" type="line"/>
      <point x="520" y="631"/>
      <point x="454" y="660"/>
      <point x="347" y="660" type="curve" smooth="yes"/>
      <point x="173" y="660"/>
      <point x="44" y="510"/>
      <point x="44" y="323" type="curve" smooth="yes"/>
      <point x="44" y="135"/>
      <point x="170" y="-10"/>
      <point x="360" y="-10" type="curve" smooth="yes"/>
      <point x="451" y="-10"/>
      <point x="516" y="6"/>
    </contour>
  </outline>
</glyph>
<glyph name="ebreve" format="1">
  <advance width="467"/>
  <unicode hex="0115"/>
  <outline>
    <contour>
      <point x="427" y="124" type="curve"/>
      <point x="381" y="135" type="line"/>
      <point x="365" y="73"/>
      <point x="321" y="39"/>
      <point x="251" y="39" type="curve" smooth="yes"/>
      <point x="157" y="39"/>
      <point x="103" y="101"/>
      <point x="100" y="208" type="curve"/>
      <point x="418" y="208" type="line"/>
      <point x="421" y="225"/>
      <point x="423" y="242"/>
      <point x="423" y="258" type="curve" smooth="yes"/>
      <point x="423" y="360"/>
      <point x="362" y="453"/>
      <point x="241" y="453" type="curve" smooth="yes"/>
      <point x="119" y="453"/>
      <point x="42" y="354"/>
      <point x="42" y="216" type="curve" smooth="yes"/>
      <point x="42" y="74"/>
      <point x="123" y="-10"/>
      <point x="247" y="-10" type="curve" smooth="yes"/>
      <point x="351" y="-10"/>
      <point x="414" y="49"/>
    </contour>
    <contour>
      <point x="365" y="254" type="curve"/>
      <point x="101" y="254" type="line"/>
      <point x="110" y="334"/>
      <point x="149" y="404"/>
      <point x="238" y="404" type="curve" smooth="yes"/>
      <point x="332" y="404"/>
      <point x="372" y="325"/>
    </contour>
    <contour>
      <point x="358" y="655" type="curve"/>
      <point x="311" y="655" type="line"/>
      <point x="311" y="600"/>
      <point x="289" y="577"/>
      <point x="241" y="577" type="curve" smooth="yes"/>
      <point x="196" y="577"/>
      <point x="170" y="597"/>
      <point x="170" y="655" type="curve"/>
      <point x="123" y="655" type="line"/>
      <point x="123" y="577"/>
      <point x="161" y="537"/>
      <point x="240" y="537" type="curve" smooth="yes"/>
      <point x="319" y="537"/>
      <point x="358" y="576"/>
    </contour>
  </outline>
</glyph>
<glyph name="Edotaccent" format="1">
  <advance width="588"/>
  <unicode hex="0116"/>
  <outline>
    <contour>
      <point x="285" y="722" type="line"/>
      <point x="353" y="722" type="line"/>
      <point x="353" y="793" type="line"/>
      <point x="285" y="793" type="line"/>
    </contour>
    <contour>
      <point x="522" y="0" type="line"/>
      <point x="541" y="183" type="line"/>
      <point x="491" y="188" type="line"/>
      <point x="471" y="51" type="line"/>
      <point x="185" y="51" type="line"/>
      <point x="185" y="305" type="line"/>
      <point x="500" y="305" type="line"/>
      <point x="500" y="356" type="line"/>
      <point x="185" y="356" type="line"/>
      <point x="185" y="599" type="line"/>
      <point x="461" y="599" type="line"/>
      <point x="481" y="462" type="line"/>
      <point x="532" y="468" type="line"/>
      <point x="512" y="650" type="line"/>
      <point x="43" y="650" type="line"/>
      <point x="43" y="599" type="line"/>
      <point x="128" y="599" type="line"/>
      <point x="128" y="51" type="line"/>
      <point x="43" y="51" type="line"/>
      <point x="43" y="0" type="line"/>
    </contour>
  </outline>
</glyph>
<glyph name="eogonek" format="1">
  <advance width="467"/>
  <unicode hex="0119"/>
  <outline>
    <contour>
      <point x="427" y="124" type="curve"/>
      <point x="381" y="135" type="line"/>
      <point x="365" y="73"/>
      <point x="321" y="39"/>
      <point x="251" y="39" type="curve" smooth="yes"/>
      <point x="157" y="39"/>
      <point x="103" y="101"/>
      <point x="100" y="208" type="curve"/>
      <point x="418" y="208" type="line"/>
      <point x="421" y="225"/>
      <point x="423" y="242"/>
      <point x="423" y="258" type="curve" smooth="yes"/>
      <point x="423" y="360"/>
      <point x="362" y="453"/>
      <point x="241" y="453" type="curve" smooth="yes"/>
      <point x="119" y="453"/>
      <point x="42" y="354"/>
      <point x="42" y="216" type="curve" smooth="yes"/>
      <point x="42" y="74"/>
      <point x="123" y="-10"/>
      <point x="247" y="-10" type="curve"/>
      <point x="214" y="-35"/>
      <point x="190" y="-73"/>
      <point x="190" y="-118" type="curve" smooth="yes"/>
      <point x="190" y="-174"/>
      <point x="229" y="-209"/>
      <point x="291" y="-209" type="curve" smooth="yes"/>
      <point x="320" y="-209"/>
      <point x="345" y="-201"/>
      <point x="367" y="-189" type="curve"/>
      <point x="358" y="-149" type="line"/>
      <point x="339" y="-161"/>
      <point x="321" y="-165"/>
      <point x="302" y="-165" type="curve" smooth="yes"/>
      <point x="265" y="-165"/>
      <point x="240" y="-149"/>
      <point x="240" y="-106" type="curve" smooth="yes"/>
      <point x="240" y="-70"/>
      <point x="256" y="-33"/>
      <point x="304" y="-3" type="curve"/>
      <point x="374" y="14"/>
      <point x="416" y="64"/>
    </contour>
    <contour>
      <point x="365" y="254" type="curve"/>
      <point x="101" y="254" type="line"/>
      <point x="110" y="334"/>
      <point x="149" y="404"/>
      <point x="238" y="404" type="curve" smooth="yes"/>
      <point x="332" y="404"/>
      <point x="372" y="325"/>
    </contour>
  </outline>
</glyph>
<glyph name="Gbreve" format="1">
  <advance width="694"/>
  <unicode hex="011E"/>
  <outline>
    <contour>
      <point x="472" y="812" type="curve"/>
      <point x="425" y="812" type="line"/>
      <point x="425" y="756"/>
      <point x="404" y="740"/>
      <point x="354" y="740" type="curve" smooth="yes"/>
      <point x="309" y="740"/>
      <point x="284" y="754"/>
      <point x="284" y="812" type="curve"/>
      <point x="237" y="812" type="line"/>
      <point x="237" y="733"/>
      <point x="275" y="700"/>
      <point x="355" y="700" type="curve" smooth="yes"/>
      <point x="434" y="700"/>
      <point x="472" y="732"/>
    </contour>
    <contour>
      <point x="665" y="277" type="line"/>
      <point x="665" y="328" type="line"/>
      <point x="390" y="328" type="line"/>
      <point x="390" y="277" type="line"/>
      <point x="553" y="277" type="line"/>
      <point x="553" y="204" type="line" smooth="yes"/>
      <point x="553" y="127"/>
      <point x="481" y="42"/>
      <point x="354" y="42" type="curve" smooth="yes"/>
      <point x="203" y="42"/>
      <point x="104" y="160"/>
      <point x="104" y="326" type="curve" smooth="yes"/>
      <point x="104" y="486"/>
      <point x="207" y="608"/>
      <point x="363" y="608" type="curve" smooth="yes"/>
      <point x="452" y="608"/>
      <point x="497" y="582"/>
      <point x="534" y="558" type="curve"/>
      <point x="554" y="461" type="line"/>
      <point x="604" y="467" type="line"/>
      <point x="586" y="584" type="line"/>
      <point x="536" y="629"/>
      <point x="460" y="660"/>
      <point x="356" y="660" type="curve" smooth="yes"/>
      <point x="178" y="660"/>
      <point x="44" y="510"/>
      <point x="44" y="323" type="curve" smooth="yes"/>
      <point x="44" y="137"/>
      <point x="168" y="-10"/>
      <point x="345" y="-10" type="curve" smooth="yes"/>
      <point x="444" y="-10"/>
      <point x="520" y="36"/>
      <point x="558" y="96" type="curve"/>
      <point x="566" y="0" type="line"/>
      <point x="610" y="0" type="line"/>
      <point x="610" y="277" type="line"/>
    </contour>
  </outline>
</glyph>
<glyph name="Gdotaccent" format="1">
  <advance width="694"/>
  <unicode hex="0120"/>
  <outline>
    <contour>
      <point x="320" y="722" type="line"/>
      <point x="388" y="722" type="line"/>
      <point x="388" y="793" type="line"/>
      <point x="320" y="793" type="line"/>
    </contour>
    <contour>
      <point x="665" y="277" type="line"/>
      <point x="665" y="328" type="line"/>
      <point x="390" y="328" type="line"/>
      <point x="390" y="277" type="line"/>
      <point x="553" y="277" type="line"/>
      <point x="553" y="204" type="line" smooth="yes"/>
      <point x="553" y="127"/>
      <point x="481" y="42"/>
      <point x="354" y="42" type="curve" smooth="yes"/>
      <point x="203" y="42"/>
      <point x="104" y="160"/>
      <point x="104" y="326" type="curve" smooth="yes"/>
      <point x="104" y="486"/>
      <point x="207" y="608"/>
      <point x="363" y="608" type="curve" smooth="yes"/>
      <point x="452" y="608"/>
      <point x="497" y="582"/>
      <point x="534" y="558" type="curve"/>
      <point x="554" y="461" type="line"/>
      <point x="604" y="467" type="line"/>
      <point x="586" y="584" type="line"/>
      <point x="536" y="629"/>
      <point x="460" y="660"/>
      <point x="356" y="660" type="curve" smooth="yes"/>
      <point x="178" y="660"/>
      <point x="44" y="510"/>
      <point x="44" y="323" type="curve" smooth="yes"/>
      <point x="44" y="137"/>
      <point x="168" y="-10"/>
      <point x="345" y="-10" type="curve" smooth="yes"/>
      <point x="444" y="-10"/>
      <point x="520" y="36"/>
      <point x="558" y="96" type="curve"/>
      <point x="566" y="0" type="line"/>
      <point x="610" y="0" type="line"/>
      <point x="610" y="277" type="line"/>
    </contour>
  </outline>
</glyph>
<glyph name="gdotaccent" format="1">
  <advance width="543"/>
  <unicode hex="0121"/>
  <outline>
    <contour>
      <point x="524" y="397" type="line"/>
      <point x="524" y="444" type="line"/>
      <point x="394" y="444" type="line"/>
      <point x="394" y="373" type="line"/>
      <point x="364" y="426"/>
      <point x="306" y="453"/>
      <point x="241" y="453" type="curve" smooth="yes"/>
      <point x="100" y="453"/>
      <point x="43" y="324"/>
      <point x="43" y="209" type="curve" smooth="yes"/>
      <point x="43" y="70"/>
      <point x="126" y="-7"/>
      <point x="232" y="-7" type="curve" smooth="yes"/>
      <point x="317" y="-7"/>
      <point x="366" y="40"/>
      <point x="394" y="93" type="curve"/>
      <point x="394" y="5" type="line" smooth="yes"/>
      <point x="394" y="-111"/>
      <point x="331" y="-174"/>
      <point x="242" y="-174" type="curve" smooth="yes"/>
      <point x="181" y="-174"/>
      <point x="112" y="-146"/>
      <point x="91" y="-73" type="curve"/>
      <point x="47" y="-93" type="line"/>
      <point x="67" y="-178"/>
      <point x="145" y="-223"/>
      <point x="238" y="-223" type="curve" smooth="yes"/>
      <point x="369" y="-223"/>
      <point x="449" y="-137"/>
      <point x="449" y="2" type="curve" smooth="yes"/>
      <point x="449" y="397" type="line"/>
    </contour>
    <contour>
      <point x="394" y="182" type="line"/>
      <point x="391" y="116"/>
      <point x="329" y="41"/>
      <point x="241" y="41" type="curve" smooth="yes"/>
      <point x="163" y="41"/>
      <point x="100" y="99"/>
      <point x="100" y="214" type="curve" smooth="yes"/>
      <point x="100" y="308"/>
      <point x="142" y="404"/>
      <point x="254" y="404" type="curve" smooth="yes"/>
      <point x="330" y="404"/>
      <point x="394" y="352"/>
      <point x="394" y="277" type="curve" smooth="yes"/>
    </contour>
    <contour>
      <point x="227" y="559" type="line"/>
      <point x="289" y="559" type="line"/>
      <point x="289" y="638" type="line"/>
      <point x="227" y="638" type="line"/>
    </contour>
  </outline>
</glyph>
<glyph name="Imacron" format="1">
  <advance width="314"/>
  <unicode hex="012A"/>
  <outline>
    <contour>
      <point x="270" y="0" type="line"/>
      <point x="270" y="51" type="line"/>
      <point x="186" y="51" type="line"/>
      <point x="186" y="599" type="line"/>
      <point x="270" y="599" type="line"/>
      <point x="270" y="650" type="line"/>
      <point x="43" y="650" type="line"/>
      <point x="43" y="599" type="line"/>
      <point x="128" y="599" type="line"/>
      <point x="128" y="51" type="line"/>
      <point x="43" y="51" type="line"/>
      <point x="43" y="0" type="line"/>
    </contour>
    <contour>
      <point x="295" y="736" type="line"/>
      <point x="295" y="782" type="line"/>
      <point x="24" y="782" type="line"/>
      <point x="24" y="736" type="line"/>
    </contour>
  </outline>
</glyph>
<glyph name="imacron" format="1">
  <advance width="275"/>
  <unicode hex="012B"/>
  <outline>
    <contour>
      <point x="34" y="46" type="line"/>
      <point x="117" y="46" type="line"/>
      <point x="117" y="397" type="line"/>
      <point x="33" y="397" type="line"/>
      <point x="33" y="444" type="line"/>
      <point x="172" y="444" type="line"/>
      <point x="172" y="46" type="line"/>
      <point x="254" y="46" type="line"/>
      <point x="254" y="0" type="line"/>
      <point x="34" y="0" type="line"/>
    </contour>
    <contour>
      <point x="246" y="572" type="line"/>
      <point x="246" y="618" type="line"/>
      <point x="8" y="618" type="line"/>
      <point x="8" y="572" type="line"/>
    </contour>
  </outline>
</glyph>
<glyph name="Ibreve" format="1">
  <advance width="314"/>
  <unicode hex="012C"/>
  <outline>
    <contour>
      <point x="270" y="0" type="line"/>
      <point x="270" y="51" type="line"/>
      <point x="186" y="51" type="line"/>
      <point x="186" y="599" type="line"/>
      <point x="270" y="599" type="line"/>
      <point x="270" y="650" type="line"/>
      <point x="43" y="650" type="line"/>
      <point x="43" y="599" type="line"/>
      <point x="128" y="599" type="line"/>
      <point x="128" y="51" type="line"/>
      <point x="43" y="51" type="line"/>
      <point x="43" y="0" type="line"/>
    </contour>
    <contour>
      <point x="275" y="812" type="curve"/>
      <point x="228" y="812" type="line"/>
      <point x="228" y="756"/>
      <point x="207" y="740"/>
      <point x="157" y="740" type="curve" smooth="yes"/>
      <point x="112" y="740"/>
      <point x="87" y="754"/>
      <point x="87" y="812" type="curve"/>
      <point x="40" y="812" type="line"/>
      <point x="40" y="733"/>
      <point x="78" y="700"/>
      <point x="158" y="700" type="curve" smooth="yes"/>
      <point x="237" y="700"/>
      <point x="275" y="732"/>
    </contour>
  </outline>
</glyph>
<glyph name="Iogonek" format="1">
  <advance width="314"/>
  <unicode hex="012E"/>
  <outline>
    <contour>
      <point x="240" y="-189" type="curve"/>
      <point x="231" y="-149" type="line"/>
      <point x="212" y="-161"/>
      <point x="194" y="-165"/>
      <point x="175" y="-165" type="curve" smooth="yes"/>
      <point x="138" y="-165"/>
      <point x="113" y="-149"/>
      <point x="113" y="-106" type="curve" smooth="yes"/>
      <point x="113" y="-69"/>
      <point x="131" y="-31"/>
      <point x="183" y="0" type="curve"/>
      <point x="270" y="0" type="line"/>
      <point x="270" y="51" type="line"/>
      <point x="186" y="51" type="line"/>
      <point x="186" y="599" type="line"/>
      <point x="270" y="599" type="line"/>
      <point x="270" y="650" type="line"/>
      <point x="43" y="650" type="line"/>
      <point x="43" y="599" type="line"/>
      <point x="128" y="599" type="line"/>
      <point x="128" y="51" type="line"/>
      <point x="43" y="51" type="line"/>
      <point x="43" y="0" type="line"/>
      <point x="135" y="0" type="line"/>
      <point x="94" y="-25"/>
      <point x="63" y="-67"/>
      <point x="63" y="-118" type="curve" smooth="yes"/>
      <point x="63" y="-174"/>
      <point x="102" y="-209"/>
      <point x="164" y="-209" type="curve" smooth="yes"/>
      <point x="193" y="-209"/>
      <point x="218" y="-201"/>
    </contour>
  </outline>
</glyph>
<glyph name="Jcircumflex" format="1">
  <advance width="448"/>
  <unicode hex="0134"/>
  <outline>
    <contour>
      <point x="408" y="599" type="line"/>
      <point x="408" y="650" type="line"/>
      <point x="143" y="650" type="line"/>
      <point x="143" y="599" type="line"/>
      <point x="276" y="599" type="line"/>
      <point x="276" y="161" type="line" smooth="yes"/>
      <point x="276" y="90"/>
      <point x="245" y="44"/>
      <point x="169" y="44" type="curve" smooth="yes"/>
      <point x="122" y="44"/>
      <point x="91" y="62"/>
      <point x="62" y="114" type="curve"/>
      <point x="20" y="82" type="line"/>
      <point x="48" y="26"/>
      <point x="95" y="-10"/>
      <point x="174" y="-10" type="curve" smooth="yes"/>
      <point x="275" y="-10"/>
      <point x="333" y="47"/>
      <point x="333" y="161" type="curve" smooth="yes"/>
      <point x="333" y="599" type="line"/>
    </contour>
    <contour>
      <point x="416" y="737" type="line"/>
      <point x="293" y="822" type="line"/>
      <point x="278" y="822" type="line"/>
      <point x="153" y="733" type="line"/>
      <point x="170" y="705" type="line"/>
      <point x="283" y="769" type="line"/>
      <point x="399" y="706" type="line"/>
    </contour>
  </outline>
</glyph>
<glyph name="kcommaaccent" format="1">
  <advance width="511"/>
  <unicode hex="0137"/>
  <outline>
    <contour>
      <point x="283" y="-66" type="line"/>
      <point x="231" y="-66" type="line"/>
      <point x="221" y="-219" type="line"/>
      <point x="267" y="-219" type="line"/>
    </contour>
    <contour>
      <point x="501" y="0" type="line"/>
      <point x="501" y="46" type="line"/>
      <point x="432" y="46" type="line"/>
      <point x="279" y="241" type="line"/>
      <point x="405" y="397" type="line"/>
      <point x="477" y="397" type="line"/>
      <point x="477" y="444" type="line"/>
      <point x="274" y="444" type="line"/>
      <point x="274" y="397" type="line"/>
      <point x="347" y="397" type="line"/>
      <point x="236" y="258" type="line"/>
      <point x="154" y="258" type="line"/>
      <point x="154" y="688" type="line"/>
      <point x="16" y="688" type="line"/>
      <point x="16" y="642" type="line"/>
      <point x="99" y="642" type="line"/>
      <point x="99" y="46" type="line"/>
      <point x="17" y="46" type="line"/>
      <point x="17" y="0" type="line"/>
      <point x="225" y="0" type="line"/>
      <point x="225" y="46" type="line"/>
      <point x="154" y="46" type="line"/>
      <point x="154" y="214" type="line"/>
      <point x="237" y="214" type="line"/>
      <point x="370" y="46" type="line"/>
      <point x="296" y="46" type="line"/>
      <point x="296" y="0" type="line"/>
    </contour>
  </outline>
</glyph>
<glyph name="lacute" format="1">
  <advance width="262"/>
  <unicode hex="013A"/>
  <outline>
    <contour>
      <point x="221" y="758" type="line"/>
      <point x="207" y="813" type="line"/>
      <point x="19" y="744" type="line"/>
      <point x="28" y="712" type="line"/>
    </contour>
    <contour>
      <point x="240" y="0" type="line"/>
      <point x="240" y="46" type="line"/>
      <point x="158" y="46" type="line"/>
      <point x="158" y="688" type="line"/>
      <point x="20" y="688" type="line"/>
      <point x="20" y="642" type="line"/>
      <point x="103" y="642" type="line"/>
      <point x="103" y="46" type="line"/>
      <point x="21" y="46" type="line"/>
      <point x="21" y="0" type="line"/>
    </contour>
  </outline>
</glyph>
<glyph name="Lslash" format="1">
  <advance width="542"/>
  <unicode hex="0141"/>
  <outline>
    <contour>
      <point x="508" y="0" type="line"/>
      <point x="528" y="202" type="line"/>
      <point x="476" y="206" type="line"/>
      <point x="456" y="51" type="line"/>
      <point x="186" y="51" type="line"/>
      <point x="186" y="294" type="line"/>
      <point x="344" y="360" type="line"/>
      <point x="344" y="408" type="line"/>
      <point x="186" y="342" type="line"/>
      <point x="186" y="599" type="line"/>
      <point x="299" y="599" type="line"/>
      <point x="299" y="650" type="line"/>
      <point x="44" y="650" type="line"/>
      <point x="44" y="599" type="line"/>
      <point x="129" y="599" type="line"/>
      <point x="129" y="318" type="line"/>
      <point x="45" y="283" type="line"/>
      <point x="45" y="235" type="line"/>
      <point x="129" y="270" type="line"/>
      <point x="129" y="51" type="line"/>
      <point x="44" y="51" type="line"/>
      <point x="44" y="0" type="line"/>
    </contour>
  </outline>
</glyph>
<glyph name="lslash" format="1">
  <advance width="268"/>
  <unicode hex="0142"/>
  <outline>
    <contour>
      <point x="24" y="247" type="line"/>
      <point x="106" y="285" type="line"/>
      <point x="106" y="46" type="line"/>
      <point x="24" y="46" type="line"/>
      <point x="24" y="0" type="line"/>
      <point x="243" y="0" type="line"/>
      <point x="243" y="46" type="line"/>
      <point x="161" y="46" type="line"/>
      <point x="161" y="310" type="line"/>
      <point x="245" y="350" type="line"/>
      <point x="245" y="398" type="line"/>
      <point x="161" y="358" type="line"/>
      <point x="161" y="688" type="line"/>
      <point x="23" y="688" type="line"/>
      <point x="23" y="642" type="line"/>
      <point x="106" y="642" type="line"/>
      <point x="106" y="333" type="line"/>
      <point x="24" y="295" type="line"/>
    </contour>
  </outline>
</glyph>
<glyph name="Ncommaaccent" format="1">
  <advance width="732"/>
  <unicode hex="0145"/>
  <outline>
    <contour>
      <point x="404" y="-66" type="line"/>
      <point x="352" y="-66" type="line"/>
      <point x="342" y="-219" type="line"/>
      <point x="388" y="-219" type="line"/>
    </contour>
    <contour>
      <point x="695" y="599" type="line"/>
      <point x="695" y="650" type="line"/>
      <point x="457" y="650" type="line"/>
      <point x="457" y="599" type="line"/>
      <point x="556" y="599" type="line"/>
      <point x="556" y="118" type="line"/>
      <point x="552" y="118" type="line"/>
      <point x="171" y="650" type="line"/>
      <point x="41" y="650" type="line"/>
      <point x="41" y="599" type="line"/>
      <point x="128" y="599" type="line"/>
      <point x="128" y="51" type="line"/>
      <point x="51" y="51" type="line"/>
      <point x="51" y="0" type="line"/>
      <point x="290" y="0" type="line"/>
      <point x="290" y="51" type="line"/>
      <point x="183" y="51" type="line"/>
      <point x="183" y="538" type="line"/>
      <point x="187" y="538" type="line"/>
      <point x="572" y="0" type="line"/>
      <point x="611" y="0" type="line"/>
      <point x="611" y="599" type="line"/>
    </contour>
  </outline>
</glyph>
<glyph name="ncommaaccent" format="1">
  <advance width="568"/>
  <unicode hex="0146"/>
  <outline>
    <contour>
      <point x="329" y="-66" type="line"/>
      <point x="277" y="-66" type="line"/>
      <point x="267" y="-219" type="line"/>
      <point x="313" y="-219" type="line"/>
    </contour>
    <contour>
      <point x="560" y="0" type="line"/>
      <point x="560" y="46" type="line"/>
      <point x="478" y="46" type="line"/>
      <point x="478" y="280" type="line" smooth="yes"/>
      <point x="478" y="401"/>
      <point x="414" y="453"/>
      <point x="326" y="453" type="curve" smooth="yes"/>
      <point x="254" y="453"/>
      <point x="198" y="418"/>
      <point x="168" y="362" type="curve"/>
      <point x="168" y="444" type="line"/>
      <point x="29" y="444" type="line"/>
      <point x="29" y="397" type="line"/>
      <point x="113" y="397" type="line"/>
      <point x="113" y="46" type="line"/>
      <point x="30" y="46" type="line"/>
      <point x="30" y="0" type="line"/>
      <point x="250" y="0" type="line"/>
      <point x="250" y="46" type="line"/>
      <point x="168" y="46" type="line"/>
      <point x="168" y="267" type="line"/>
      <point x="171" y="336"/>
      <point x="227" y="404"/>
      <point x="313" y="404" type="curve" smooth="yes"/>
      <point x="375" y="404"/>
      <point x="423" y="368"/>
      <point x="423" y="267" type="curve" smooth="yes"/>
      <point x="423" y="46" type="line"/>
      <point x="341" y="46" type="line"/>
      <point x="341" y="0" type="line"/>
    </contour>
  </outline>
</glyph>
<glyph name="Eng" format="1">
  <advance width="732"/>
  <unicode hex="014A"/>
  <outline>
    <contour>
      <point x="695" y="599" type="line"/>
      <point x="695" y="650" type="line"/>
      <point x="457" y="650" type="line"/>
      <point x="457" y="599" type="line"/>
      <point x="556" y="599" type="line"/>
      <point x="556" y="118" type="line"/>
      <point x="552" y="118" type="line"/>
      <point x="171" y="650" type="line"/>
      <point x="41" y="650" type="line"/>
      <point x="41" y="599" type="line"/>
      <point x="128" y="599" type="line"/>
      <point x="128" y="51" type="line"/>
      <point x="51" y="51" type="line"/>
      <point x="51" y="0" type="line"/>
      <point x="290" y="0" type="line"/>
      <point x="290" y="51" type="line"/>
      <point x="183" y="51" type="line"/>
      <point x="183" y="538" type="line"/>
      <point x="187" y="538" type="line"/>
      <point x="553" y="26" type="line"/>
      <point x="553" y="-21" type="line" smooth="yes"/>
      <point x="553" y="-93"/>
      <point x="523" y="-139"/>
      <point x="447" y="-139" type="curve" smooth="yes"/>
      <point x="400" y="-139"/>
      <point x="369" y="-120"/>
      <point x="340" y="-69" type="curve"/>
      <point x="298" y="-100" type="line"/>
      <point x="326" y="-157"/>
      <point x="372" y="-192"/>
      <point x="451" y="-192" type="curve" smooth="yes"/>
      <point x="552" y="-192"/>
      <point x="611" y="-136"/>
      <point x="611" y="-21" type="curve" smooth="yes"/>
      <point x="611" y="599" type="line"/>
    </contour>
  </outline>
</glyph>
<glyph name="Ohungarumlaut" format="1">
  <advance width="733"/>
  <unicode hex="0150"/>
  <outline>
    <contour>
      <point x="690" y="325" type="curve" smooth="yes"/>
      <point x="690" y="510"/>
      <point x="558" y="660"/>
      <point x="366" y="660" type="curve" smooth="yes"/>
      <point x="177" y="660"/>
      <point x="43" y="511"/>
      <point x="43" y="325" type="curve" smooth="yes"/>
      <point x="43" y="141"/>
      <point x="173" y="-10"/>
      <point x="365" y="-10" type="curve" smooth="yes"/>
      <point x="557" y="-10"/>
      <point x="690" y="141"/>
    </contour>
    <contour>
      <point x="629" y="324" type="curve" smooth="yes"/>
      <point x="629" y="167"/>
      <point x="528" y="42"/>
      <point x="367" y="42" type="curve" smooth="yes"/>
      <point x="204" y="42"/>
      <point x="104" y="171"/>
      <point x="104" y="326" type="curve" smooth="yes"/>
      <point x="104" y="482"/>
      <point x="205" y="608"/>
      <point x="366" y="608" type="curve" smooth="yes"/>
      <point x="525" y="608"/>
      <point x="629" y="485"/>
    </contour>
    <contour>
      <point x="598" y="753" type="line"/>
      <point x="584" y="808" type="line"/>
      <point x="397" y="739" type="line"/>
      <point x="405" y="707" type="line"/>
    </contour>
    <contour>
      <point x="448" y="834" type="line"/>
      <point x="409" y="875" type="line"/>
      <point x="273" y="730" type="line"/>
      <point x="295" y="707" type="line"/>
    </contour>
  </outline>
</glyph>
<glyph name="ohungarumlaut" format="1">
  <advance width="510"/>
  <unicode hex="0151"/>
  <outline>
    <contour>
      <point x="457" y="631" type="line"/>
      <point x="424" y="678" type="line"/>
      <point x="272" y="550" type="line"/>
      <point x="290" y="523" type="line"/>
    </contour>
    <contour>
      <point x="304" y="682" type="line"/>
      <point x="257" y="714" type="line"/>
      <point x="158" y="541" type="line"/>
      <point x="184" y="522" type="line"/>
    </contour>
    <contour>
      <point x="469" y="222" type="curve" smooth="yes"/>
      <point x="469" y="348"/>
      <point x="396" y="453"/>
      <point x="256" y="453" type="curve" smooth="yes"/>
      <point x="116" y="453"/>
      <point x="41" y="348"/>
      <point x="41" y="219" type="curve" smooth="yes"/>
      <point x="41" y="88"/>
      <point x="118" y="-10"/>
      <point x="252" y="-10" type="curve" smooth="yes"/>
      <point x="387" y="-10"/>
      <point x="469" y="89"/>
    </contour>
    <contour>
      <point x="410" y="223" type="curve" smooth="yes"/>
      <point x="410" y="119"/>
      <point x="356" y="39"/>
      <point x="254" y="39" type="curve" smooth="yes"/>
      <point x="152" y="39"/>
      <point x="99" y="120"/>
      <point x="99" y="222" type="curve" smooth="yes"/>
      <point x="99" y="325"/>
      <point x="153" y="404"/>
      <point x="254" y="404" type="curve" smooth="yes"/>
      <point x="355" y="404"/>
      <point x="410" y="327"/>
    </contour>
  </outline>
</glyph>
<glyph name="OE" format="1">
  <advance width="999"/>
  <unicode hex="0152"/>
  <outline>
    <contour>
      <point x="933" y="0" type="line"/>
      <point x="953" y="183" type="line"/>
      <point x="901" y="188" type="line"/>
      <point x="881" y="51" type="line"/>
      <point x="596" y="51" type="line"/>
      <point x="596" y="305" type="line"/>
      <point x="910" y="305" type="line"/>
      <point x="910" y="356" type="line"/>
      <point x="596" y="356" type="line"/>
      <point x="596" y="599" type="line"/>
      <point x="871" y="599" type="line"/>
      <point x="891" y="462" type="line"/>
      <point x="943" y="467" type="line"/>
      <point x="923" y="650" type="line"/>
      <point x="539" y="650" type="line"/>
      <point x="539" y="609" type="line"/>
      <point x="491" y="640"/>
      <point x="434" y="660"/>
      <point x="367" y="660" type="curve" smooth="yes"/>
      <point x="179" y="660"/>
      <point x="43" y="511"/>
      <point x="43" y="325" type="curve" smooth="yes"/>
      <point x="43" y="141"/>
      <point x="176" y="-10"/>
      <point x="367" y="-10" type="curve" smooth="yes"/>
      <point x="435" y="-10"/>
      <point x="491" y="9"/>
      <point x="539" y="40" type="curve"/>
      <point x="539" y="0" type="line"/>
    </contour>
    <contour>
      <point x="539" y="103" type="line"/>
      <point x="498" y="65"/>
      <point x="438" y="42"/>
      <point x="369" y="42" type="curve" smooth="yes"/>
      <point x="204" y="42"/>
      <point x="104" y="173"/>
      <point x="104" y="326" type="curve" smooth="yes"/>
      <point x="104" y="482"/>
      <point x="207" y="608"/>
      <point x="369" y="608" type="curve" smooth="yes"/>
      <point x="435" y="608"/>
      <point x="493" y="586"/>
      <point x="539" y="547" type="curve"/>
    </contour>
  </outline>
</glyph>
<glyph name="racute" format="1">
  <advance width="414"/>
  <unicode hex="0155"/>
  <outline>
    <contour>
      <point x="401" y="631" type="line"/>
      <point x="368" y="678" type="line"/>
      <point x="216" y="550" type="line"/>
      <point x="234" y="523" type="line"/>
    </contour>
    <contour>
      <point x="276" y="452" type="curve" smooth="yes"/>
      <point x="228" y="452"/>
      <point x="183" y="415"/>
      <point x="165" y="365" type="curve"/>
      <point x="165" y="444" type="line"/>
      <point x="29" y="444" type="line"/>
      <point x="29" y="397" type="line"/>
      <point x="113" y="397" type="line"/>
      <point x="113" y="46" type="line"/>
      <point x="30" y="46" type="line"/>
      <point x="30" y="0" type="line"/>
      <point x="277" y="0" type="line"/>
      <point x="277" y="46" type="line"/>
      <point x="168" y="46" type="line"/>
      <point x="168" y="273" type="line" smooth="yes"/>
      <point x="168" y="349"/>
      <point x="210" y="404"/>
      <point x="268" y="404" type="curve" smooth="yes"/>
      <point x="280" y="404"/>
      <point x="291" y="403"/>
      <point x="302" y="400" type="curve"/>
      <point x="319" y="324" type="line"/>
      <point x="365" y="330" type="line"/>
      <point x="349" y="429" type="line"/>
      <point x="329" y="447"/>
      <point x="308" y="452"/>
    </contour>
  </outline>
</glyph>
<glyph name="rcommaaccent" format="1">
  <advance width="414"/>
  <unicode hex="0157"/>
  <outline>
    <contour>
      <point x="166" y="-66" type="line"/>
      <point x="114" y="-66" type="line"/>
      <point x="104" y="-219" type="line"/>
      <point x="150" y="-219" type="line"/>
    </contour>
    <contour>
      <point x="276" y="452" type="curve" smooth="yes"/>
      <point x="228" y="452"/>
      <point x="183" y="415"/>
      <point x="165" y="365" type="curve"/>
      <point x="165" y="444" type="line"/>
      <point x="29" y="444" type="line"/>
      <point x="29" y="397" type="line"/>
      <point x="113" y="397" type="line"/>
      <point x="113" y="46" type="line"/>
      <point x="30" y="46" type="line"/>
      <point x="30" y="0" type="line"/>
      <point x="277" y="0" type="line"/>
      <point x="277" y="46" type="line"/>
      <point x="168" y="46" type="line"/>
      <point x="168" y="273" type="line" smooth="yes"/>
      <point x="168" y="349"/>
      <point x="210" y="404"/>
      <point x="268" y="404" type="curve" smooth="yes"/>
      <point x="280" y="404"/>
      <point x="291" y="403"/>
      <point x="302" y="400" type="curve"/>
      <point x="319" y="324" type="line"/>
      <point x="365" y="330" type="line"/>
      <point x="349" y="429" type="line"/>
      <point x="329" y="447"/>
      <point x="308" y="452"/>
    </contour>
  </outline>
</glyph>
<glyph name="Rcaron" format="1">
  <advance width="611"/>
  <unicode hex="0158"/>
  <outline>
    <contour>
      <point x="429" y="792" type="line"/>
      <point x="412" y="822" type="line"/>
      <point x="300" y="757" type="line"/>
      <point x="184" y="819" type="line"/>
      <point x="166" y="789" type="line"/>
      <point x="289" y="705" type="line"/>
      <point x="305" y="705" type="line"/>
    </contour>
    <contour>
      <point x="602" y="0" type="line"/>
      <point x="602" y="51" type="line"/>
      <point x="519" y="51" type="line"/>
      <point x="395" y="289" type="line"/>
      <point x="492" y="311"/>
      <point x="539" y="386"/>
      <point x="539" y="469" type="curve" smooth="yes"/>
      <point x="539" y="568"/>
      <point x="481" y="650"/>
      <point x="320" y="650" type="curve" smooth="yes"/>
      <point x="43" y="650" type="line"/>
      <point x="43" y="599" type="line"/>
      <point x="128" y="599" type="line"/>
      <point x="128" y="51" type="line"/>
      <point x="43" y="51" type="line"/>
      <point x="43" y="0" type="line"/>
      <point x="278" y="0" type="line"/>
      <point x="278" y="51" type="line"/>
      <point x="186" y="51" type="line"/>
      <point x="186" y="279" type="line"/>
      <point x="339" y="279" type="line"/>
      <point x="482" y="0" type="line"/>
    </contour>
    <contour>
      <point x="479" y="467" type="curve" smooth="yes"/>
      <point x="479" y="381"/>
      <point x="432" y="327"/>
      <point x="318" y="327" type="curve" smooth="yes"/>
      <point x="186" y="327" type="line"/>
      <point x="186" y="599" type="line"/>
      <point x="315" y="599" type="line" smooth="yes"/>
      <point x="430" y="599"/>
      <point x="479" y="557"/>
    </contour>
  </outline>
</glyph>
<glyph name="rcaron" format="1">
  <advance width="414"/>
  <unicode hex="0159"/>
  <outline>
    <contour>
      <point x="370" y="639" type="line"/>
      <point x="347" y="667" type="line"/>
      <point x="248" y="578" type="line"/>
      <point x="144" y="667" type="line"/>
      <point x="120" y="637" type="line"/>
      <point x="237" y="522" type="line"/>
      <point x="253" y="522" type="line"/>
    </contour>
    <contour>
      <point x="276" y="452" type="curve" smooth="yes"/>
      <point x="228" y="452"/>
      <point x="183" y="415"/>
      <point x="165" y="365" type="curve"/>
      <point x="165" y="444" type="line"/>
      <point x="29" y="444" type="line"/>
      <point x="29" y="397" type="line"/>
      <point x="113" y="397" type="line"/>
      <point x="113" y="46" type="line"/>
      <point x="30" y="46" type="line"/>
      <point x="30" y="0" type="line"/>
      <point x="277" y="0" type="line"/>
      <point x="277" y="46" type="line"/>
      <point x="168" y="46" type="line"/>
      <point x="168" y="273" type="line" smooth="yes"/>
      <point x="168" y="349"/>
      <point x="210" y="404"/>
      <point x="268" y="404" type="curve" smooth="yes"/>
      <point x="280" y="404"/>
      <point x="291" y="403"/>
      <point x="302" y="400" type="curve"/>
      <point x="319" y="324" type="line"/>
      <point x="365" y="330" type="line"/>
      <point x="349" y="429" type="line"/>
      <point x="329" y="447"/>
      <point x="308" y="452"/>
    </contour>
  </outline>
</glyph>
<glyph name="Scedilla" format="1">
  <advance width="526"/>
  <unicode hex="015E"/>
  <outline>
    <contour>
      <point x="380" y="-126" type="curve" smooth="yes"/>
      <point x="380" y="-81"/>
      <point x="351" y="-48"/>
      <point x="291" y="-48" type="curve" smooth="yes"/>
      <point x="283" y="-48" type="line"/>
      <point x="283" y="-9" type="line"/>
      <point x="395" y="0"/>
      <point x="480" y="64"/>
      <point x="480" y="178" type="curve" smooth="yes"/>
      <point x="480" y="322"/>
      <point x="359" y="345"/>
      <point x="270" y="366" type="curve" smooth="yes"/>
      <point x="194" y="384"/>
      <point x="116" y="402"/>
      <point x="116" y="490" type="curve" smooth="yes"/>
      <point x="116" y="566"/>
      <point x="175" y="609"/>
      <point x="264" y="609" type="curve" smooth="yes"/>
      <point x="304" y="609"/>
      <point x="351" y="604"/>
      <point x="394" y="583" type="curve"/>
      <point x="405" y="480" type="line"/>
      <point x="452" y="485" type="line"/>
      <point x="446" y="611" type="line"/>
      <point x="405" y="640"/>
      <point x="324" y="660"/>
      <point x="255" y="660" type="curve" smooth="yes"/>
      <point x="144" y="660"/>
      <point x="56" y="601"/>
      <point x="56" y="485" type="curve" smooth="yes"/>
      <point x="56" y="360"/>
      <point x="158" y="335"/>
      <point x="249" y="315" type="curve" smooth="yes"/>
      <point x="332" y="296"/>
      <point x="419" y="279"/>
      <point x="419" y="173" type="curve" smooth="yes"/>
      <point x="419" y="79"/>
      <point x="343" y="41"/>
      <point x="252" y="41" type="curve" smooth="yes"/>
      <point x="198" y="41"/>
      <point x="151" y="49"/>
      <point x="108" y="71" type="curve"/>
      <point x="112" y="153" type="line"/>
      <point x="65" y="158" type="line"/>
      <point x="53" y="39" type="line"/>
      <point x="92" y="12"/>
      <point x="160" y="-8"/>
      <point x="240" y="-10" type="curve"/>
      <point x="240" y="-79" type="line"/>
      <point x="268" y="-79" type="line" smooth="yes"/>
      <point x="300" y="-79"/>
      <point x="331" y="-84"/>
      <point x="331" y="-123" type="curve" smooth="yes"/>
      <point x="331" y="-157"/>
      <point x="307" y="-169"/>
      <point x="276" y="-169" type="curve" smooth="yes"/>
      <point x="246" y="-169"/>
      <point x="220" y="-159"/>
      <point x="203" y="-146" type="curve"/>
      <point x="187" y="-179" type="line"/>
      <point x="211" y="-200"/>
      <point x="243" y="-209"/>
      <point x="278" y="-209" type="curve" smooth="yes"/>
      <point x="334" y="-209"/>
      <point x="380" y="-184"/>
    </contour>
  </outline>
</glyph>
<glyph name="Tcaron" format="1">
  <advance width="613"/>
  <unicode hex="0164"/>
  <outline>
    <contour>
      <point x="437" y="792" type="line"/>
      <point x="420" y="822" type="line"/>
      <point x="308" y="757" type="line"/>
      <point x="192" y="819" type="line"/>
      <point x="174" y="789" type="line"/>
      <point x="297" y="705" type="line"/>
      <point x="313" y="705" type="line"/>
    </contour>
    <contour>
      <point x="591" y="458" type="line"/>
      <point x="571" y="650" type="line"/>
      <point x="40" y="650" type="line"/>
      <point x="21" y="458" type="line"/>
      <point x="72" y="454" type="line"/>
      <point x="92" y="599" type="line"/>
      <point x="277" y="599" type="line"/>
      <point x="277" y="51" type="line"/>
      <point x="162" y="51" type="line"/>
      <point x="162" y="0" type="line"/>
      <point x="451" y="0" type="line"/>
      <point x="451" y="51" type="line"/>
      <point x="334" y="51" type="line"/>
      <point x="334" y="599" type="line"/>
      <point x="519" y="599" type="line"/>
      <point x="539" y="454" type="line"/>
    </contour>
  </outline>
</glyph>
<glyph name="uring" format="1">
  <advance width="556"/>
  <unicode hex="016F"/>
  <outline>
    <contour>
      <point x="359" y="607" type="curve" smooth="yes"/>
      <point x="359" y="660"/>
      <point x="328" y="698"/>
      <point x="262" y="698" type="curve" smooth="yes"/>
      <point x="201" y="698"/>
      <point x="164" y="660"/>
      <point x="164" y="606" type="curve" smooth="yes"/>
      <point x="164" y="549"/>
      <point x="197" y="514"/>
      <point x="261" y="514" type="curve" smooth="yes"/>
      <point x="325" y="514"/>
      <point x="359" y="553"/>
    </contour>
    <contour>
      <point x="318" y="608" type="curve" smooth="yes"/>
      <point x="318" y="575"/>
      <point x="300" y="549"/>
      <point x="261" y="549" type="curve" smooth="yes"/>
      <point x="223" y="549"/>
      <point x="205" y="571"/>
      <point x="205" y="606" type="curve" smooth="yes"/>
      <point x="205" y="638"/>
      <point x="224" y="663"/>
      <point x="261" y="663" type="curve" smooth="yes"/>
      <point x="302" y="663"/>
      <point x="318" y="638"/>
    </contour>
    <contour>
      <point x="539" y="0" type="line"/>
      <point x="539" y="46" type="line"/>
      <point x="456" y="46" type="line"/>
      <point x="456" y="444" type="line"/>
      <point x="303" y="444" type="line"/>
      <point x="303" y="397" type="line"/>
      <point x="401" y="397" type="line"/>
      <point x="401" y="181" type="line"/>
      <point x="398" y="117"/>
      <point x="340" y="39"/>
      <point x="260" y="39" type="curve" smooth="yes"/>
      <point x="193" y="39"/>
      <point x="145" y="75"/>
      <point x="145" y="176" type="curve" smooth="yes"/>
      <point x="145" y="444" type="line"/>
      <point x="8" y="444" type="line"/>
      <point x="8" y="397" type="line"/>
      <point x="90" y="397" type="line"/>
      <point x="90" y="163" type="line" smooth="yes"/>
      <point x="90" y="41"/>
      <point x="156" y="-10"/>
      <point x="244" y="-10" type="curve" smooth="yes"/>
      <point x="316" y="-10"/>
      <point x="373" y="30"/>
      <point x="401" y="88" type="curve"/>
      <point x="401" y="0" type="line"/>
    </contour>
  </outline>
</glyph>
<glyph name="Uogonek" format="1">
  <advance width="719"/>
  <unicode hex="0172"/>
  <outline>
    <contour>
      <point x="678" y="599" type="line"/>
      <point x="678" y="650" type="line"/>
      <point x="462" y="650" type="line"/>
      <point x="462" y="599" type="line"/>
      <point x="559" y="599" type="line"/>
      <point x="559" y="266" type="line" smooth="yes"/>
      <point x="559" y="116"/>
      <point x="487" y="42"/>
      <point x="361" y="42" type="curve" smooth="yes"/>
      <point x="231" y="42"/>
      <point x="166" y="119"/>
      <point x="166" y="257" type="curve" smooth="yes"/>
      <point x="166" y="599" type="line"/>
      <point x="260" y="599" type="line"/>
      <point x="260" y="650" type="line"/>
      <point x="39" y="650" type="line"/>
      <point x="39" y="599" type="line"/>
      <point x="109" y="599" type="line"/>
      <point x="109" y="255" type="line" smooth="yes"/>
      <point x="109" y="115"/>
      <point x="166" y="-10"/>
      <point x="358" y="-10" type="curve" smooth="yes"/>
      <point x="360" y="-10" type="line"/>
      <point x="326" y="-35"/>
      <point x="302" y="-73"/>
      <point x="302" y="-118" type="curve" smooth="yes"/>
      <point x="302" y="-174"/>
      <point x="341" y="-209"/>
      <point x="403" y="-209" type="curve" smooth="yes"/>
      <point x="432" y="-209"/>
      <point x="457" y="-201"/>
      <point x="479" y="-189" type="curve"/>
      <point x="470" y="-149" type="line"/>
      <point x="451" y="-161"/>
      <point x="433" y="-165"/>
      <point x="414" y="-165" type="curve" smooth="yes"/>
      <point x="377" y="-165"/>
      <point x="352" y="-149"/>
      <point x="352" y="-106" type="curve" smooth="yes"/>
      <point x="352" y="-71"/>
      <point x="367" y="-35"/>
      <point x="412" y="-6" type="curve"/>
      <point x="567" y="17"/>
      <point x="614" y="141"/>
      <point x="614" y="266" type="curve" smooth="yes"/>
      <point x="614" y="599" type="line"/>
    </contour>
  </outline>
</glyph>
<glyph name="uogonek" format="1">
  <advance width="556"/>
  <unicode hex="0173"/>
  <outline>
    <contour>
      <point x="539" y="0" type="line"/>
      <point x="539" y="46" type="line"/>
      <point x="456" y="46" type="line"/>
      <point x="456" y="444" type="line"/>
      <point x="303" y="444" type="line"/>
      <point x="303" y="397" type="line"/>
      <point x="401" y="397" type="line"/>
      <point x="401" y="181" type="line"/>
      <point x="398" y="117"/>
      <point x="340" y="39"/>
      <point x="260" y="39" type="curve" smooth="yes"/>
      <point x="193" y="39"/>
      <point x="145" y="75"/>
      <point x="145" y="176" type="curve" smooth="yes"/>
      <point x="145" y="444" type="line"/>
      <point x="8" y="444" type="line"/>
      <point x="8" y="397" type="line"/>
      <point x="90" y="397" type="line"/>
      <point x="90" y="163" type="line" smooth="yes"/>
      <point x="90" y="41"/>
      <point x="156" y="-10"/>
      <point x="244" y="-10" type="curve" smooth="yes"/>
      <point x="316" y="-10"/>
      <point x="373" y="30"/>
      <point x="401" y="88" type="curve"/>
      <point x="401" y="0" type="line"/>
      <point x="447" y="0" type="line"/>
      <point x="406" y="-25"/>
      <point x="375" y="-67"/>
      <point x="375" y="-118" type="curve" smooth="yes"/>
      <point x="375" y="-174"/>
      <point x="414" y="-209"/>
      <point x="476" y="-209" type="curve" smooth="yes"/>
      <point x="505" y="-209"/>
      <point x="530" y="-201"/>
      <point x="552" y="-189" type="curve"/>
      <point x="543" y="-149" type="line"/>
      <point x="524" y="-161"/>
      <point x="506" y="-165"/>
      <point x="487" y="-165" type="curve" smooth="yes"/>
      <point x="450" y="-165"/>
      <point x="425" y="-149"/>
      <point x="425" y="-106" type="curve" smooth="yes"/>
      <point x="425" y="-69"/>
      <point x="443" y="-31"/>
      <point x="495" y="0" type="curve"/>
    </contour>
  </outline>
</glyph>
<glyph name="Wcircumflex" format="1">
  <advance width="920"/>
  <unicode hex="0174"/>
  <outline>
    <contour>
      <point x="916" y="599" type="line"/>
      <point x="916" y="650" type="line"/>
      <point x="702" y="650" type="line"/>
      <point x="702" y="599" type="line"/>
      <point x="803" y="599" type="line"/>
      <point x="666" y="89" type="line"/>
      <point x="662" y="89" type="line"/>
      <point x="501" y="599" type="line"/>
      <point x="571" y="599" type="line"/>
      <point x="571" y="650" type="line"/>
      <point x="356" y="650" type="line"/>
      <point x="356" y="599" type="line"/>
      <point x="425" y="599" type="line"/>
      <point x="266" y="91" type="line"/>
      <point x="262" y="91" type="line"/>
      <point x="115" y="599" type="line"/>
      <point x="215" y="599" type="line"/>
      <point x="215" y="650" type="line"/>
      <point x="-1" y="650" type="line"/>
      <point x="-1" y="599" type="line"/>
      <point x="54" y="599" type="line"/>
      <point x="238" y="0" type="line"/>
      <point x="288" y="0" type="line"/>
      <point x="459" y="547" type="line"/>
      <point x="463" y="547" type="line"/>
      <point x="638" y="0" type="line"/>
      <point x="688" y="0" type="line"/>
      <point x="860" y="599" type="line"/>
    </contour>
    <contour>
      <point x="596" y="737" type="line"/>
      <point x="473" y="822" type="line"/>
      <point x="458" y="822" type="line"/>
      <point x="333" y="733" type="line"/>
      <point x="350" y="705" type="line"/>
      <point x="463" y="769" type="line"/>
      <point x="579" y="706" type="line"/>
    </contour>
  </outline>
</glyph>
<glyph name="wcircumflex" format="1">
  <advance width="766"/>
  <unicode hex="0175"/>
  <outline>
    <contour>
      <point x="512" y="552" type="line"/>
      <point x="395" y="667" type="line"/>
      <point x="380" y="667" type="line"/>
      <point x="262" y="549" type="line"/>
      <point x="285" y="522" type="line"/>
      <point x="383" y="611" type="line"/>
      <point x="488" y="522" type="line"/>
    </contour>
    <contour>
      <point x="757" y="397" type="line"/>
      <point x="757" y="444" type="line"/>
      <point x="561" y="444" type="line"/>
      <point x="561" y="397" type="line"/>
      <point x="648" y="397" type="line"/>
      <point x="554" y="87" type="line"/>
      <point x="549" y="87" type="line"/>
      <point x="406" y="444" type="line"/>
      <point x="367" y="444" type="line"/>
      <point x="228" y="88" type="line"/>
      <point x="224" y="88" type="line"/>
      <point x="121" y="397" type="line"/>
      <point x="212" y="397" type="line"/>
      <point x="212" y="444" type="line"/>
      <point x="10" y="444" type="line"/>
      <point x="10" y="397" type="line"/>
      <point x="61" y="397" type="line"/>
      <point x="200" y="0" type="line"/>
      <point x="241" y="0" type="line"/>
      <point x="382" y="358" type="line"/>
      <point x="386" y="358" type="line"/>
      <point x="527" y="0" type="line"/>
      <point x="570" y="0" type="line"/>
      <point x="703" y="397" type="line"/>
    </contour>
  </outline>
</glyph>
<glyph name="Ycircumflex" format="1">
  <advance width="604"/>
  <unicode hex="0176"/>
  <outline>
    <contour>
      <point x="603" y="599" type="line"/>
      <point x="603" y="650" type="line"/>
      <point x="383" y="650" type="line"/>
      <point x="383" y="599" type="line"/>
      <point x="480" y="599" type="line"/>
      <point x="308" y="301" type="line"/>
      <point x="303" y="301" type="line"/>
      <point x="124" y="599" type="line"/>
      <point x="222" y="599" type="line"/>
      <point x="222" y="650" type="line"/>
      <point x="-6" y="650" type="line"/>
      <point x="-6" y="599" type="line"/>
      <point x="60" y="599" type="line"/>
      <point x="275" y="247" type="line"/>
      <point x="275" y="51" type="line"/>
      <point x="160" y="51" type="line"/>
      <point x="160" y="0" type="line"/>
      <point x="448" y="0" type="line"/>
      <point x="448" y="51" type="line"/>
      <point x="331" y="51" type="line"/>
      <point x="331" y="247" type="line"/>
      <point x="537" y="599" type="line"/>
    </contour>
    <contour>
      <point x="439" y="737" type="line"/>
      <point x="316" y="822" type="line"/>
      <point x="301" y="822" type="line"/>
      <point x="176" y="733" type="line"/>
      <point x="193" y="705" type="line"/>
      <point x="306" y="769" type="line"/>
      <point x="422" y="706" type="line"/>
    </contour>
  </outline>
</glyph>
<glyph name="ycircumflex" format="1">
  <advance width="506"/>
  <unicode hex="0177"/>
  <outline>
    <contour>
      <point x="497" y="397" type="line"/>
      <point x="497" y="444" type="line"/>
      <point x="303" y="444" type="line"/>
      <point x="303" y="397" type="line"/>
      <point x="384" y="397" type="line"/>
      <point x="262" y="74" type="line"/>
      <point x="256" y="74" type="line"/>
      <point x="122" y="397" type="line"/>
      <point x="209" y="397" type="line"/>
      <point x="209" y="444" type="line"/>
      <point x="9" y="444" type="line"/>
      <point x="9" y="397" type="line"/>
      <point x="64" y="397" type="line"/>
      <point x="227" y="3" type="line"/>
      <point x="163" y="-167" type="line"/>
      <point x="77" y="-167" type="line"/>
      <point x="77" y="-213" type="line"/>
      <point x="297" y="-213" type="line"/>
      <point x="297" y="-167" type="line"/>
      <point x="216" y="-167" type="line"/>
      <point x="281" y="0" type="line"/>
      <point x="441" y="397" type="line"/>
    </contour>
    <contour>
      <point x="385" y="552" type="line"/>
      <point x="268" y="667" type="line"/>
      <point x="253" y="667" type="line"/>
      <point x="135" y="549" type="line"/>
      <point x="158" y="522" type="line"/>
      <point x="256" y="611" type="line"/>
      <point x="361" y="522" type="line"/>
    </contour>
  </outline>
</glyph>
<glyph name="Ydieresis" format="1">
  <advance width="604"/>
  <unicode hex="0178"/>
  <outline>
    <contour>
      <point x="603" y="599" type="line"/>
      <point x="603" y="650" type="line"/>
      <point x="383" y="650" type="line"/>
      <point x="383" y="599" type="line"/>
      <point x="480" y="599" type="line"/>
      <point x="308" y="301" type="line"/>
      <point x="303" y="301" type="line"/>
      <point x="124" y="599" type="line"/>
      <point x="222" y="599" type="line"/>
      <point x="222" y="650" type="line"/>
      <point x="-6" y="650" type="line"/>
      <point x="-6" y="599" type="line"/>
      <point x="60" y="599" type="line"/>
      <point x="275" y="247" type="line"/>
      <point x="275" y="51" type="line"/>
      <point x="160" y="51" type="line"/>
      <point x="160" y="0" type="line"/>
      <point x="448" y="0" type="line"/>
      <point x="448" y="51" type="line"/>
      <point x="331" y="51" type="line"/>
      <point x="331" y="247" type="line"/>
      <point x="537" y="599" type="line"/>
    </contour>
    <contour>
      <point x="186" y="722" type="line"/>
      <point x="254" y="722" type="line"/>
      <point x="254" y="793" type="line"/>
      <point x="186" y="793" type="line"/>
    </contour>
    <contour>
      <point x="354" y="722" type="line"/>
      <point x="422" y="722" type="line"/>
      <point x="422" y="793" type="line"/>
      <point x="354" y="793" type="line"/>
    </contour>
  </outline>
</glyph>
<glyph name="Zdotaccent" format="1">
  <advance width="574"/>
  <unicode hex="017B"/>
  <outline>
    <contour>
      <point x="259" y="722" type="line"/>
      <point x="327" y="722" type="line"/>
      <point x="327" y="793" type="line"/>
      <point x="259" y="793" type="line"/>
    </contour>
    <contour>
      <point x="504" y="0" type="line"/>
      <point x="532" y="185" type="line"/>
      <point x="482" y="194" type="line"/>
      <point x="452" y="51" type="line"/>
      <point x="114" y="51" type="line"/>
      <point x="114" y="54" type="line"/>
      <point x="513" y="615" type="line"/>
      <point x="512" y="650" type="line"/>
      <point x="74" y="650" type="line"/>
      <point x="47" y="466" type="line"/>
      <point x="95" y="458" type="line"/>
      <point x="125" y="599" type="line"/>
      <point x="433" y="599" type="line"/>
      <point x="433" y="596" type="line"/>
      <point x="35" y="37" type="line"/>
      <point x="37" y="0" type="line"/>
    </contour>
  </outline>
</glyph>
<glyph name="zdotaccent" format="1">
  <advance width="461"/>
  <unicode hex="017C"/>
  <outline>
    <contour>
      <point x="409" y="0" type="line"/>
      <point x="431" y="133" type="line"/>
      <point x="387" y="141" type="line"/>
      <point x="363" y="46" type="line"/>
      <point x="112" y="46" type="line"/>
      <point x="402" y="408" type="line"/>
      <point x="401" y="444" type="line"/>
      <point x="53" y="444" type="line"/>
      <point x="42" y="309" type="line"/>
      <point x="88" y="303" type="line"/>
      <point x="99" y="397" type="line"/>
      <point x="330" y="397" type="line"/>
      <point x="39" y="36" type="line"/>
      <point x="40" y="0" type="line"/>
    </contour>
    <contour>
      <point x="206" y="559" type="line"/>
      <point x="268" y="559" type="line"/>
      <point x="268" y="638" type="line"/>
      <point x="206" y="638" type="line"/>
    </contour>
  </outline>
</glyph>
<glyph name="Zcaron" format="1">
  <advance width="574"/>
  <unicode hex="017D"/>
  <outline>
    <contour>
      <point x="422" y="792" type="line"/>
      <point x="405" y="822" type="line"/>
      <point x="293" y="757" type="line"/>
      <point x="177" y="819" type="line"/>
      <point x="159" y="789" type="line"/>
      <point x="282" y="705" type="line"/>
      <point x="298" y="705" type="line"/>
    </contour>
    <contour>
      <point x="504" y="0" type="line"/>
      <point x="532" y="185" type="line"/>
      <point x="482" y="194" type="line"/>
      <point x="452" y="51" type="line"/>
      <point x="114" y="51" type="line"/>
      <point x="114" y="54" type="line"/>
      <point x="513" y="615" type="line"/>
      <point x="512" y="650" type="line"/>
      <point x="74" y="650" type="line"/>
      <point x="47" y="466" type="line"/>
      <point x="95" y="458" type="line"/>
      <point x="125" y="599" type="line"/>
      <point x="433" y="599" type="line"/>
      <point x="433" y="596" type="line"/>
      <point x="35" y="37" type="line"/>
      <point x="37" y="0" type="line"/>
    </contour>
  </outline>
</glyph>
<glyph name="uni018F" format="1">
  <advance width="683"/>
  <unicode hex="018F"/>
  <outline>
    <contour>
      <point x="114" y="435" type="line"/>
      <point x="127" y="548" type="line"/>
      <point x="182" y="586"/>
      <point x="260" y="608"/>
      <point x="341" y="608" type="curve" smooth="yes"/>
      <point x="493" y="608"/>
      <point x="570" y="497"/>
      <point x="577" y="340" type="curve"/>
      <point x="47" y="340" type="line"/>
      <point x="47" y="285" type="line" smooth="yes"/>
      <point x="47" y="103"/>
      <point x="158" y="-10"/>
      <point x="334" y="-10" type="curve" smooth="yes"/>
      <point x="537" y="-10"/>
      <point x="638" y="143"/>
      <point x="638" y="321" type="curve" smooth="yes"/>
      <point x="638" y="511"/>
      <point x="532" y="660"/>
      <point x="347" y="660" type="curve" smooth="yes"/>
      <point x="231" y="660"/>
      <point x="133" y="622"/>
      <point x="73" y="566" type="curve"/>
      <point x="67" y="440" type="line"/>
    </contour>
    <contour>
      <point x="577" y="292" type="line"/>
      <point x="569" y="155"/>
      <point x="499" y="42"/>
      <point x="336" y="42" type="curve" smooth="yes"/>
      <point x="177" y="42"/>
      <point x="108" y="149"/>
      <point x="108" y="285" type="curve" smooth="yes"/>
      <point x="108" y="292" type="line"/>
    </contour>
  </outline>
</glyph>
<glyph name="uni01C6" format="1">
  <advance width="1005"/>
  <unicode hex="01C6"/>
  <outline>
    <contour>
      <point x="906" y="639" type="line"/>
      <point x="883" y="667" type="line"/>
      <point x="784" y="578" type="line"/>
      <point x="680" y="667" type="line"/>
      <point x="656" y="637" type="line"/>
      <point x="773" y="522" type="line"/>
      <point x="789" y="522" type="line"/>
    </contour>
    <contour>
      <point x="953" y="0" type="line"/>
      <point x="975" y="133" type="line"/>
      <point x="931" y="141" type="line"/>
      <point x="907" y="46" type="line"/>
      <point x="656" y="46" type="line"/>
      <point x="946" y="408" type="line"/>
      <point x="945" y="444" type="line"/>
      <point x="597" y="444" type="line"/>
      <point x="586" y="309" type="line"/>
      <point x="632" y="303" type="line"/>
      <point x="643" y="397" type="line"/>
      <point x="874" y="397" type="line"/>
      <point x="583" y="36" type="line"/>
      <point x="584" y="0" type="line"/>
    </contour>
    <contour>
      <point x="530" y="0" type="line"/>
      <point x="530" y="46" type="line"/>
      <point x="448" y="46" type="line"/>
      <point x="448" y="688" type="line"/>
      <point x="281" y="688" type="line"/>
      <point x="281" y="642" type="line"/>
      <point x="393" y="642" type="line"/>
      <point x="393" y="371" type="line"/>
      <point x="363" y="424"/>
      <point x="306" y="453"/>
      <point x="243" y="453" type="curve" smooth="yes"/>
      <point x="95" y="453"/>
      <point x="42" y="325"/>
      <point x="42" y="209" type="curve" smooth="yes"/>
      <point x="42" y="71"/>
      <point x="119" y="-10"/>
      <point x="233" y="-10" type="curve" smooth="yes"/>
      <point x="314" y="-10"/>
      <point x="364" y="38"/>
      <point x="393" y="92" type="curve"/>
      <point x="393" y="0" type="line"/>
    </contour>
    <contour>
      <point x="393" y="189" type="line"/>
      <point x="390" y="122"/>
      <point x="327" y="39"/>
      <point x="244" y="39" type="curve" smooth="yes"/>
      <point x="161" y="39"/>
      <point x="100" y="99"/>
      <point x="100" y="213" type="curve" smooth="yes"/>
      <point x="100" y="308"/>
      <point x="142" y="404"/>
      <point x="252" y="404" type="curve" smooth="yes"/>
      <point x="327" y="404"/>
      <point x="390" y="349"/>
      <point x="393" y="276" type="curve"/>
    </contour>
  </outline>
</glyph>
<glyph name="uni01C7" format="1">
  <advance width="988"/>
  <unicode hex="01C7"/>
  <outline>
    <contour>
      <point x="948" y="599" type="line"/>
      <point x="948" y="650" type="line"/>
      <point x="683" y="650" type="line"/>
      <point x="683" y="599" type="line"/>
      <point x="816" y="599" type="line"/>
      <point x="816" y="161" type="line" smooth="yes"/>
      <point x="816" y="90"/>
      <point x="785" y="44"/>
      <point x="709" y="44" type="curve" smooth="yes"/>
      <point x="662" y="44"/>
      <point x="631" y="62"/>
      <point x="602" y="114" type="curve"/>
      <point x="560" y="82" type="line"/>
      <point x="588" y="26"/>
      <point x="635" y="-10"/>
      <point x="714" y="-10" type="curve" smooth="yes"/>
      <point x="815" y="-10"/>
      <point x="873" y="47"/>
      <point x="873" y="161" type="curve" smooth="yes"/>
      <point x="873" y="599" type="line"/>
    </contour>
    <contour>
      <point x="507" y="0" type="line"/>
      <point x="527" y="202" type="line"/>
      <point x="475" y="206" type="line"/>
      <point x="455" y="51" type="line"/>
      <point x="185" y="51" type="line"/>
      <point x="185" y="599" type="line"/>
      <point x="298" y="599" type="line"/>
      <point x="298" y="650" type="line"/>
      <point x="43" y="650" type="line"/>
      <point x="43" y="599" type="line"/>
      <point x="128" y="599" type="line"/>
      <point x="128" y="51" type="line"/>
      <point x="43" y="51" type="line"/>
      <point x="43" y="0" type="line"/>
    </contour>
  </outline>
</glyph>
<glyph name="uni01CA" format="1">
  <advance width="1172"/>
  <unicode hex="01CA"/>
  <outline>
    <contour>
      <point x="1131" y="599" type="line"/>
      <point x="1131" y="650" type="line"/>
      <point x="866" y="650" type="line"/>
      <point x="866" y="599" type="line"/>
      <point x="999" y="599" type="line"/>
      <point x="999" y="161" type="line" smooth="yes"/>
      <point x="999" y="90"/>
      <point x="968" y="44"/>
      <point x="892" y="44" type="curve" smooth="yes"/>
      <point x="845" y="44"/>
      <point x="814" y="62"/>
      <point x="785" y="114" type="curve"/>
      <point x="743" y="82" type="line"/>
      <point x="771" y="26"/>
      <point x="818" y="-10"/>
      <point x="897" y="-10" type="curve" smooth="yes"/>
      <point x="998" y="-10"/>
      <point x="1056" y="47"/>
      <point x="1056" y="161" type="curve" smooth="yes"/>
      <point x="1056" y="599" type="line"/>
    </contour>
    <contour>
      <point x="695" y="599" type="line"/>
      <point x="695" y="650" type="line"/>
      <point x="457" y="650" type="line"/>
      <point x="457" y="599" type="line"/>
      <point x="556" y="599" type="line"/>
      <point x="556" y="118" type="line"/>
      <point x="552" y="118" type="line"/>
      <point x="171" y="650" type="line"/>
      <point x="41" y="650" type="line"/>
      <point x="41" y="599" type="line"/>
      <point x="128" y="599" type="line"/>
      <point x="128" y="51" type="line"/>
      <point x="51" y="51" type="line"/>
      <point x="51" y="0" type="line"/>
      <point x="290" y="0" type="line"/>
      <point x="290" y="51" type="line"/>
      <point x="183" y="51" type="line"/>
      <point x="183" y="538" type="line"/>
      <point x="187" y="538" type="line"/>
      <point x="572" y="0" type="line"/>
      <point x="611" y="0" type="line"/>
      <point x="611" y="599" type="line"/>
    </contour>
  </outline>
</glyph>
<glyph name="uni01F2" format="1">
  <advance width="1167"/>
  <unicode hex="01F2"/>
  <outline>
    <contour>
      <point x="1115" y="0" type="line"/>
      <point x="1137" y="133" type="line"/>
      <point x="1093" y="141" type="line"/>
      <point x="1069" y="46" type="line"/>
      <point x="818" y="46" type="line"/>
      <point x="1108" y="408" type="line"/>
      <point x="1107" y="444" type="line"/>
      <point x="759" y="444" type="line"/>
      <point x="748" y="309" type="line"/>
      <point x="794" y="303" type="line"/>
      <point x="805" y="397" type="line"/>
      <point x="1036" y="397" type="line"/>
      <point x="745" y="36" type="line"/>
      <point x="746" y="0" type="line"/>
    </contour>
    <contour>
      <point x="663" y="325" type="curve" smooth="yes"/>
      <point x="663" y="512"/>
      <point x="541" y="650"/>
      <point x="332" y="650" type="curve" smooth="yes"/>
      <point x="43" y="650" type="line"/>
      <point x="43" y="600" type="line"/>
      <point x="128" y="600" type="line"/>
      <point x="128" y="50" type="line"/>
      <point x="43" y="50" type="line"/>
      <point x="43" y="0" type="line"/>
      <point x="334" y="0" type="line" smooth="yes"/>
      <point x="539" y="0"/>
      <point x="663" y="136"/>
    </contour>
    <contour>
      <point x="602" y="325" type="curve" smooth="yes"/>
      <point x="602" y="161"/>
      <point x="507" y="50"/>
      <point x="331" y="50" type="curve" smooth="yes"/>
      <point x="185" y="50" type="line"/>
      <point x="185" y="600" type="line"/>
      <point x="331" y="600" type="line" smooth="yes"/>
      <point x="507" y="600"/>
      <point x="602" y="486"/>
    </contour>
  </outline>
</glyph>
<glyph name="oslashacute" format="1">
  <advance width="514"/>
  <unicode hex="01FF"/>
  <outline>
    <contour>
      <point x="471" y="222" type="curve" smooth="yes"/>
      <point x="471" y="284"/>
      <point x="453" y="340"/>
      <point x="419" y="382" type="curve"/>
      <point x="471" y="444" type="line"/>
      <point x="416" y="444" type="line"/>
      <point x="388" y="411" type="line"/>
      <point x="355" y="437"/>
      <point x="311" y="453"/>
      <point x="258" y="453" type="curve" smooth="yes"/>
      <point x="118" y="453"/>
      <point x="43" y="348"/>
      <point x="43" y="219" type="curve" smooth="yes"/>
      <point x="43" y="156"/>
      <point x="61" y="101"/>
      <point x="94" y="60" type="curve"/>
      <point x="43" y="0" type="line"/>
      <point x="97" y="0" type="line"/>
      <point x="123" y="31" type="line"/>
      <point x="157" y="5"/>
      <point x="201" y="-10"/>
      <point x="254" y="-10" type="curve" smooth="yes"/>
      <point x="389" y="-10"/>
      <point x="471" y="89"/>
    </contour>
    <contour>
      <point x="412" y="223" type="curve" smooth="yes"/>
      <point x="412" y="119"/>
      <point x="358" y="39"/>
      <point x="256" y="39" type="curve" smooth="yes"/>
      <point x="216" y="39"/>
      <point x="183" y="51"/>
      <point x="158" y="73" type="curve"/>
      <point x="382" y="338" type="line"/>
      <point x="402" y="307"/>
      <point x="412" y="268"/>
    </contour>
    <contour>
      <point x="101" y="222" type="curve" smooth="yes"/>
      <point x="101" y="325"/>
      <point x="155" y="404"/>
      <point x="256" y="404" type="curve" smooth="yes"/>
      <point x="296" y="404"/>
      <point x="329" y="391"/>
      <point x="354" y="370" type="curve"/>
      <point x="131" y="105" type="line"/>
      <point x="111" y="136"/>
      <point x="101" y="177"/>
    </contour>
    <contour>
      <point x="423" y="631" type="line"/>
      <point x="390" y="678" type="line"/>
      <point x="238" y="550" type="line"/>
      <point x="256" y="523" type="line"/>
    </contour>
  </outline>
</glyph>
<glyph name="uni021B" format="1">
  <advance width="364"/>
  <unicode hex="021B"/>
  <outline>
    <contour>
      <point x="255" y="-66" type="line"/>
      <point x="203" y="-66" type="line"/>
      <point x="193" y="-219" type="line"/>
      <point x="239" y="-219" type="line"/>
    </contour>
    <contour>
      <point x="356" y="115" type="curve"/>
      <point x="313" y="129" type="line"/>
      <point x="299" y="55"/>
      <point x="266" y="39"/>
      <point x="227" y="39" type="curve" smooth="yes"/>
      <point x="167" y="39"/>
      <point x="146" y="78"/>
      <point x="146" y="136" type="curve" smooth="yes"/>
      <point x="146" y="397" type="line"/>
      <point x="323" y="397" type="line"/>
      <point x="323" y="444" type="line"/>
      <point x="146" y="444" type="line"/>
      <point x="146" y="588" type="line"/>
      <point x="91" y="588" type="line"/>
      <point x="91" y="444" type="line"/>
      <point x="18" y="444" type="line"/>
      <point x="18" y="397" type="line"/>
      <point x="91" y="397" type="line"/>
      <point x="91" y="130" type="line" smooth="yes"/>
      <point x="91" y="44"/>
      <point x="135" y="-10"/>
      <point x="221" y="-10" type="curve" smooth="yes"/>
      <point x="298" y="-10"/>
      <point x="343" y="34"/>
    </contour>
  </outline>
</glyph>
<glyph name="caron" format="1">
  <advance width="338"/>
  <unicode hex="02C7"/>
  <outline>
    <contour>
      <point x="311" y="639" type="line"/>
      <point x="288" y="667" type="line"/>
      <point x="189" y="578" type="line"/>
      <point x="85" y="667" type="line"/>
      <point x="61" y="637" type="line"/>
      <point x="178" y="522" type="line"/>
      <point x="194" y="522" type="line"/>
    </contour>
  </outline>
</glyph>
<glyph name="breve" format="1">
  <advance width="399"/>
  <unicode hex="02D8"/>
  <outline>
    <contour>
      <point x="315" y="655" type="curve"/>
      <point x="268" y="655" type="line"/>
      <point x="268" y="600"/>
      <point x="246" y="577"/>
      <point x="198" y="577" type="curve" smooth="yes"/>
      <point x="153" y="577"/>
      <point x="127" y="597"/>
      <point x="127" y="655" type="curve"/>
      <point x="80" y="655" type="line"/>
      <point x="80" y="577"/>
      <point x="118" y="537"/>
      <point x="197" y="537" type="curve" smooth="yes"/>
      <point x="276" y="537"/>
      <point x="315" y="576"/>
    </contour>
  </outline>
</glyph>
<glyph name="dotaccent" format="1">
  <advance width="204"/>
  <unicode hex="02D9"/>
  <outline>
    <contour>
      <point x="71" y="559" type="line"/>
      <point x="133" y="559" type="line"/>
      <point x="133" y="638" type="line"/>
      <point x="71" y="638" type="line"/>
    </contour>
  </outline>
</glyph>
<glyph name="ring" format="1">
  <advance width="260"/>
  <unicode hex="02DA"/>
  <outline>
    <contour>
      <point x="228" y="607" type="curve" smooth="yes"/>
      <point x="228" y="660"/>
      <point x="197" y="698"/>
      <point x="131" y="698" type="curve" smooth="yes"/>
      <point x="70" y="698"/>
      <point x="33" y="660"/>
      <point x="33" y="606" type="curve" smooth="yes"/>
      <point x="33" y="549"/>
      <point x="66" y="514"/>
      <point x="130" y="514" type="curve" smooth="yes"/>
      <point x="194" y="514"/>
      <point x="228" y="553"/>
    </contour>
    <contour>
      <point x="187" y="608" type="curve" smooth="yes"/>
      <point x="187" y="575"/>
      <point x="169" y="549"/>
      <point x="130" y="549" type="curve" smooth="yes"/>
      <point x="92" y="549"/>
      <point x="74" y="571"/>
      <point x="74" y="606" type="curve" smooth="yes"/>
      <point x="74" y="638"/>
      <point x="93" y="663"/>
      <point x="130" y="663" type="curve" smooth="yes"/>
      <point x="171" y="663"/>
      <point x="187" y="638"/>
    </contour>
  </outline>
</glyph>
<glyph name="tilde" format="1">
  <advance width="374"/>
  <unicode hex="02DC"/>
  <outline>
    <contour>
      <point x="313" y="646" type="curve"/>
      <point x="282" y="654" type="line"/>
      <point x="271" y="616"/>
      <point x="253" y="611"/>
      <point x="235" y="611" type="curve" smooth="yes"/>
      <point x="184" y="611"/>
      <point x="159" y="648"/>
      <point x="115" y="648" type="curve" smooth="yes"/>
      <point x="68" y="648"/>
      <point x="41" y="603"/>
      <point x="34" y="569" type="curve"/>
      <point x="63" y="558" type="line"/>
      <point x="74" y="591"/>
      <point x="97" y="601"/>
      <point x="116" y="601" type="curve" smooth="yes"/>
      <point x="152" y="601"/>
      <point x="186" y="563"/>
      <point x="238" y="563" type="curve" smooth="yes"/>
      <point x="279" y="563"/>
      <point x="302" y="593"/>
    </contour>
  </outline>
</glyph>
<glyph name="dotbelowcmb" format="1">
  <advance width="833"/>
  <unicode hex="0323"/>
  <outline>
    <contour>
      <point x="103" y="-168" type="line"/>
      <point x="165" y="-168" type="line"/>
      <point x="165" y="-89" type="line"/>
      <point x="103" y="-89" type="line"/>
    </contour>
  </outline>
</glyph>
<glyph name="uni1EBC" format="1">
  <advance width="588"/>
  <unicode hex="1EBC"/>
  <outline>
    <contour>
      <point x="466" y="792" type="curve"/>
      <point x="435" y="800" type="line"/>
      <point x="423" y="762"/>
      <point x="406" y="757"/>
      <point x="388" y="757" type="curve" smooth="yes"/>
      <point x="337" y="757"/>
      <point x="312" y="793"/>
      <point x="268" y="793" type="curve" smooth="yes"/>
      <point x="221" y="793"/>
      <point x="194" y="752"/>
      <point x="187" y="719" type="curve"/>
      <point x="216" y="707" type="line"/>
      <point x="227" y="740"/>
      <point x="249" y="748"/>
      <point x="268" y="748" type="curve" smooth="yes"/>
      <point x="305" y="748"/>
      <point x="339" y="712"/>
      <point x="390" y="712" type="curve" smooth="yes"/>
      <point x="432" y="712"/>
      <point x="454" y="739"/>
    </contour>
    <contour>
      <point x="522" y="0" type="line"/>
      <point x="541" y="183" type="line"/>
      <point x="491" y="188" type="line"/>
      <point x="471" y="51" type="line"/>
      <point x="185" y="51" type="line"/>
      <point x="185" y="305" type="line"/>
      <point x="500" y="305" type="line"/>
      <point x="500" y="356" type="line"/>
      <point x="185" y="356" type="line"/>
      <point x="185" y="599" type="line"/>
      <point x="461" y="599" type="line"/>
      <point x="481" y="462" type="line"/>
      <point x="532" y="468" type="line"/>
      <point x="512" y="650" type="line"/>
      <point x="43" y="650" type="line"/>
      <point x="43" y="599" type="line"/>
      <point x="128" y="599" type="line"/>
      <point x="128" y="51" type="line"/>
      <point x="43" y="51" type="line"/>
      <point x="43" y="0" type="line"/>
    </contour>
  </outline>
</glyph>
<glyph name="uni1EBD" format="1">
  <advance width="467"/>
  <unicode hex="1EBD"/>
  <outline>
    <contour>
      <point x="427" y="124" type="curve"/>
      <point x="381" y="135" type="line"/>
      <point x="365" y="73"/>
      <point x="321" y="39"/>
      <point x="251" y="39" type="curve" smooth="yes"/>
      <point x="157" y="39"/>
      <point x="103" y="101"/>
      <point x="100" y="208" type="curve"/>
      <point x="418" y="208" type="line"/>
      <point x="421" y="225"/>
      <point x="423" y="242"/>
      <point x="423" y="258" type="curve" smooth="yes"/>
      <point x="423" y="360"/>
      <point x="362" y="453"/>
      <point x="241" y="453" type="curve" smooth="yes"/>
      <point x="119" y="453"/>
      <point x="42" y="354"/>
      <point x="42" y="216" type="curve" smooth="yes"/>
      <point x="42" y="74"/>
      <point x="123" y="-10"/>
      <point x="247" y="-10" type="curve" smooth="yes"/>
      <point x="351" y="-10"/>
      <point x="414" y="49"/>
    </contour>
    <contour>
      <point x="365" y="254" type="curve"/>
      <point x="101" y="254" type="line"/>
      <point x="110" y="334"/>
      <point x="149" y="404"/>
      <point x="238" y="404" type="curve" smooth="yes"/>
      <point x="332" y="404"/>
      <point x="372" y="325"/>
    </contour>
    <contour>
      <point x="374" y="646" type="curve"/>
      <point x="343" y="654" type="line"/>
      <point x="332" y="616"/>
      <point x="314" y="611"/>
      <point x="296" y="611" type="curve" smooth="yes"/>
      <point x="245" y="611"/>
      <point x="220" y="648"/>
      <point x="176" y="648" type="curve" smooth="yes"/>
      <point x="129" y="648"/>
      <point x="102" y="603"/>
      <point x="95" y="569" type="curve"/>
      <point x="124" y="558" type="line"/>
      <point x="135" y="591"/>
      <point x="158" y="601"/>
      <point x="177" y="601" type="curve" smooth="yes"/>
      <point x="213" y="601"/>
      <point x="247" y="563"/>
      <point x="299" y="563" type="curve" smooth="yes"/>
      <point x="340" y="563"/>
      <point x="363" y="593"/>
    </contour>
  </outline>
</glyph>
<glyph name="uni2012" format="1">
  <advance width="347"/>
  <unicode hex="2012"/>
  <outline>
    <contour>
      <point x="347" y="275" type="line"/>
      <point x="0" y="275" type="line"/>
      <point x="0" y="227" type="line"/>
      <point x="347" y="227" type="line"/>
    </contour>
  </outline>
</glyph>
<glyph name="endash" format="1">
  <advance width="632"/>
  <unicode hex="2013"/>
  <outline>
    <contour>
      <point x="65" y="251" type="line"/>
      <point x="567" y="251" type="line"/>
      <point x="567" y="209" type="line"/>
      <point x="65" y="209" type="line"/>
    </contour>
  </outline>
</glyph>
<glyph name="emdash" format="1">
  <advance width="1092"/>
  <unicode hex="2014"/>
  <outline>
    <contour>
      <point x="82" y="251" type="line"/>
      <point x="1022" y="251" type="line"/>
      <point x="1022" y="209" type="line"/>
      <point x="82" y="209" type="line"/>
    </contour>
  </outline>
</glyph>
<glyph name="quoteright" format="1">
  <advance width="195"/>
  <unicode hex="2019"/>
  <outline>
    <contour>
      <point x="49" y="474" type="line"/>
      <point x="103" y="474" type="line"/>
      <point x="154" y="686" type="line"/>
      <point x="100" y="686" type="line"/>
    </contour>
  </outline>
</glyph>
<glyph name="daggerdbl" format="1">
  <advance width="521"/>
  <unicode hex="2021"/>
  <outline>
    <contour>
      <point x="56" y="108" type="line"/>
      <point x="235" y="108" type="line"/>
      <point x="235" y="375" type="line"/>
      <point x="56" y="375" type="line"/>
      <point x="56" y="425" type="line"/>
      <point x="235" y="425" type="line"/>
      <point x="235" y="650" type="line"/>
      <point x="286" y="650" type="line"/>
      <point x="286" y="425" type="line"/>
      <point x="466" y="425" type="line"/>
      <point x="466" y="375" type="line"/>
      <point x="286" y="375" type="line"/>
      <point x="286" y="108" type="line"/>
      <point x="466" y="108" type="line"/>
      <point x="466" y="58" type="line"/>
      <point x="286" y="58" type="line"/>
      <point x="286" y="-141" type="line"/>
      <point x="235" y="-141" type="line"/>
      <point x="235" y="58" type="line"/>
      <point x="56" y="58" type="line"/>
    </contour>
  </outline>
</glyph>
<glyph name="bullet" format="1">
  <advance width="358"/>
  <unicode hex="2022"/>
  <outline>
    <contour>
      <point x="74" y="244" type="curve" smooth="yes"/>
      <point x="74" y="185"/>
      <point x="119" y="139"/>
      <point x="178" y="139" type="curve" smooth="yes"/>
      <point x="238" y="139"/>
      <point x="285" y="185"/>
      <point x="285" y="244" type="curve" smooth="yes"/>
      <point x="285" y="303"/>
      <point x="238" y="351"/>
      <point x="178" y="351" type="curve" smooth="yes"/>
      <point x="119" y="351"/>
      <point x="74" y="303"/>
    </contour>
  </outline>
</glyph>
<glyph name="ellipsis" format="1">
  <advance width="565"/>
  <unicode hex="2026"/>
  <outline>
    <contour>
      <point x="62" y="0" type="line"/>
      <point x="145" y="0" type="line"/>
      <point x="145" y="94" type="line"/>
      <point x="62" y="94" type="line"/>
    </contour>
    <contour>
      <point x="240" y="0" type="line"/>
      <point x="323" y="0" type="line"/>
      <point x="323" y="94" type="line"/>
      <point x="240" y="94" type="line"/>
    </contour>
    <contour>
      <point x="420" y="0" type="line"/>
      <point x="503" y="0" type="line"/>
      <point x="503" y="94" type="line"/>
      <point x="420" y="94" type="line"/>
    </contour>
  </outline>
</glyph>
<glyph name="guilsinglleft" format="1">
  <advance width="283"/>
  <unicode hex="2039"/>
  <outline>
    <contour>
      <point x="231" y="25" type="line"/>
      <point x="99" y="271" type="line"/>
      <point x="231" y="511" type="line"/>
      <point x="183" y="511" type="line"/>
      <point x="45" y="271" type="line"/>
      <point x="183" y="25" type="line"/>
    </contour>
  </outline>
</glyph>
<glyph name="guilsinglright" format="1">
  <advance width="283"/>
  <unicode hex="203A"/>
  <outline>
    <contour>
      <point x="100" y="25" type="line"/>
      <point x="238" y="271" type="line"/>
      <point x="100" y="511" type="line"/>
      <point x="52" y="511" type="line"/>
      <point x="184" y="271" type="line"/>
      <point x="52" y="25" type="line"/>
    </contour>
  </outline>
</glyph>
<glyph name="i.superior" format="1">
  <advance width="201"/>
  <unicode hex="2071"/>
  <outline>
    <contour>
      <point x="29" y="451" type="line"/>
      <point x="81" y="451" type="line"/>
      <point x="81" y="668" type="line"/>
      <point x="28" y="668" type="line"/>
      <point x="28" y="704" type="line"/>
      <point x="128" y="704" type="line"/>
      <point x="128" y="451" type="line"/>
      <point x="179" y="451" type="line"/>
      <point x="179" y="415" type="line"/>
      <point x="29" y="415" type="line"/>
    </contour>
    <contour>
      <point x="76" y="787" type="line"/>
      <point x="127" y="787" type="line"/>
      <point x="127" y="841" type="line"/>
      <point x="76" y="841" type="line"/>
    </contour>
  </outline>
</glyph>
<glyph name="foursuperior" format="1">
  <advance width="352"/>
  <unicode hex="2074"/>
  <outline>
    <contour>
      <point x="213" y="414" type="line"/>
      <point x="259" y="414" type="line"/>
      <point x="259" y="510" type="line"/>
      <point x="318" y="510" type="line"/>
      <point x="322" y="545" type="line"/>
      <point x="259" y="545" type="line"/>
      <point x="259" y="779" type="line"/>
      <point x="161" y="779" type="line"/>
      <point x="24" y="546" type="line"/>
      <point x="29" y="510" type="line"/>
      <point x="213" y="510" type="line"/>
    </contour>
    <contour>
      <point x="183" y="742" type="line"/>
      <point x="213" y="742" type="line"/>
      <point x="213" y="545" type="line"/>
      <point x="68" y="545" type="line"/>
    </contour>
  </outline>
</glyph>
<glyph name="sixsuperior" format="1">
  <advance width="349"/>
  <unicode hex="2076"/>
  <outline>
    <contour>
      <point x="194" y="748" type="curve" smooth="yes"/>
      <point x="214" y="748"/>
      <point x="241" y="744"/>
      <point x="271" y="707" type="curve"/>
      <point x="297" y="735" type="line"/>
      <point x="259" y="777"/>
      <point x="216" y="785"/>
      <point x="187" y="785" type="curve" smooth="yes"/>
      <point x="92" y="785"/>
      <point x="42" y="699"/>
      <point x="42" y="581" type="curve" smooth="yes"/>
      <point x="42" y="484"/>
      <point x="76" y="409"/>
      <point x="178" y="409" type="curve" smooth="yes"/>
      <point x="266" y="409"/>
      <point x="305" y="464"/>
      <point x="305" y="532" type="curve" smooth="yes"/>
      <point x="305" y="590"/>
      <point x="276" y="641"/>
      <point x="196" y="641" type="curve" smooth="yes"/>
      <point x="135" y="641"/>
      <point x="104" y="612"/>
      <point x="92" y="581" type="curve"/>
      <point x="92" y="694"/>
      <point x="121" y="748"/>
    </contour>
    <contour>
      <point x="184" y="604" type="curve" smooth="yes"/>
      <point x="236" y="604"/>
      <point x="257" y="577"/>
      <point x="257" y="529" type="curve" smooth="yes"/>
      <point x="257" y="480"/>
      <point x="236" y="448"/>
      <point x="179" y="448" type="curve" smooth="yes"/>
      <point x="119" y="448"/>
      <point x="100" y="483"/>
      <point x="94" y="531" type="curve"/>
      <point x="96" y="563"/>
      <point x="118" y="604"/>
    </contour>
  </outline>
</glyph>
<glyph name="eightsuperior" format="1">
  <advance width="353"/>
  <unicode hex="2078"/>
  <outline>
    <contour>
      <point x="172" y="409" type="curve" smooth="yes"/>
      <point x="254" y="409"/>
      <point x="313" y="446"/>
      <point x="313" y="507" type="curve" smooth="yes"/>
      <point x="313" y="562"/>
      <point x="266" y="588"/>
      <point x="216" y="609" type="curve"/>
      <point x="261" y="627"/>
      <point x="300" y="648"/>
      <point x="300" y="695" type="curve" smooth="yes"/>
      <point x="300" y="749"/>
      <point x="247" y="785"/>
      <point x="176" y="785" type="curve" smooth="yes"/>
      <point x="102" y="785"/>
      <point x="50" y="746"/>
      <point x="50" y="691" type="curve" smooth="yes"/>
      <point x="50" y="644"/>
      <point x="89" y="620"/>
      <point x="133" y="600" type="curve"/>
      <point x="85" y="581"/>
      <point x="40" y="558"/>
      <point x="40" y="504" type="curve" smooth="yes"/>
      <point x="40" y="442"/>
      <point x="97" y="409"/>
    </contour>
    <contour>
      <point x="101" y="696" type="curve" smooth="yes"/>
      <point x="101" y="729"/>
      <point x="132" y="749"/>
      <point x="176" y="749" type="curve" smooth="yes"/>
      <point x="217" y="749"/>
      <point x="252" y="731"/>
      <point x="252" y="690" type="curve" smooth="yes"/>
      <point x="252" y="654"/>
      <point x="221" y="638"/>
      <point x="185" y="623" type="curve"/>
      <point x="140" y="642"/>
      <point x="101" y="659"/>
    </contour>
    <contour>
      <point x="175" y="445" type="curve" smooth="yes"/>
      <point x="123" y="445"/>
      <point x="88" y="469"/>
      <point x="88" y="511" type="curve" smooth="yes"/>
      <point x="88" y="552"/>
      <point x="124" y="570"/>
      <point x="163" y="587" type="curve"/>
      <point x="215" y="566"/>
      <point x="262" y="547"/>
      <point x="262" y="504" type="curve" smooth="yes"/>
      <point x="262" y="467"/>
      <point x="223" y="445"/>
    </contour>
  </outline>
</glyph>
<glyph name="ninesuperior" format="1">
  <advance width="348"/>
  <unicode hex="2079"/>
  <outline>
    <contour>
      <point x="157" y="446" type="curve" smooth="yes"/>
      <point x="137" y="446"/>
      <point x="106" y="450"/>
      <point x="76" y="487" type="curve"/>
      <point x="50" y="459" type="line"/>
      <point x="88" y="417"/>
      <point x="135" y="409"/>
      <point x="164" y="409" type="curve" smooth="yes"/>
      <point x="259" y="409"/>
      <point x="305" y="496"/>
      <point x="305" y="611" type="curve" smooth="yes"/>
      <point x="305" y="709"/>
      <point x="272" y="785"/>
      <point x="169" y="785" type="curve" smooth="yes"/>
      <point x="81" y="785"/>
      <point x="42" y="730"/>
      <point x="42" y="662" type="curve" smooth="yes"/>
      <point x="42" y="604"/>
      <point x="71" y="553"/>
      <point x="151" y="553" type="curve" smooth="yes"/>
      <point x="212" y="553"/>
      <point x="242" y="582"/>
      <point x="255" y="612" type="curve"/>
      <point x="254" y="499"/>
      <point x="229" y="446"/>
    </contour>
    <contour>
      <point x="163" y="590" type="curve" smooth="yes"/>
      <point x="111" y="590"/>
      <point x="90" y="617"/>
      <point x="90" y="665" type="curve" smooth="yes"/>
      <point x="90" y="714"/>
      <point x="111" y="746"/>
      <point x="168" y="746" type="curve" smooth="yes"/>
      <point x="227" y="746"/>
      <point x="247" y="711"/>
      <point x="253" y="662" type="curve"/>
      <point x="250" y="630"/>
      <point x="228" y="590"/>
    </contour>
  </outline>
</glyph>
<glyph name="plussuperior" format="1">
  <advance width="296"/>
  <unicode hex="207A"/>
  <outline>
    <contour>
      <point x="32" y="581" type="line"/>
      <point x="133" y="581" type="line"/>
      <point x="133" y="485" type="line"/>
      <point x="168" y="485" type="line"/>
      <point x="168" y="581" type="line"/>
      <point x="264" y="581" type="line"/>
      <point x="264" y="614" type="line"/>
      <point x="168" y="614" type="line"/>
      <point x="168" y="711" type="line"/>
      <point x="133" y="711" type="line"/>
      <point x="133" y="614" type="line"/>
      <point x="32" y="614" type="line"/>
    </contour>
  </outline>
</glyph>
<glyph name="parenleftsuperior" format="1">
  <advance width="218"/>
  <unicode hex="207D"/>
  <outline>
    <contour>
      <point x="147" y="865" type="curve"/>
      <point x="190" y="865" type="line"/>
      <point x="118" y="777"/>
      <point x="82" y="683"/>
      <point x="82" y="585" type="curve" smooth="yes"/>
      <point x="82" y="487"/>
      <point x="118" y="387"/>
      <point x="190" y="301" type="curve"/>
      <point x="146" y="301" type="line"/>
      <point x="73" y="393"/>
      <point x="42" y="489"/>
      <point x="42" y="585" type="curve" smooth="yes"/>
      <point x="42" y="681"/>
      <point x="75" y="776"/>
    </contour>
  </outline>
</glyph>
<glyph name="n.superior" format="1">
  <advance width="404"/>
  <unicode hex="207F"/>
  <outline>
    <contour>
      <point x="235" y="451" type="line"/>
      <point x="288" y="451" type="line"/>
      <point x="288" y="587" type="line" smooth="yes"/>
      <point x="288" y="651"/>
      <point x="259" y="674"/>
      <point x="217" y="674" type="curve" smooth="yes"/>
      <point x="164" y="674"/>
      <point x="129" y="637"/>
      <point x="128" y="593" type="curve"/>
      <point x="128" y="451" type="line"/>
      <point x="179" y="451" type="line"/>
      <point x="179" y="415" type="line"/>
      <point x="29" y="415" type="line"/>
      <point x="29" y="451" type="line"/>
      <point x="81" y="451" type="line"/>
      <point x="81" y="668" type="line"/>
      <point x="27" y="668" type="line"/>
      <point x="27" y="704" type="line"/>
      <point x="128" y="704" type="line"/>
      <point x="128" y="652" type="line"/>
      <point x="148" y="688"/>
      <point x="184" y="710"/>
      <point x="232" y="710" type="curve" smooth="yes"/>
      <point x="290" y="710"/>
      <point x="335" y="677"/>
      <point x="335" y="599" type="curve" smooth="yes"/>
      <point x="335" y="451" type="line"/>
      <point x="386" y="451" type="line"/>
      <point x="386" y="415" type="line"/>
      <point x="235" y="415" type="line"/>
    </contour>
  </outline>
</glyph>
<glyph name="oneinferior" format="1">
  <advance width="254"/>
  <unicode hex="2081"/>
  <outline>
    <contour>
      <point x="36" y="37" type="line"/>
      <point x="112" y="37" type="line"/>
      <point x="112" y="327" type="line"/>
      <point x="36" y="327" type="line"/>
      <point x="36" y="364" type="line"/>
      <point x="159" y="364" type="line"/>
      <point x="159" y="37" type="line"/>
      <point x="232" y="37" type="line"/>
      <point x="232" y="0" type="line"/>
      <point x="36" y="0" type="line"/>
    </contour>
  </outline>
</glyph>
<glyph name="twoinferior" format="1">
  <advance width="341"/>
  <unicode hex="2082"/>
  <outline>
    <contour>
      <point x="81" y="255" type="line"/>
      <point x="95" y="315" type="line"/>
      <point x="113" y="328"/>
      <point x="130" y="333"/>
      <point x="155" y="333" type="curve" smooth="yes"/>
      <point x="211" y="333"/>
      <point x="231" y="305"/>
      <point x="231" y="270" type="curve" smooth="yes"/>
      <point x="231" y="188"/>
      <point x="120" y="105"/>
      <point x="36" y="33" type="curve"/>
      <point x="40" y="0" type="line"/>
      <point x="304" y="0" type="line"/>
      <point x="314" y="87" type="line"/>
      <point x="276" y="91" type="line"/>
      <point x="267" y="37" type="line"/>
      <point x="97" y="37" type="line"/>
      <point x="147" y="80"/>
      <point x="283" y="174"/>
      <point x="283" y="273" type="curve" smooth="yes"/>
      <point x="283" y="323"/>
      <point x="249" y="370"/>
      <point x="169" y="370" type="curve" smooth="yes"/>
      <point x="128" y="370"/>
      <point x="82" y="358"/>
      <point x="54" y="330" type="curve"/>
      <point x="44" y="260" type="line"/>
    </contour>
  </outline>
</glyph>
<glyph name="threeinferior" format="1">
  <advance width="340"/>
  <unicode hex="2083"/>
  <outline>
    <contour>
      <point x="88" y="262" type="line"/>
      <point x="100" y="314" type="line"/>
      <point x="120" y="326"/>
      <point x="139" y="332"/>
      <point x="164" y="332" type="curve"/>
      <point x="208" y="332"/>
      <point x="234" y="310"/>
      <point x="234" y="275" type="curve" smooth="yes"/>
      <point x="234" y="237"/>
      <point x="205" y="209"/>
      <point x="138" y="205" type="curve"/>
      <point x="138" y="173" type="line"/>
      <point x="225" y="171"/>
      <point x="249" y="143"/>
      <point x="249" y="105" type="curve" smooth="yes"/>
      <point x="249" y="61"/>
      <point x="217" y="30"/>
      <point x="163" y="30" type="curve" smooth="yes"/>
      <point x="106" y="30"/>
      <point x="80" y="65"/>
      <point x="73" y="98" type="curve"/>
      <point x="39" y="90" type="line"/>
      <point x="46" y="33"/>
      <point x="92" y="-7"/>
      <point x="160" y="-7" type="curve" smooth="yes"/>
      <point x="234" y="-7"/>
      <point x="300" y="28"/>
      <point x="300" y="101" type="curve" smooth="yes"/>
      <point x="300" y="142"/>
      <point x="278" y="182"/>
      <point x="206" y="192" type="curve"/>
      <point x="206" y="194" type="line"/>
      <point x="263" y="209"/>
      <point x="283" y="244"/>
      <point x="283" y="281" type="curve" smooth="yes"/>
      <point x="283" y="336"/>
      <point x="240" y="369"/>
      <point x="177" y="369" type="curve" smooth="yes"/>
      <point x="139" y="369"/>
      <point x="88" y="357"/>
      <point x="60" y="329" type="curve"/>
      <point x="51" y="267" type="line"/>
    </contour>
  </outline>
</glyph>
<glyph name="sixinferior" format="1">
  <advance width="348"/>
  <unicode hex="2086"/>
  <outline>
    <contour>
      <point x="194" y="333" type="curve" smooth="yes"/>
      <point x="214" y="333"/>
      <point x="241" y="329"/>
      <point x="271" y="292" type="curve"/>
      <point x="297" y="320" type="line"/>
      <point x="259" y="362"/>
      <point x="216" y="370"/>
      <point x="187" y="370" type="curve" smooth="yes"/>
      <point x="92" y="370"/>
      <point x="42" y="284"/>
      <point x="42" y="166" type="curve" smooth="yes"/>
      <point x="42" y="69"/>
      <point x="76" y="-6"/>
      <point x="178" y="-6" type="curve" smooth="yes"/>
      <point x="266" y="-6"/>
      <point x="305" y="49"/>
      <point x="305" y="117" type="curve" smooth="yes"/>
      <point x="305" y="175"/>
      <point x="276" y="226"/>
      <point x="196" y="226" type="curve" smooth="yes"/>
      <point x="135" y="226"/>
      <point x="104" y="197"/>
      <point x="92" y="166" type="curve"/>
      <point x="92" y="279"/>
      <point x="121" y="333"/>
    </contour>
    <contour>
      <point x="184" y="189" type="curve" smooth="yes"/>
      <point x="236" y="189"/>
      <point x="257" y="162"/>
      <point x="257" y="114" type="curve" smooth="yes"/>
      <point x="257" y="65"/>
      <point x="236" y="33"/>
      <point x="179" y="33" type="curve" smooth="yes"/>
      <point x="119" y="33"/>
      <point x="100" y="68"/>
      <point x="94" y="116" type="curve"/>
      <point x="96" y="148"/>
      <point x="118" y="189"/>
    </contour>
  </outline>
</glyph>
<glyph name="plus.inferior" format="1">
  <advance width="295"/>
  <unicode hex="208A"/>
  <outline>
    <contour>
      <point x="31" y="166" type="line"/>
      <point x="132" y="166" type="line"/>
      <point x="132" y="70" type="line"/>
      <point x="167" y="70" type="line"/>
      <point x="167" y="166" type="line"/>
      <point x="263" y="166" type="line"/>
      <point x="263" y="199" type="line"/>
      <point x="167" y="199" type="line"/>
      <point x="167" y="296" type="line"/>
      <point x="132" y="296" type="line"/>
      <point x="132" y="199" type="line"/>
      <point x="31" y="199" type="line"/>
    </contour>
  </outline>
</glyph>
<glyph name="equal.inferior" format="1">
  <advance width="406"/>
  <unicode hex="208C"/>
  <outline>
    <contour>
      <point x="52" y="235" type="line"/>
      <point x="353" y="235" type="line"/>
      <point x="353" y="269" type="line"/>
      <point x="52" y="269" type="line"/>
    </contour>
    <contour>
      <point x="52" y="96" type="line"/>
      <point x="353" y="96" type="line"/>
      <point x="353" y="130" type="line"/>
      <point x="52" y="130" type="line"/>
    </contour>
  </outline>
</glyph>
<glyph name="parenleft.inferior" format="1">
  <advance width="216"/>
  <unicode hex="208D"/>
  <outline>
    <contour>
      <point x="147" y="450" type="curve"/>
      <point x="190" y="450" type="line"/>
      <point x="118" y="362"/>
      <point x="82" y="268"/>
      <point x="82" y="170" type="curve" smooth="yes"/>
      <point x="82" y="72"/>
      <point x="118" y="-28"/>
      <point x="190" y="-114" type="curve"/>
      <point x="146" y="-114" type="line"/>
      <point x="73" y="-22"/>
      <point x="42" y="74"/>
      <point x="42" y="170" type="curve" smooth="yes"/>
      <point x="42" y="266"/>
      <point x="75" y="361"/>
    </contour>
  </outline>
</glyph>
<glyph name="parenright.inferior" format="1">
  <advance width="217"/>
  <unicode hex="208E"/>
  <outline>
    <contour>
      <point x="70" y="-115" type="curve"/>
      <point x="26" y="-115" type="line"/>
      <point x="98" y="-28"/>
      <point x="135" y="66"/>
      <point x="135" y="165" type="curve" smooth="yes"/>
      <point x="135" y="262"/>
      <point x="98" y="362"/>
      <point x="26" y="449" type="curve"/>
      <point x="71" y="449" type="line"/>
      <point x="143" y="357"/>
      <point x="175" y="260"/>
      <point x="175" y="165" type="curve" smooth="yes"/>
      <point x="175" y="68"/>
      <point x="141" y="-26"/>
    </contour>
  </outline>
</glyph>
<glyph name="a.inferior" format="1">
  <advance width="344"/>
  <unicode hex="2090"/>
  <outline>
    <contour>
      <point x="160" y="262" type="curve" smooth="yes"/>
      <point x="203" y="262"/>
      <point x="228" y="236"/>
      <point x="228" y="196" type="curve" smooth="yes"/>
      <point x="228" y="159" type="line"/>
      <point x="212" y="160"/>
      <point x="193" y="162"/>
      <point x="172" y="162" type="curve" smooth="yes"/>
      <point x="109" y="162"/>
      <point x="35" y="148"/>
      <point x="35" y="74" type="curve" smooth="yes"/>
      <point x="35" y="13"/>
      <point x="86" y="-7"/>
      <point x="126" y="-7" type="curve" smooth="yes"/>
      <point x="174" y="-7"/>
      <point x="209" y="22"/>
      <point x="228" y="54" type="curve"/>
      <point x="228" y="16"/>
      <point x="247" y="-7"/>
      <point x="282" y="-7" type="curve" smooth="yes"/>
      <point x="296" y="-7"/>
      <point x="310" y="-3"/>
      <point x="320" y="3" type="curve"/>
      <point x="320" y="30" type="line"/>
      <point x="314" y="27"/>
      <point x="306" y="26"/>
      <point x="300" y="26" type="curve" smooth="yes"/>
      <point x="283" y="26"/>
      <point x="275" y="36"/>
      <point x="275" y="58" type="curve" smooth="yes"/>
      <point x="275" y="198" type="line" smooth="yes"/>
      <point x="275" y="264"/>
      <point x="233" y="295"/>
      <point x="167" y="295" type="curve" smooth="yes"/>
      <point x="130" y="295"/>
      <point x="87" y="284"/>
      <point x="60" y="261" type="curve"/>
      <point x="52" y="197" type="line"/>
      <point x="89" y="193" type="line"/>
      <point x="99" y="244" type="line"/>
      <point x="118" y="254"/>
      <point x="136" y="262"/>
    </contour>
    <contour>
      <point x="228" y="113" type="line" smooth="yes"/>
      <point x="228" y="62"/>
      <point x="185" y="27"/>
      <point x="142" y="27" type="curve" smooth="yes"/>
      <point x="115" y="27"/>
      <point x="84" y="41"/>
      <point x="84" y="80" type="curve" smooth="yes"/>
      <point x="84" y="127"/>
      <point x="129" y="136"/>
      <point x="173" y="136" type="curve" smooth="yes"/>
      <point x="191" y="136"/>
      <point x="212" y="134"/>
      <point x="228" y="133" type="curve"/>
    </contour>
    <contour>
      <point x="119" y="368" type="move" name="top"/>
    </contour>
  </outline>
</glyph>
<glyph name="k.inferior" format="1">
  <advance width="363"/>
  <unicode hex="2096"/>
  <outline>
    <contour>
      <point x="210" y="36" type="line"/>
      <point x="257" y="36" type="line"/>
      <point x="174" y="136" type="line"/>
      <point x="121" y="136" type="line"/>
      <point x="121" y="36" type="line"/>
      <point x="165" y="36" type="line"/>
      <point x="165" y="0" type="line"/>
      <point x="22" y="0" type="line"/>
      <point x="22" y="36" type="line"/>
      <point x="74" y="36" type="line"/>
      <point x="74" y="411" type="line"/>
      <point x="21" y="411" type="line"/>
      <point x="21" y="447" type="line"/>
      <point x="121" y="447" type="line"/>
      <point x="121" y="170" type="line"/>
      <point x="176" y="170" type="line"/>
      <point x="244" y="253" type="line"/>
      <point x="196" y="253" type="line"/>
      <point x="196" y="289" type="line"/>
      <point x="336" y="289" type="line"/>
      <point x="336" y="253" type="line"/>
      <point x="289" y="253" type="line"/>
      <point x="210" y="157" type="line"/>
      <point x="309" y="36" type="line"/>
      <point x="351" y="36" type="line"/>
      <point x="351" y="0" type="line"/>
      <point x="210" y="0" type="line"/>
    </contour>
  </outline>
</glyph>
<glyph name="n.inferior" format="1">
  <advance width="403"/>
  <unicode hex="2099"/>
  <outline>
    <contour>
      <point x="235" y="36" type="line"/>
      <point x="288" y="36" type="line"/>
      <point x="288" y="172" type="line" smooth="yes"/>
      <point x="288" y="236"/>
      <point x="259" y="259"/>
      <point x="217" y="259" type="curve" smooth="yes"/>
      <point x="164" y="259"/>
      <point x="129" y="222"/>
      <point x="128" y="178" type="curve"/>
      <point x="128" y="36" type="line"/>
      <point x="179" y="36" type="line"/>
      <point x="179" y="0" type="line"/>
      <point x="29" y="0" type="line"/>
      <point x="29" y="36" type="line"/>
      <point x="81" y="36" type="line"/>
      <point x="81" y="253" type="line"/>
      <point x="27" y="253" type="line"/>
      <point x="27" y="289" type="line"/>
      <point x="128" y="289" type="line"/>
      <point x="128" y="237" type="line"/>
      <point x="148" y="273"/>
      <point x="184" y="295"/>
      <point x="232" y="295" type="curve" smooth="yes"/>
      <point x="290" y="295"/>
      <point x="335" y="262"/>
      <point x="335" y="184" type="curve" smooth="yes"/>
      <point x="335" y="36" type="line"/>
      <point x="386" y="36" type="line"/>
      <point x="386" y="0" type="line"/>
      <point x="235" y="0" type="line"/>
    </contour>
    <contour>
      <point x="205" y="368" type="move" name="top"/>
    </contour>
  </outline>
</glyph>
<glyph name="s.inferior" format="1">
  <advance width="312"/>
  <unicode hex="209B"/>
  <outline>
    <contour>
      <point x="155" y="30" type="curve" smooth="yes"/>
      <point x="122" y="30"/>
      <point x="97" y="39"/>
      <point x="80" y="51" type="curve"/>
      <point x="81" y="92" type="line"/>
      <point x="44" y="96" type="line"/>
      <point x="37" y="28" type="line"/>
      <point x="62" y="10"/>
      <point x="119" y="-7"/>
      <point x="168" y="-7" type="curve"/>
      <point x="234" y="-7"/>
      <point x="277" y="27"/>
      <point x="277" y="83" type="curve" smooth="yes"/>
      <point x="277" y="200"/>
      <point x="92" y="137"/>
      <point x="92" y="217" type="curve" smooth="yes"/>
      <point x="92" y="246"/>
      <point x="116" y="259"/>
      <point x="158" y="259" type="curve" smooth="yes"/>
      <point x="174" y="259"/>
      <point x="191" y="257"/>
      <point x="217" y="246" type="curve"/>
      <point x="227" y="201" type="line"/>
      <point x="264" y="206" type="line"/>
      <point x="255" y="269" type="line"/>
      <point x="215" y="291"/>
      <point x="181" y="295"/>
      <point x="145" y="295" type="curve"/>
      <point x="94" y="295"/>
      <point x="41" y="270"/>
      <point x="41" y="211" type="curve" smooth="yes"/>
      <point x="41" y="100"/>
      <point x="229" y="158"/>
      <point x="229" y="79" type="curve" smooth="yes"/>
      <point x="229" y="45"/>
      <point x="198" y="30"/>
    </contour>
  </outline>
</glyph>
<glyph name="t.inferior" format="1">
  <advance width="279"/>
  <unicode hex="209C"/>
  <outline>
    <contour>
      <point x="23" y="289" type="line"/>
      <point x="70" y="289" type="line"/>
      <point x="70" y="382" type="line"/>
      <point x="118" y="382" type="line"/>
      <point x="118" y="289" type="line"/>
      <point x="234" y="289" type="line"/>
      <point x="234" y="253" type="line"/>
      <point x="118" y="253" type="line"/>
      <point x="118" y="91" type="line" smooth="yes"/>
      <point x="118" y="55"/>
      <point x="131" y="31"/>
      <point x="167" y="31" type="curve" smooth="yes"/>
      <point x="191" y="31"/>
      <point x="213" y="40"/>
      <point x="222" y="88" type="curve"/>
      <point x="257" y="77" type="line"/>
      <point x="249" y="23"/>
      <point x="216" y="-7"/>
      <point x="163" y="-7" type="curve" smooth="yes"/>
      <point x="103" y="-7"/>
      <point x="70" y="28"/>
      <point x="70" y="85" type="curve" smooth="yes"/>
      <point x="70" y="253" type="line"/>
      <point x="23" y="253" type="line"/>
    </contour>
  </outline>
</glyph>
<glyph name="cruzeiro" format="1">
  <advance width="668"/>
  <unicode hex="20A2"/>
  <outline>
    <contour>
      <point x="572" y="45" type="curve"/>
      <point x="590" y="162" type="line"/>
      <point x="540" y="168" type="line"/>
      <point x="520" y="72" type="line"/>
      <point x="476" y="50"/>
      <point x="436" y="43"/>
      <point x="382" y="42" type="curve"/>
      <point x="382" y="191" type="line" smooth="yes"/>
      <point x="382" y="267"/>
      <point x="424" y="322"/>
      <point x="482" y="322" type="curve" smooth="yes"/>
      <point x="494" y="322"/>
      <point x="505" y="321"/>
      <point x="516" y="318" type="curve"/>
      <point x="533" y="242" type="line"/>
      <point x="579" y="248" type="line"/>
      <point x="563" y="347" type="line"/>
      <point x="543" y="365"/>
      <point x="522" y="370"/>
      <point x="490" y="370" type="curve" smooth="yes"/>
      <point x="442" y="370"/>
      <point x="397" y="333"/>
      <point x="379" y="283" type="curve"/>
      <point x="379" y="362" type="line"/>
      <point x="243" y="362" type="line"/>
      <point x="243" y="315" type="line"/>
      <point x="327" y="315" type="line"/>
      <point x="327" y="45" type="line"/>
      <point x="188" y="64"/>
      <point x="106" y="175"/>
      <point x="106" y="324" type="curve" smooth="yes"/>
      <point x="106" y="486"/>
      <point x="208" y="608"/>
      <point x="358" y="608" type="curve" smooth="yes"/>
      <point x="439" y="608"/>
      <point x="482" y="588"/>
      <point x="526" y="559" type="curve"/>
      <point x="546" y="461" type="line"/>
      <point x="596" y="467" type="line"/>
      <point x="578" y="584" type="line"/>
      <point x="522" y="631"/>
      <point x="456" y="660"/>
      <point x="349" y="660" type="curve" smooth="yes"/>
      <point x="175" y="660"/>
      <point x="46" y="510"/>
      <point x="46" y="323" type="curve" smooth="yes"/>
      <point x="46" y="135"/>
      <point x="172" y="-10"/>
      <point x="362" y="-10" type="curve" smooth="yes"/>
      <point x="453" y="-10"/>
      <point x="518" y="6"/>
    </contour>
  </outline>
</glyph>
<glyph name="mill" format="1">
  <advance width="908"/>
  <unicode hex="20A5"/>
  <outline>
    <contour>
      <point x="878" y="0" type="line"/>
      <point x="878" y="46" type="line"/>
      <point x="796" y="46" type="line"/>
      <point x="796" y="280" type="line" smooth="yes"/>
      <point x="796" y="401"/>
      <point x="734" y="453"/>
      <point x="648" y="453" type="curve" smooth="yes"/>
      <point x="631" y="453"/>
      <point x="615" y="450"/>
      <point x="601" y="446" type="curve"/>
      <point x="653" y="565" type="line"/>
      <point x="609" y="565" type="line"/>
      <point x="544" y="417" type="line"/>
      <point x="520" y="397"/>
      <point x="501" y="372"/>
      <point x="488" y="343" type="curve"/>
      <point x="470" y="419"/>
      <point x="416" y="453"/>
      <point x="347" y="453" type="curve" smooth="yes"/>
      <point x="273" y="453"/>
      <point x="224" y="412"/>
      <point x="195" y="357" type="curve"/>
      <point x="195" y="444" type="line"/>
      <point x="56" y="444" type="line"/>
      <point x="56" y="397" type="line"/>
      <point x="140" y="397" type="line"/>
      <point x="140" y="46" type="line"/>
      <point x="57" y="46" type="line"/>
      <point x="57" y="0" type="line"/>
      <point x="275" y="0" type="line"/>
      <point x="275" y="46" type="line"/>
      <point x="195" y="46" type="line"/>
      <point x="195" y="265" type="line"/>
      <point x="197" y="320"/>
      <point x="246" y="404"/>
      <point x="334" y="404" type="curve" smooth="yes"/>
      <point x="394" y="404"/>
      <point x="440" y="369"/>
      <point x="440" y="267" type="curve" smooth="yes"/>
      <point x="440" y="180" type="line"/>
      <point x="381" y="46" type="line"/>
      <point x="358" y="46" type="line"/>
      <point x="358" y="0" type="line"/>
      <point x="361" y="0" type="line"/>
      <point x="304" y="-130" type="line"/>
      <point x="348" y="-130" type="line"/>
      <point x="405" y="0" type="line"/>
      <point x="577" y="0" type="line"/>
      <point x="577" y="46" type="line"/>
      <point x="495" y="46" type="line"/>
      <point x="495" y="205" type="line"/>
      <point x="576" y="390" type="line"/>
      <point x="593" y="399"/>
      <point x="612" y="404"/>
      <point x="634" y="404" type="curve" smooth="yes"/>
      <point x="695" y="404"/>
      <point x="741" y="368"/>
      <point x="741" y="267" type="curve" smooth="yes"/>
      <point x="741" y="46" type="line"/>
      <point x="659" y="46" type="line"/>
      <point x="659" y="0" type="line"/>
    </contour>
    <contour>
      <point x="425" y="46" type="line"/>
      <point x="440" y="80" type="line"/>
      <point x="440" y="46" type="line"/>
    </contour>
  </outline>
</glyph>
